M48
;GenerationSoftware,Autodesk,EAGLE,8.6.0*%
;CreationDate,2018-04-15T11:34:57Z*%
FMAT,2
ICI,OFF
METRIC,TZ,000.000
T15C0.700
T14C0.813
T13C0.900
T12C0.914
T11C1.000
T10C1.016
T9C1.118
T8C1.400
T7C1.600
T6C2.286
T5C2.300
T4C3.000
T3C3.023
T2C3.302
T1C3.531
%
G90
M71
T1
X36830Y85265
T2
X31750Y60071
T3
X36830Y91265
X32030Y88265
T4
X134620Y95250
X26670Y95250
X26670Y3175
X133985Y3175
T5
X124580Y34510
X124580Y21370
T6
X67564Y-33020
X103124Y-33020
X56896Y-33020
X56820Y89078
X92456Y-33020
X21971Y-33020
X32639Y-33020
X138684Y-33020
X128016Y-33020
X44780Y89078
T7
X125000Y94860
X108620Y88560
X125000Y88560
X108620Y82260
X125000Y82260
X108620Y94860
T8
X66912Y96552
X76920Y96552
X66920Y84040
X79460Y86570
X71930Y86560
X76920Y84050
X87310Y86570
X102320Y86570
X99780Y84050
X64450Y86570
X99780Y96552
X89772Y96552
X89780Y84040
X94790Y86560
T9
X29210Y45085
X34290Y45085
X132715Y83185
X132715Y85725
X132715Y88265
X39370Y50800
X31750Y45085
X43180Y50800
X43180Y60960
X39370Y60960
T10
X95250Y-26035
X100330Y-40513
X95250Y-40513
X27305Y-40513
X135890Y-26035
X29845Y-26035
X24765Y-26035
X130810Y-26035
X135890Y-40513
X130810Y-40513
X29845Y-40513
X24765Y-40513
X133350Y-40513
X59690Y-26035
X64770Y-40513
X49530Y78740
X59690Y-40513
X97790Y-40513
X100330Y-26035
X64770Y-26035
X62230Y-40513
X52070Y78740
T11
X34290Y18415
X29210Y15875
X29210Y8255
X29210Y20955
X127290Y31440
X127290Y28940
X127290Y26940
X127290Y24440
X29210Y13335
X34290Y10795
T12
X116840Y1905
X116840Y4445
X119380Y1905
X119380Y4445
X121920Y1905
X121920Y4445
X124460Y1905
X124460Y4445
X11430Y-38100
X13970Y-38100
X63500Y4445
X86360Y4445
X58420Y4445
X63500Y1905
X60960Y4445
X60960Y1905
X58420Y1905
X55880Y4445
X55880Y1905
X53340Y4445
X53340Y1905
X13970Y-33020
X11430Y-33020
X13970Y-30480
X11430Y-30480
X13970Y-27940
X11430Y-27940
X52050Y86360
X11430Y-35560
X49550Y86360
X83820Y1905
X83820Y4445
X49550Y84379
X86360Y1905
X13970Y-35560
X88900Y1905
X88900Y4445
X91440Y1905
X91440Y4445
X93980Y1905
X93980Y4445
X114300Y1905
X114300Y4445
X52050Y84379
T13
X115570Y64770
X115570Y67310
X118110Y64770
X118110Y67310
X120650Y64770
X120650Y67310
X123190Y64770
X123190Y67310
X125730Y64770
X125730Y67310
X128270Y64770
X128270Y67310
X130810Y64770
X130810Y67310
X125730Y13970
X80010Y16510
X69850Y13970
X69850Y16510
X72390Y13970
X72390Y16510
X74930Y13970
X74930Y16510
X77470Y13970
X77470Y16510
X80010Y13970
X82550Y13970
X82550Y16510
X85090Y13970
X85090Y16510
X87630Y13970
X87630Y16510
X90170Y13970
X90170Y16510
X92710Y13970
X92710Y16510
X95250Y13970
X95250Y16510
X97790Y13970
X97790Y16510
X100330Y13970
X100330Y16510
X102870Y13970
X102870Y16510
X105410Y13970
X105410Y16510
X107950Y13970
X107950Y16510
X110490Y13970
X110490Y16510
X113030Y13970
X113030Y16510
X115570Y13970
X115570Y16510
X118110Y13970
X118110Y16510
X120650Y13970
X120650Y16510
X123190Y13970
X123190Y16510
X125730Y16510
X128270Y13970
X128270Y16510
X130810Y13970
X130810Y16510
X69850Y64770
X69850Y67310
X72390Y64770
X72390Y67310
X74930Y64770
X74930Y67310
X77470Y64770
X77470Y67310
X80010Y64770
X80010Y67310
X82550Y64770
X82550Y67310
X85090Y64770
X85090Y67310
X87630Y64770
X105410Y67310
X87630Y67310
X90170Y64770
X90170Y67310
X92710Y64770
X92710Y67310
X95250Y64770
X95250Y67310
X97790Y64770
X97790Y67310
X100330Y64770
X100330Y67310
X102870Y64770
X102870Y67310
X105410Y64770
X107950Y64770
X107950Y67310
X110490Y64770
X110490Y67310
X113030Y64770
X113030Y67310
T14
X83820Y80010
X91440Y80010
X125730Y60960
X34290Y39370
X29210Y39370
X118110Y60960
X118110Y57150
X125730Y57150
X45720Y67945
X48260Y67945
X125730Y45720
X123190Y53340
X125730Y53340
X125730Y41910
X38100Y20955
X40005Y22225
X38100Y23495
X118110Y41910
X73660Y80010
X104775Y80010
X97155Y80010
X118110Y45720
X66040Y80010
X38100Y27305
X38100Y34925
X40640Y34925
X40640Y27305
X123190Y45720
X120650Y45720
X120650Y53340
X118110Y53340
X44450Y78740
X41910Y78740
X39370Y78740
X43180Y67945
T15
X76200Y5080
X133350Y31750
X104140Y4572
X104140Y-127
X17145Y-39370
X74930Y20955
X74930Y60325
X85725Y36195
X66040Y36195
X47625Y14605
X13970Y-40640
X102870Y36195
X70485Y3175
X130810Y19685
X113665Y36195
X110490Y36195
X69850Y76200
X83820Y57785
X109220Y59690
M30