G04 EAGLE Gerber X2 export*
%TF.Part,Single*%
%TF.FileFunction,Legend,Top,1*%
%TF.FilePolarity,Positive*%
%TF.GenerationSoftware,Autodesk,EAGLE,8.6.0*%
%TF.CreationDate,2018-04-15T11:35:01Z*%
G75*
%MOMM*%
%FSLAX34Y34*%
%LPD*%
%AMOC8*
5,1,8,0,0,1.08239X$1,22.5*%
G01*
%ADD10C,0.152400*%
%ADD11C,0.203200*%
%ADD12C,0.127000*%
%ADD13C,0.254000*%
%ADD14R,0.508000X2.032000*%
%ADD15R,0.635000X0.508000*%
%ADD16R,0.381000X0.508000*%
%ADD17C,0.101600*%
%ADD18C,0.050800*%
%ADD19C,0.177800*%
%ADD20C,0.025400*%
%ADD21C,0.508000*%
%ADD22R,5.842000X0.508000*%
%ADD23R,0.508000X2.286000*%
%ADD24R,0.508000X1.778000*%
%ADD25R,0.508000X1.270000*%
%ADD26R,0.508000X0.762000*%
%ADD27R,0.254000X0.254000*%
%ADD28R,0.762000X0.508000*%
%ADD29C,0.100000*%
%ADD30C,0.762000*%
%ADD31R,0.762000X0.381000*%
%ADD32R,0.431800X1.879600*%
%ADD33R,0.762000X0.635000*%
%ADD34R,1.270000X2.794000*%
%ADD35R,2.540000X0.508000*%
%ADD36R,0.762000X1.905000*%
%ADD37C,0.076200*%
%ADD38R,0.508000X0.381000*%


D10*
X1305560Y31750D02*
X1305570Y32592D01*
X1305601Y33433D01*
X1305653Y34273D01*
X1305725Y35111D01*
X1305818Y35947D01*
X1305931Y36781D01*
X1306065Y37612D01*
X1306219Y38440D01*
X1306393Y39263D01*
X1306588Y40082D01*
X1306802Y40896D01*
X1307037Y41704D01*
X1307291Y42506D01*
X1307564Y43302D01*
X1307858Y44091D01*
X1308170Y44872D01*
X1308502Y45646D01*
X1308852Y46411D01*
X1309221Y47167D01*
X1309609Y47914D01*
X1310015Y48651D01*
X1310438Y49379D01*
X1310880Y50095D01*
X1311339Y50801D01*
X1311815Y51494D01*
X1312308Y52177D01*
X1312818Y52846D01*
X1313343Y53503D01*
X1313885Y54147D01*
X1314443Y54778D01*
X1315016Y55394D01*
X1315603Y55997D01*
X1316206Y56584D01*
X1316822Y57157D01*
X1317453Y57715D01*
X1318097Y58257D01*
X1318754Y58782D01*
X1319423Y59292D01*
X1320106Y59785D01*
X1320799Y60261D01*
X1321505Y60720D01*
X1322221Y61162D01*
X1322949Y61585D01*
X1323686Y61991D01*
X1324433Y62379D01*
X1325189Y62748D01*
X1325954Y63098D01*
X1326728Y63430D01*
X1327509Y63742D01*
X1328298Y64036D01*
X1329094Y64309D01*
X1329896Y64563D01*
X1330704Y64798D01*
X1331518Y65012D01*
X1332337Y65207D01*
X1333160Y65381D01*
X1333988Y65535D01*
X1334819Y65669D01*
X1335653Y65782D01*
X1336489Y65875D01*
X1337327Y65947D01*
X1338167Y65999D01*
X1339008Y66030D01*
X1339850Y66040D01*
X1340692Y66030D01*
X1341533Y65999D01*
X1342373Y65947D01*
X1343211Y65875D01*
X1344047Y65782D01*
X1344881Y65669D01*
X1345712Y65535D01*
X1346540Y65381D01*
X1347363Y65207D01*
X1348182Y65012D01*
X1348996Y64798D01*
X1349804Y64563D01*
X1350606Y64309D01*
X1351402Y64036D01*
X1352191Y63742D01*
X1352972Y63430D01*
X1353746Y63098D01*
X1354511Y62748D01*
X1355267Y62379D01*
X1356014Y61991D01*
X1356751Y61585D01*
X1357479Y61162D01*
X1358195Y60720D01*
X1358901Y60261D01*
X1359594Y59785D01*
X1360277Y59292D01*
X1360946Y58782D01*
X1361603Y58257D01*
X1362247Y57715D01*
X1362878Y57157D01*
X1363494Y56584D01*
X1364097Y55997D01*
X1364684Y55394D01*
X1365257Y54778D01*
X1365815Y54147D01*
X1366357Y53503D01*
X1366882Y52846D01*
X1367392Y52177D01*
X1367885Y51494D01*
X1368361Y50801D01*
X1368820Y50095D01*
X1369262Y49379D01*
X1369685Y48651D01*
X1370091Y47914D01*
X1370479Y47167D01*
X1370848Y46411D01*
X1371198Y45646D01*
X1371530Y44872D01*
X1371842Y44091D01*
X1372136Y43302D01*
X1372409Y42506D01*
X1372663Y41704D01*
X1372898Y40896D01*
X1373112Y40082D01*
X1373307Y39263D01*
X1373481Y38440D01*
X1373635Y37612D01*
X1373769Y36781D01*
X1373882Y35947D01*
X1373975Y35111D01*
X1374047Y34273D01*
X1374099Y33433D01*
X1374130Y32592D01*
X1374140Y31750D01*
X1374130Y30908D01*
X1374099Y30067D01*
X1374047Y29227D01*
X1373975Y28389D01*
X1373882Y27553D01*
X1373769Y26719D01*
X1373635Y25888D01*
X1373481Y25060D01*
X1373307Y24237D01*
X1373112Y23418D01*
X1372898Y22604D01*
X1372663Y21796D01*
X1372409Y20994D01*
X1372136Y20198D01*
X1371842Y19409D01*
X1371530Y18628D01*
X1371198Y17854D01*
X1370848Y17089D01*
X1370479Y16333D01*
X1370091Y15586D01*
X1369685Y14849D01*
X1369262Y14121D01*
X1368820Y13405D01*
X1368361Y12699D01*
X1367885Y12006D01*
X1367392Y11323D01*
X1366882Y10654D01*
X1366357Y9997D01*
X1365815Y9353D01*
X1365257Y8722D01*
X1364684Y8106D01*
X1364097Y7503D01*
X1363494Y6916D01*
X1362878Y6343D01*
X1362247Y5785D01*
X1361603Y5243D01*
X1360946Y4718D01*
X1360277Y4208D01*
X1359594Y3715D01*
X1358901Y3239D01*
X1358195Y2780D01*
X1357479Y2338D01*
X1356751Y1915D01*
X1356014Y1509D01*
X1355267Y1121D01*
X1354511Y752D01*
X1353746Y402D01*
X1352972Y70D01*
X1352191Y-242D01*
X1351402Y-536D01*
X1350606Y-809D01*
X1349804Y-1063D01*
X1348996Y-1298D01*
X1348182Y-1512D01*
X1347363Y-1707D01*
X1346540Y-1881D01*
X1345712Y-2035D01*
X1344881Y-2169D01*
X1344047Y-2282D01*
X1343211Y-2375D01*
X1342373Y-2447D01*
X1341533Y-2499D01*
X1340692Y-2530D01*
X1339850Y-2540D01*
X1339008Y-2530D01*
X1338167Y-2499D01*
X1337327Y-2447D01*
X1336489Y-2375D01*
X1335653Y-2282D01*
X1334819Y-2169D01*
X1333988Y-2035D01*
X1333160Y-1881D01*
X1332337Y-1707D01*
X1331518Y-1512D01*
X1330704Y-1298D01*
X1329896Y-1063D01*
X1329094Y-809D01*
X1328298Y-536D01*
X1327509Y-242D01*
X1326728Y70D01*
X1325954Y402D01*
X1325189Y752D01*
X1324433Y1121D01*
X1323686Y1509D01*
X1322949Y1915D01*
X1322221Y2338D01*
X1321505Y2780D01*
X1320799Y3239D01*
X1320106Y3715D01*
X1319423Y4208D01*
X1318754Y4718D01*
X1318097Y5243D01*
X1317453Y5785D01*
X1316822Y6343D01*
X1316206Y6916D01*
X1315603Y7503D01*
X1315016Y8106D01*
X1314443Y8722D01*
X1313885Y9353D01*
X1313343Y9997D01*
X1312818Y10654D01*
X1312308Y11323D01*
X1311815Y12006D01*
X1311339Y12699D01*
X1310880Y13405D01*
X1310438Y14121D01*
X1310015Y14849D01*
X1309609Y15586D01*
X1309221Y16333D01*
X1308852Y17089D01*
X1308502Y17854D01*
X1308170Y18628D01*
X1307858Y19409D01*
X1307564Y20198D01*
X1307291Y20994D01*
X1307037Y21796D01*
X1306802Y22604D01*
X1306588Y23418D01*
X1306393Y24237D01*
X1306219Y25060D01*
X1306065Y25888D01*
X1305931Y26719D01*
X1305818Y27553D01*
X1305725Y28389D01*
X1305653Y29227D01*
X1305601Y30067D01*
X1305570Y30908D01*
X1305560Y31750D01*
D11*
X1323850Y31750D02*
X1323855Y32143D01*
X1323869Y32535D01*
X1323893Y32927D01*
X1323927Y33318D01*
X1323970Y33709D01*
X1324023Y34098D01*
X1324086Y34485D01*
X1324157Y34871D01*
X1324239Y35256D01*
X1324329Y35638D01*
X1324430Y36017D01*
X1324539Y36395D01*
X1324658Y36769D01*
X1324785Y37140D01*
X1324922Y37508D01*
X1325068Y37873D01*
X1325223Y38234D01*
X1325386Y38591D01*
X1325558Y38944D01*
X1325739Y39292D01*
X1325929Y39636D01*
X1326126Y39976D01*
X1326332Y40310D01*
X1326546Y40639D01*
X1326769Y40963D01*
X1326999Y41281D01*
X1327236Y41594D01*
X1327482Y41900D01*
X1327735Y42201D01*
X1327995Y42495D01*
X1328262Y42783D01*
X1328536Y43064D01*
X1328817Y43338D01*
X1329105Y43605D01*
X1329399Y43865D01*
X1329700Y44118D01*
X1330006Y44364D01*
X1330319Y44601D01*
X1330637Y44831D01*
X1330961Y45054D01*
X1331290Y45268D01*
X1331624Y45474D01*
X1331964Y45671D01*
X1332308Y45861D01*
X1332656Y46042D01*
X1333009Y46214D01*
X1333366Y46377D01*
X1333727Y46532D01*
X1334092Y46678D01*
X1334460Y46815D01*
X1334831Y46942D01*
X1335205Y47061D01*
X1335583Y47170D01*
X1335962Y47271D01*
X1336344Y47361D01*
X1336729Y47443D01*
X1337115Y47514D01*
X1337502Y47577D01*
X1337891Y47630D01*
X1338282Y47673D01*
X1338673Y47707D01*
X1339065Y47731D01*
X1339457Y47745D01*
X1339850Y47750D01*
X1340243Y47745D01*
X1340635Y47731D01*
X1341027Y47707D01*
X1341418Y47673D01*
X1341809Y47630D01*
X1342198Y47577D01*
X1342585Y47514D01*
X1342971Y47443D01*
X1343356Y47361D01*
X1343738Y47271D01*
X1344117Y47170D01*
X1344495Y47061D01*
X1344869Y46942D01*
X1345240Y46815D01*
X1345608Y46678D01*
X1345973Y46532D01*
X1346334Y46377D01*
X1346691Y46214D01*
X1347044Y46042D01*
X1347392Y45861D01*
X1347736Y45671D01*
X1348076Y45474D01*
X1348410Y45268D01*
X1348739Y45054D01*
X1349063Y44831D01*
X1349381Y44601D01*
X1349694Y44364D01*
X1350000Y44118D01*
X1350301Y43865D01*
X1350595Y43605D01*
X1350883Y43338D01*
X1351164Y43064D01*
X1351438Y42783D01*
X1351705Y42495D01*
X1351965Y42201D01*
X1352218Y41900D01*
X1352464Y41594D01*
X1352701Y41281D01*
X1352931Y40963D01*
X1353154Y40639D01*
X1353368Y40310D01*
X1353574Y39976D01*
X1353771Y39636D01*
X1353961Y39292D01*
X1354142Y38944D01*
X1354314Y38591D01*
X1354477Y38234D01*
X1354632Y37873D01*
X1354778Y37508D01*
X1354915Y37140D01*
X1355042Y36769D01*
X1355161Y36395D01*
X1355270Y36017D01*
X1355371Y35638D01*
X1355461Y35256D01*
X1355543Y34871D01*
X1355614Y34485D01*
X1355677Y34098D01*
X1355730Y33709D01*
X1355773Y33318D01*
X1355807Y32927D01*
X1355831Y32535D01*
X1355845Y32143D01*
X1355850Y31750D01*
X1355845Y31357D01*
X1355831Y30965D01*
X1355807Y30573D01*
X1355773Y30182D01*
X1355730Y29791D01*
X1355677Y29402D01*
X1355614Y29015D01*
X1355543Y28629D01*
X1355461Y28244D01*
X1355371Y27862D01*
X1355270Y27483D01*
X1355161Y27105D01*
X1355042Y26731D01*
X1354915Y26360D01*
X1354778Y25992D01*
X1354632Y25627D01*
X1354477Y25266D01*
X1354314Y24909D01*
X1354142Y24556D01*
X1353961Y24208D01*
X1353771Y23864D01*
X1353574Y23524D01*
X1353368Y23190D01*
X1353154Y22861D01*
X1352931Y22537D01*
X1352701Y22219D01*
X1352464Y21906D01*
X1352218Y21600D01*
X1351965Y21299D01*
X1351705Y21005D01*
X1351438Y20717D01*
X1351164Y20436D01*
X1350883Y20162D01*
X1350595Y19895D01*
X1350301Y19635D01*
X1350000Y19382D01*
X1349694Y19136D01*
X1349381Y18899D01*
X1349063Y18669D01*
X1348739Y18446D01*
X1348410Y18232D01*
X1348076Y18026D01*
X1347736Y17829D01*
X1347392Y17639D01*
X1347044Y17458D01*
X1346691Y17286D01*
X1346334Y17123D01*
X1345973Y16968D01*
X1345608Y16822D01*
X1345240Y16685D01*
X1344869Y16558D01*
X1344495Y16439D01*
X1344117Y16330D01*
X1343738Y16229D01*
X1343356Y16139D01*
X1342971Y16057D01*
X1342585Y15986D01*
X1342198Y15923D01*
X1341809Y15870D01*
X1341418Y15827D01*
X1341027Y15793D01*
X1340635Y15769D01*
X1340243Y15755D01*
X1339850Y15750D01*
X1339457Y15755D01*
X1339065Y15769D01*
X1338673Y15793D01*
X1338282Y15827D01*
X1337891Y15870D01*
X1337502Y15923D01*
X1337115Y15986D01*
X1336729Y16057D01*
X1336344Y16139D01*
X1335962Y16229D01*
X1335583Y16330D01*
X1335205Y16439D01*
X1334831Y16558D01*
X1334460Y16685D01*
X1334092Y16822D01*
X1333727Y16968D01*
X1333366Y17123D01*
X1333009Y17286D01*
X1332656Y17458D01*
X1332308Y17639D01*
X1331964Y17829D01*
X1331624Y18026D01*
X1331290Y18232D01*
X1330961Y18446D01*
X1330637Y18669D01*
X1330319Y18899D01*
X1330006Y19136D01*
X1329700Y19382D01*
X1329399Y19635D01*
X1329105Y19895D01*
X1328817Y20162D01*
X1328536Y20436D01*
X1328262Y20717D01*
X1327995Y21005D01*
X1327735Y21299D01*
X1327482Y21600D01*
X1327236Y21906D01*
X1326999Y22219D01*
X1326769Y22537D01*
X1326546Y22861D01*
X1326332Y23190D01*
X1326126Y23524D01*
X1325929Y23864D01*
X1325739Y24208D01*
X1325558Y24556D01*
X1325386Y24909D01*
X1325223Y25266D01*
X1325068Y25627D01*
X1324922Y25992D01*
X1324785Y26360D01*
X1324658Y26731D01*
X1324539Y27105D01*
X1324430Y27483D01*
X1324329Y27862D01*
X1324239Y28244D01*
X1324157Y28629D01*
X1324086Y29015D01*
X1324023Y29402D01*
X1323970Y29791D01*
X1323927Y30182D01*
X1323893Y30573D01*
X1323869Y30965D01*
X1323855Y31357D01*
X1323850Y31750D01*
D10*
X232410Y31750D02*
X232420Y32592D01*
X232451Y33433D01*
X232503Y34273D01*
X232575Y35111D01*
X232668Y35947D01*
X232781Y36781D01*
X232915Y37612D01*
X233069Y38440D01*
X233243Y39263D01*
X233438Y40082D01*
X233652Y40896D01*
X233887Y41704D01*
X234141Y42506D01*
X234414Y43302D01*
X234708Y44091D01*
X235020Y44872D01*
X235352Y45646D01*
X235702Y46411D01*
X236071Y47167D01*
X236459Y47914D01*
X236865Y48651D01*
X237288Y49379D01*
X237730Y50095D01*
X238189Y50801D01*
X238665Y51494D01*
X239158Y52177D01*
X239668Y52846D01*
X240193Y53503D01*
X240735Y54147D01*
X241293Y54778D01*
X241866Y55394D01*
X242453Y55997D01*
X243056Y56584D01*
X243672Y57157D01*
X244303Y57715D01*
X244947Y58257D01*
X245604Y58782D01*
X246273Y59292D01*
X246956Y59785D01*
X247649Y60261D01*
X248355Y60720D01*
X249071Y61162D01*
X249799Y61585D01*
X250536Y61991D01*
X251283Y62379D01*
X252039Y62748D01*
X252804Y63098D01*
X253578Y63430D01*
X254359Y63742D01*
X255148Y64036D01*
X255944Y64309D01*
X256746Y64563D01*
X257554Y64798D01*
X258368Y65012D01*
X259187Y65207D01*
X260010Y65381D01*
X260838Y65535D01*
X261669Y65669D01*
X262503Y65782D01*
X263339Y65875D01*
X264177Y65947D01*
X265017Y65999D01*
X265858Y66030D01*
X266700Y66040D01*
X267542Y66030D01*
X268383Y65999D01*
X269223Y65947D01*
X270061Y65875D01*
X270897Y65782D01*
X271731Y65669D01*
X272562Y65535D01*
X273390Y65381D01*
X274213Y65207D01*
X275032Y65012D01*
X275846Y64798D01*
X276654Y64563D01*
X277456Y64309D01*
X278252Y64036D01*
X279041Y63742D01*
X279822Y63430D01*
X280596Y63098D01*
X281361Y62748D01*
X282117Y62379D01*
X282864Y61991D01*
X283601Y61585D01*
X284329Y61162D01*
X285045Y60720D01*
X285751Y60261D01*
X286444Y59785D01*
X287127Y59292D01*
X287796Y58782D01*
X288453Y58257D01*
X289097Y57715D01*
X289728Y57157D01*
X290344Y56584D01*
X290947Y55997D01*
X291534Y55394D01*
X292107Y54778D01*
X292665Y54147D01*
X293207Y53503D01*
X293732Y52846D01*
X294242Y52177D01*
X294735Y51494D01*
X295211Y50801D01*
X295670Y50095D01*
X296112Y49379D01*
X296535Y48651D01*
X296941Y47914D01*
X297329Y47167D01*
X297698Y46411D01*
X298048Y45646D01*
X298380Y44872D01*
X298692Y44091D01*
X298986Y43302D01*
X299259Y42506D01*
X299513Y41704D01*
X299748Y40896D01*
X299962Y40082D01*
X300157Y39263D01*
X300331Y38440D01*
X300485Y37612D01*
X300619Y36781D01*
X300732Y35947D01*
X300825Y35111D01*
X300897Y34273D01*
X300949Y33433D01*
X300980Y32592D01*
X300990Y31750D01*
X300980Y30908D01*
X300949Y30067D01*
X300897Y29227D01*
X300825Y28389D01*
X300732Y27553D01*
X300619Y26719D01*
X300485Y25888D01*
X300331Y25060D01*
X300157Y24237D01*
X299962Y23418D01*
X299748Y22604D01*
X299513Y21796D01*
X299259Y20994D01*
X298986Y20198D01*
X298692Y19409D01*
X298380Y18628D01*
X298048Y17854D01*
X297698Y17089D01*
X297329Y16333D01*
X296941Y15586D01*
X296535Y14849D01*
X296112Y14121D01*
X295670Y13405D01*
X295211Y12699D01*
X294735Y12006D01*
X294242Y11323D01*
X293732Y10654D01*
X293207Y9997D01*
X292665Y9353D01*
X292107Y8722D01*
X291534Y8106D01*
X290947Y7503D01*
X290344Y6916D01*
X289728Y6343D01*
X289097Y5785D01*
X288453Y5243D01*
X287796Y4718D01*
X287127Y4208D01*
X286444Y3715D01*
X285751Y3239D01*
X285045Y2780D01*
X284329Y2338D01*
X283601Y1915D01*
X282864Y1509D01*
X282117Y1121D01*
X281361Y752D01*
X280596Y402D01*
X279822Y70D01*
X279041Y-242D01*
X278252Y-536D01*
X277456Y-809D01*
X276654Y-1063D01*
X275846Y-1298D01*
X275032Y-1512D01*
X274213Y-1707D01*
X273390Y-1881D01*
X272562Y-2035D01*
X271731Y-2169D01*
X270897Y-2282D01*
X270061Y-2375D01*
X269223Y-2447D01*
X268383Y-2499D01*
X267542Y-2530D01*
X266700Y-2540D01*
X265858Y-2530D01*
X265017Y-2499D01*
X264177Y-2447D01*
X263339Y-2375D01*
X262503Y-2282D01*
X261669Y-2169D01*
X260838Y-2035D01*
X260010Y-1881D01*
X259187Y-1707D01*
X258368Y-1512D01*
X257554Y-1298D01*
X256746Y-1063D01*
X255944Y-809D01*
X255148Y-536D01*
X254359Y-242D01*
X253578Y70D01*
X252804Y402D01*
X252039Y752D01*
X251283Y1121D01*
X250536Y1509D01*
X249799Y1915D01*
X249071Y2338D01*
X248355Y2780D01*
X247649Y3239D01*
X246956Y3715D01*
X246273Y4208D01*
X245604Y4718D01*
X244947Y5243D01*
X244303Y5785D01*
X243672Y6343D01*
X243056Y6916D01*
X242453Y7503D01*
X241866Y8106D01*
X241293Y8722D01*
X240735Y9353D01*
X240193Y9997D01*
X239668Y10654D01*
X239158Y11323D01*
X238665Y12006D01*
X238189Y12699D01*
X237730Y13405D01*
X237288Y14121D01*
X236865Y14849D01*
X236459Y15586D01*
X236071Y16333D01*
X235702Y17089D01*
X235352Y17854D01*
X235020Y18628D01*
X234708Y19409D01*
X234414Y20198D01*
X234141Y20994D01*
X233887Y21796D01*
X233652Y22604D01*
X233438Y23418D01*
X233243Y24237D01*
X233069Y25060D01*
X232915Y25888D01*
X232781Y26719D01*
X232668Y27553D01*
X232575Y28389D01*
X232503Y29227D01*
X232451Y30067D01*
X232420Y30908D01*
X232410Y31750D01*
D11*
X250700Y31750D02*
X250705Y32143D01*
X250719Y32535D01*
X250743Y32927D01*
X250777Y33318D01*
X250820Y33709D01*
X250873Y34098D01*
X250936Y34485D01*
X251007Y34871D01*
X251089Y35256D01*
X251179Y35638D01*
X251280Y36017D01*
X251389Y36395D01*
X251508Y36769D01*
X251635Y37140D01*
X251772Y37508D01*
X251918Y37873D01*
X252073Y38234D01*
X252236Y38591D01*
X252408Y38944D01*
X252589Y39292D01*
X252779Y39636D01*
X252976Y39976D01*
X253182Y40310D01*
X253396Y40639D01*
X253619Y40963D01*
X253849Y41281D01*
X254086Y41594D01*
X254332Y41900D01*
X254585Y42201D01*
X254845Y42495D01*
X255112Y42783D01*
X255386Y43064D01*
X255667Y43338D01*
X255955Y43605D01*
X256249Y43865D01*
X256550Y44118D01*
X256856Y44364D01*
X257169Y44601D01*
X257487Y44831D01*
X257811Y45054D01*
X258140Y45268D01*
X258474Y45474D01*
X258814Y45671D01*
X259158Y45861D01*
X259506Y46042D01*
X259859Y46214D01*
X260216Y46377D01*
X260577Y46532D01*
X260942Y46678D01*
X261310Y46815D01*
X261681Y46942D01*
X262055Y47061D01*
X262433Y47170D01*
X262812Y47271D01*
X263194Y47361D01*
X263579Y47443D01*
X263965Y47514D01*
X264352Y47577D01*
X264741Y47630D01*
X265132Y47673D01*
X265523Y47707D01*
X265915Y47731D01*
X266307Y47745D01*
X266700Y47750D01*
X267093Y47745D01*
X267485Y47731D01*
X267877Y47707D01*
X268268Y47673D01*
X268659Y47630D01*
X269048Y47577D01*
X269435Y47514D01*
X269821Y47443D01*
X270206Y47361D01*
X270588Y47271D01*
X270967Y47170D01*
X271345Y47061D01*
X271719Y46942D01*
X272090Y46815D01*
X272458Y46678D01*
X272823Y46532D01*
X273184Y46377D01*
X273541Y46214D01*
X273894Y46042D01*
X274242Y45861D01*
X274586Y45671D01*
X274926Y45474D01*
X275260Y45268D01*
X275589Y45054D01*
X275913Y44831D01*
X276231Y44601D01*
X276544Y44364D01*
X276850Y44118D01*
X277151Y43865D01*
X277445Y43605D01*
X277733Y43338D01*
X278014Y43064D01*
X278288Y42783D01*
X278555Y42495D01*
X278815Y42201D01*
X279068Y41900D01*
X279314Y41594D01*
X279551Y41281D01*
X279781Y40963D01*
X280004Y40639D01*
X280218Y40310D01*
X280424Y39976D01*
X280621Y39636D01*
X280811Y39292D01*
X280992Y38944D01*
X281164Y38591D01*
X281327Y38234D01*
X281482Y37873D01*
X281628Y37508D01*
X281765Y37140D01*
X281892Y36769D01*
X282011Y36395D01*
X282120Y36017D01*
X282221Y35638D01*
X282311Y35256D01*
X282393Y34871D01*
X282464Y34485D01*
X282527Y34098D01*
X282580Y33709D01*
X282623Y33318D01*
X282657Y32927D01*
X282681Y32535D01*
X282695Y32143D01*
X282700Y31750D01*
X282695Y31357D01*
X282681Y30965D01*
X282657Y30573D01*
X282623Y30182D01*
X282580Y29791D01*
X282527Y29402D01*
X282464Y29015D01*
X282393Y28629D01*
X282311Y28244D01*
X282221Y27862D01*
X282120Y27483D01*
X282011Y27105D01*
X281892Y26731D01*
X281765Y26360D01*
X281628Y25992D01*
X281482Y25627D01*
X281327Y25266D01*
X281164Y24909D01*
X280992Y24556D01*
X280811Y24208D01*
X280621Y23864D01*
X280424Y23524D01*
X280218Y23190D01*
X280004Y22861D01*
X279781Y22537D01*
X279551Y22219D01*
X279314Y21906D01*
X279068Y21600D01*
X278815Y21299D01*
X278555Y21005D01*
X278288Y20717D01*
X278014Y20436D01*
X277733Y20162D01*
X277445Y19895D01*
X277151Y19635D01*
X276850Y19382D01*
X276544Y19136D01*
X276231Y18899D01*
X275913Y18669D01*
X275589Y18446D01*
X275260Y18232D01*
X274926Y18026D01*
X274586Y17829D01*
X274242Y17639D01*
X273894Y17458D01*
X273541Y17286D01*
X273184Y17123D01*
X272823Y16968D01*
X272458Y16822D01*
X272090Y16685D01*
X271719Y16558D01*
X271345Y16439D01*
X270967Y16330D01*
X270588Y16229D01*
X270206Y16139D01*
X269821Y16057D01*
X269435Y15986D01*
X269048Y15923D01*
X268659Y15870D01*
X268268Y15827D01*
X267877Y15793D01*
X267485Y15769D01*
X267093Y15755D01*
X266700Y15750D01*
X266307Y15755D01*
X265915Y15769D01*
X265523Y15793D01*
X265132Y15827D01*
X264741Y15870D01*
X264352Y15923D01*
X263965Y15986D01*
X263579Y16057D01*
X263194Y16139D01*
X262812Y16229D01*
X262433Y16330D01*
X262055Y16439D01*
X261681Y16558D01*
X261310Y16685D01*
X260942Y16822D01*
X260577Y16968D01*
X260216Y17123D01*
X259859Y17286D01*
X259506Y17458D01*
X259158Y17639D01*
X258814Y17829D01*
X258474Y18026D01*
X258140Y18232D01*
X257811Y18446D01*
X257487Y18669D01*
X257169Y18899D01*
X256856Y19136D01*
X256550Y19382D01*
X256249Y19635D01*
X255955Y19895D01*
X255667Y20162D01*
X255386Y20436D01*
X255112Y20717D01*
X254845Y21005D01*
X254585Y21299D01*
X254332Y21600D01*
X254086Y21906D01*
X253849Y22219D01*
X253619Y22537D01*
X253396Y22861D01*
X253182Y23190D01*
X252976Y23524D01*
X252779Y23864D01*
X252589Y24208D01*
X252408Y24556D01*
X252236Y24909D01*
X252073Y25266D01*
X251918Y25627D01*
X251772Y25992D01*
X251635Y26360D01*
X251508Y26731D01*
X251389Y27105D01*
X251280Y27483D01*
X251179Y27862D01*
X251089Y28244D01*
X251007Y28629D01*
X250936Y29015D01*
X250873Y29402D01*
X250820Y29791D01*
X250777Y30182D01*
X250743Y30573D01*
X250719Y30965D01*
X250705Y31357D01*
X250700Y31750D01*
D10*
X232410Y952500D02*
X232420Y953342D01*
X232451Y954183D01*
X232503Y955023D01*
X232575Y955861D01*
X232668Y956697D01*
X232781Y957531D01*
X232915Y958362D01*
X233069Y959190D01*
X233243Y960013D01*
X233438Y960832D01*
X233652Y961646D01*
X233887Y962454D01*
X234141Y963256D01*
X234414Y964052D01*
X234708Y964841D01*
X235020Y965622D01*
X235352Y966396D01*
X235702Y967161D01*
X236071Y967917D01*
X236459Y968664D01*
X236865Y969401D01*
X237288Y970129D01*
X237730Y970845D01*
X238189Y971551D01*
X238665Y972244D01*
X239158Y972927D01*
X239668Y973596D01*
X240193Y974253D01*
X240735Y974897D01*
X241293Y975528D01*
X241866Y976144D01*
X242453Y976747D01*
X243056Y977334D01*
X243672Y977907D01*
X244303Y978465D01*
X244947Y979007D01*
X245604Y979532D01*
X246273Y980042D01*
X246956Y980535D01*
X247649Y981011D01*
X248355Y981470D01*
X249071Y981912D01*
X249799Y982335D01*
X250536Y982741D01*
X251283Y983129D01*
X252039Y983498D01*
X252804Y983848D01*
X253578Y984180D01*
X254359Y984492D01*
X255148Y984786D01*
X255944Y985059D01*
X256746Y985313D01*
X257554Y985548D01*
X258368Y985762D01*
X259187Y985957D01*
X260010Y986131D01*
X260838Y986285D01*
X261669Y986419D01*
X262503Y986532D01*
X263339Y986625D01*
X264177Y986697D01*
X265017Y986749D01*
X265858Y986780D01*
X266700Y986790D01*
X267542Y986780D01*
X268383Y986749D01*
X269223Y986697D01*
X270061Y986625D01*
X270897Y986532D01*
X271731Y986419D01*
X272562Y986285D01*
X273390Y986131D01*
X274213Y985957D01*
X275032Y985762D01*
X275846Y985548D01*
X276654Y985313D01*
X277456Y985059D01*
X278252Y984786D01*
X279041Y984492D01*
X279822Y984180D01*
X280596Y983848D01*
X281361Y983498D01*
X282117Y983129D01*
X282864Y982741D01*
X283601Y982335D01*
X284329Y981912D01*
X285045Y981470D01*
X285751Y981011D01*
X286444Y980535D01*
X287127Y980042D01*
X287796Y979532D01*
X288453Y979007D01*
X289097Y978465D01*
X289728Y977907D01*
X290344Y977334D01*
X290947Y976747D01*
X291534Y976144D01*
X292107Y975528D01*
X292665Y974897D01*
X293207Y974253D01*
X293732Y973596D01*
X294242Y972927D01*
X294735Y972244D01*
X295211Y971551D01*
X295670Y970845D01*
X296112Y970129D01*
X296535Y969401D01*
X296941Y968664D01*
X297329Y967917D01*
X297698Y967161D01*
X298048Y966396D01*
X298380Y965622D01*
X298692Y964841D01*
X298986Y964052D01*
X299259Y963256D01*
X299513Y962454D01*
X299748Y961646D01*
X299962Y960832D01*
X300157Y960013D01*
X300331Y959190D01*
X300485Y958362D01*
X300619Y957531D01*
X300732Y956697D01*
X300825Y955861D01*
X300897Y955023D01*
X300949Y954183D01*
X300980Y953342D01*
X300990Y952500D01*
X300980Y951658D01*
X300949Y950817D01*
X300897Y949977D01*
X300825Y949139D01*
X300732Y948303D01*
X300619Y947469D01*
X300485Y946638D01*
X300331Y945810D01*
X300157Y944987D01*
X299962Y944168D01*
X299748Y943354D01*
X299513Y942546D01*
X299259Y941744D01*
X298986Y940948D01*
X298692Y940159D01*
X298380Y939378D01*
X298048Y938604D01*
X297698Y937839D01*
X297329Y937083D01*
X296941Y936336D01*
X296535Y935599D01*
X296112Y934871D01*
X295670Y934155D01*
X295211Y933449D01*
X294735Y932756D01*
X294242Y932073D01*
X293732Y931404D01*
X293207Y930747D01*
X292665Y930103D01*
X292107Y929472D01*
X291534Y928856D01*
X290947Y928253D01*
X290344Y927666D01*
X289728Y927093D01*
X289097Y926535D01*
X288453Y925993D01*
X287796Y925468D01*
X287127Y924958D01*
X286444Y924465D01*
X285751Y923989D01*
X285045Y923530D01*
X284329Y923088D01*
X283601Y922665D01*
X282864Y922259D01*
X282117Y921871D01*
X281361Y921502D01*
X280596Y921152D01*
X279822Y920820D01*
X279041Y920508D01*
X278252Y920214D01*
X277456Y919941D01*
X276654Y919687D01*
X275846Y919452D01*
X275032Y919238D01*
X274213Y919043D01*
X273390Y918869D01*
X272562Y918715D01*
X271731Y918581D01*
X270897Y918468D01*
X270061Y918375D01*
X269223Y918303D01*
X268383Y918251D01*
X267542Y918220D01*
X266700Y918210D01*
X265858Y918220D01*
X265017Y918251D01*
X264177Y918303D01*
X263339Y918375D01*
X262503Y918468D01*
X261669Y918581D01*
X260838Y918715D01*
X260010Y918869D01*
X259187Y919043D01*
X258368Y919238D01*
X257554Y919452D01*
X256746Y919687D01*
X255944Y919941D01*
X255148Y920214D01*
X254359Y920508D01*
X253578Y920820D01*
X252804Y921152D01*
X252039Y921502D01*
X251283Y921871D01*
X250536Y922259D01*
X249799Y922665D01*
X249071Y923088D01*
X248355Y923530D01*
X247649Y923989D01*
X246956Y924465D01*
X246273Y924958D01*
X245604Y925468D01*
X244947Y925993D01*
X244303Y926535D01*
X243672Y927093D01*
X243056Y927666D01*
X242453Y928253D01*
X241866Y928856D01*
X241293Y929472D01*
X240735Y930103D01*
X240193Y930747D01*
X239668Y931404D01*
X239158Y932073D01*
X238665Y932756D01*
X238189Y933449D01*
X237730Y934155D01*
X237288Y934871D01*
X236865Y935599D01*
X236459Y936336D01*
X236071Y937083D01*
X235702Y937839D01*
X235352Y938604D01*
X235020Y939378D01*
X234708Y940159D01*
X234414Y940948D01*
X234141Y941744D01*
X233887Y942546D01*
X233652Y943354D01*
X233438Y944168D01*
X233243Y944987D01*
X233069Y945810D01*
X232915Y946638D01*
X232781Y947469D01*
X232668Y948303D01*
X232575Y949139D01*
X232503Y949977D01*
X232451Y950817D01*
X232420Y951658D01*
X232410Y952500D01*
D11*
X250700Y952500D02*
X250705Y952893D01*
X250719Y953285D01*
X250743Y953677D01*
X250777Y954068D01*
X250820Y954459D01*
X250873Y954848D01*
X250936Y955235D01*
X251007Y955621D01*
X251089Y956006D01*
X251179Y956388D01*
X251280Y956767D01*
X251389Y957145D01*
X251508Y957519D01*
X251635Y957890D01*
X251772Y958258D01*
X251918Y958623D01*
X252073Y958984D01*
X252236Y959341D01*
X252408Y959694D01*
X252589Y960042D01*
X252779Y960386D01*
X252976Y960726D01*
X253182Y961060D01*
X253396Y961389D01*
X253619Y961713D01*
X253849Y962031D01*
X254086Y962344D01*
X254332Y962650D01*
X254585Y962951D01*
X254845Y963245D01*
X255112Y963533D01*
X255386Y963814D01*
X255667Y964088D01*
X255955Y964355D01*
X256249Y964615D01*
X256550Y964868D01*
X256856Y965114D01*
X257169Y965351D01*
X257487Y965581D01*
X257811Y965804D01*
X258140Y966018D01*
X258474Y966224D01*
X258814Y966421D01*
X259158Y966611D01*
X259506Y966792D01*
X259859Y966964D01*
X260216Y967127D01*
X260577Y967282D01*
X260942Y967428D01*
X261310Y967565D01*
X261681Y967692D01*
X262055Y967811D01*
X262433Y967920D01*
X262812Y968021D01*
X263194Y968111D01*
X263579Y968193D01*
X263965Y968264D01*
X264352Y968327D01*
X264741Y968380D01*
X265132Y968423D01*
X265523Y968457D01*
X265915Y968481D01*
X266307Y968495D01*
X266700Y968500D01*
X267093Y968495D01*
X267485Y968481D01*
X267877Y968457D01*
X268268Y968423D01*
X268659Y968380D01*
X269048Y968327D01*
X269435Y968264D01*
X269821Y968193D01*
X270206Y968111D01*
X270588Y968021D01*
X270967Y967920D01*
X271345Y967811D01*
X271719Y967692D01*
X272090Y967565D01*
X272458Y967428D01*
X272823Y967282D01*
X273184Y967127D01*
X273541Y966964D01*
X273894Y966792D01*
X274242Y966611D01*
X274586Y966421D01*
X274926Y966224D01*
X275260Y966018D01*
X275589Y965804D01*
X275913Y965581D01*
X276231Y965351D01*
X276544Y965114D01*
X276850Y964868D01*
X277151Y964615D01*
X277445Y964355D01*
X277733Y964088D01*
X278014Y963814D01*
X278288Y963533D01*
X278555Y963245D01*
X278815Y962951D01*
X279068Y962650D01*
X279314Y962344D01*
X279551Y962031D01*
X279781Y961713D01*
X280004Y961389D01*
X280218Y961060D01*
X280424Y960726D01*
X280621Y960386D01*
X280811Y960042D01*
X280992Y959694D01*
X281164Y959341D01*
X281327Y958984D01*
X281482Y958623D01*
X281628Y958258D01*
X281765Y957890D01*
X281892Y957519D01*
X282011Y957145D01*
X282120Y956767D01*
X282221Y956388D01*
X282311Y956006D01*
X282393Y955621D01*
X282464Y955235D01*
X282527Y954848D01*
X282580Y954459D01*
X282623Y954068D01*
X282657Y953677D01*
X282681Y953285D01*
X282695Y952893D01*
X282700Y952500D01*
X282695Y952107D01*
X282681Y951715D01*
X282657Y951323D01*
X282623Y950932D01*
X282580Y950541D01*
X282527Y950152D01*
X282464Y949765D01*
X282393Y949379D01*
X282311Y948994D01*
X282221Y948612D01*
X282120Y948233D01*
X282011Y947855D01*
X281892Y947481D01*
X281765Y947110D01*
X281628Y946742D01*
X281482Y946377D01*
X281327Y946016D01*
X281164Y945659D01*
X280992Y945306D01*
X280811Y944958D01*
X280621Y944614D01*
X280424Y944274D01*
X280218Y943940D01*
X280004Y943611D01*
X279781Y943287D01*
X279551Y942969D01*
X279314Y942656D01*
X279068Y942350D01*
X278815Y942049D01*
X278555Y941755D01*
X278288Y941467D01*
X278014Y941186D01*
X277733Y940912D01*
X277445Y940645D01*
X277151Y940385D01*
X276850Y940132D01*
X276544Y939886D01*
X276231Y939649D01*
X275913Y939419D01*
X275589Y939196D01*
X275260Y938982D01*
X274926Y938776D01*
X274586Y938579D01*
X274242Y938389D01*
X273894Y938208D01*
X273541Y938036D01*
X273184Y937873D01*
X272823Y937718D01*
X272458Y937572D01*
X272090Y937435D01*
X271719Y937308D01*
X271345Y937189D01*
X270967Y937080D01*
X270588Y936979D01*
X270206Y936889D01*
X269821Y936807D01*
X269435Y936736D01*
X269048Y936673D01*
X268659Y936620D01*
X268268Y936577D01*
X267877Y936543D01*
X267485Y936519D01*
X267093Y936505D01*
X266700Y936500D01*
X266307Y936505D01*
X265915Y936519D01*
X265523Y936543D01*
X265132Y936577D01*
X264741Y936620D01*
X264352Y936673D01*
X263965Y936736D01*
X263579Y936807D01*
X263194Y936889D01*
X262812Y936979D01*
X262433Y937080D01*
X262055Y937189D01*
X261681Y937308D01*
X261310Y937435D01*
X260942Y937572D01*
X260577Y937718D01*
X260216Y937873D01*
X259859Y938036D01*
X259506Y938208D01*
X259158Y938389D01*
X258814Y938579D01*
X258474Y938776D01*
X258140Y938982D01*
X257811Y939196D01*
X257487Y939419D01*
X257169Y939649D01*
X256856Y939886D01*
X256550Y940132D01*
X256249Y940385D01*
X255955Y940645D01*
X255667Y940912D01*
X255386Y941186D01*
X255112Y941467D01*
X254845Y941755D01*
X254585Y942049D01*
X254332Y942350D01*
X254086Y942656D01*
X253849Y942969D01*
X253619Y943287D01*
X253396Y943611D01*
X253182Y943940D01*
X252976Y944274D01*
X252779Y944614D01*
X252589Y944958D01*
X252408Y945306D01*
X252236Y945659D01*
X252073Y946016D01*
X251918Y946377D01*
X251772Y946742D01*
X251635Y947110D01*
X251508Y947481D01*
X251389Y947855D01*
X251280Y948233D01*
X251179Y948612D01*
X251089Y948994D01*
X251007Y949379D01*
X250936Y949765D01*
X250873Y950152D01*
X250820Y950541D01*
X250777Y950932D01*
X250743Y951323D01*
X250719Y951715D01*
X250705Y952107D01*
X250700Y952500D01*
D10*
X1311910Y952500D02*
X1311920Y953342D01*
X1311951Y954183D01*
X1312003Y955023D01*
X1312075Y955861D01*
X1312168Y956697D01*
X1312281Y957531D01*
X1312415Y958362D01*
X1312569Y959190D01*
X1312743Y960013D01*
X1312938Y960832D01*
X1313152Y961646D01*
X1313387Y962454D01*
X1313641Y963256D01*
X1313914Y964052D01*
X1314208Y964841D01*
X1314520Y965622D01*
X1314852Y966396D01*
X1315202Y967161D01*
X1315571Y967917D01*
X1315959Y968664D01*
X1316365Y969401D01*
X1316788Y970129D01*
X1317230Y970845D01*
X1317689Y971551D01*
X1318165Y972244D01*
X1318658Y972927D01*
X1319168Y973596D01*
X1319693Y974253D01*
X1320235Y974897D01*
X1320793Y975528D01*
X1321366Y976144D01*
X1321953Y976747D01*
X1322556Y977334D01*
X1323172Y977907D01*
X1323803Y978465D01*
X1324447Y979007D01*
X1325104Y979532D01*
X1325773Y980042D01*
X1326456Y980535D01*
X1327149Y981011D01*
X1327855Y981470D01*
X1328571Y981912D01*
X1329299Y982335D01*
X1330036Y982741D01*
X1330783Y983129D01*
X1331539Y983498D01*
X1332304Y983848D01*
X1333078Y984180D01*
X1333859Y984492D01*
X1334648Y984786D01*
X1335444Y985059D01*
X1336246Y985313D01*
X1337054Y985548D01*
X1337868Y985762D01*
X1338687Y985957D01*
X1339510Y986131D01*
X1340338Y986285D01*
X1341169Y986419D01*
X1342003Y986532D01*
X1342839Y986625D01*
X1343677Y986697D01*
X1344517Y986749D01*
X1345358Y986780D01*
X1346200Y986790D01*
X1347042Y986780D01*
X1347883Y986749D01*
X1348723Y986697D01*
X1349561Y986625D01*
X1350397Y986532D01*
X1351231Y986419D01*
X1352062Y986285D01*
X1352890Y986131D01*
X1353713Y985957D01*
X1354532Y985762D01*
X1355346Y985548D01*
X1356154Y985313D01*
X1356956Y985059D01*
X1357752Y984786D01*
X1358541Y984492D01*
X1359322Y984180D01*
X1360096Y983848D01*
X1360861Y983498D01*
X1361617Y983129D01*
X1362364Y982741D01*
X1363101Y982335D01*
X1363829Y981912D01*
X1364545Y981470D01*
X1365251Y981011D01*
X1365944Y980535D01*
X1366627Y980042D01*
X1367296Y979532D01*
X1367953Y979007D01*
X1368597Y978465D01*
X1369228Y977907D01*
X1369844Y977334D01*
X1370447Y976747D01*
X1371034Y976144D01*
X1371607Y975528D01*
X1372165Y974897D01*
X1372707Y974253D01*
X1373232Y973596D01*
X1373742Y972927D01*
X1374235Y972244D01*
X1374711Y971551D01*
X1375170Y970845D01*
X1375612Y970129D01*
X1376035Y969401D01*
X1376441Y968664D01*
X1376829Y967917D01*
X1377198Y967161D01*
X1377548Y966396D01*
X1377880Y965622D01*
X1378192Y964841D01*
X1378486Y964052D01*
X1378759Y963256D01*
X1379013Y962454D01*
X1379248Y961646D01*
X1379462Y960832D01*
X1379657Y960013D01*
X1379831Y959190D01*
X1379985Y958362D01*
X1380119Y957531D01*
X1380232Y956697D01*
X1380325Y955861D01*
X1380397Y955023D01*
X1380449Y954183D01*
X1380480Y953342D01*
X1380490Y952500D01*
X1380480Y951658D01*
X1380449Y950817D01*
X1380397Y949977D01*
X1380325Y949139D01*
X1380232Y948303D01*
X1380119Y947469D01*
X1379985Y946638D01*
X1379831Y945810D01*
X1379657Y944987D01*
X1379462Y944168D01*
X1379248Y943354D01*
X1379013Y942546D01*
X1378759Y941744D01*
X1378486Y940948D01*
X1378192Y940159D01*
X1377880Y939378D01*
X1377548Y938604D01*
X1377198Y937839D01*
X1376829Y937083D01*
X1376441Y936336D01*
X1376035Y935599D01*
X1375612Y934871D01*
X1375170Y934155D01*
X1374711Y933449D01*
X1374235Y932756D01*
X1373742Y932073D01*
X1373232Y931404D01*
X1372707Y930747D01*
X1372165Y930103D01*
X1371607Y929472D01*
X1371034Y928856D01*
X1370447Y928253D01*
X1369844Y927666D01*
X1369228Y927093D01*
X1368597Y926535D01*
X1367953Y925993D01*
X1367296Y925468D01*
X1366627Y924958D01*
X1365944Y924465D01*
X1365251Y923989D01*
X1364545Y923530D01*
X1363829Y923088D01*
X1363101Y922665D01*
X1362364Y922259D01*
X1361617Y921871D01*
X1360861Y921502D01*
X1360096Y921152D01*
X1359322Y920820D01*
X1358541Y920508D01*
X1357752Y920214D01*
X1356956Y919941D01*
X1356154Y919687D01*
X1355346Y919452D01*
X1354532Y919238D01*
X1353713Y919043D01*
X1352890Y918869D01*
X1352062Y918715D01*
X1351231Y918581D01*
X1350397Y918468D01*
X1349561Y918375D01*
X1348723Y918303D01*
X1347883Y918251D01*
X1347042Y918220D01*
X1346200Y918210D01*
X1345358Y918220D01*
X1344517Y918251D01*
X1343677Y918303D01*
X1342839Y918375D01*
X1342003Y918468D01*
X1341169Y918581D01*
X1340338Y918715D01*
X1339510Y918869D01*
X1338687Y919043D01*
X1337868Y919238D01*
X1337054Y919452D01*
X1336246Y919687D01*
X1335444Y919941D01*
X1334648Y920214D01*
X1333859Y920508D01*
X1333078Y920820D01*
X1332304Y921152D01*
X1331539Y921502D01*
X1330783Y921871D01*
X1330036Y922259D01*
X1329299Y922665D01*
X1328571Y923088D01*
X1327855Y923530D01*
X1327149Y923989D01*
X1326456Y924465D01*
X1325773Y924958D01*
X1325104Y925468D01*
X1324447Y925993D01*
X1323803Y926535D01*
X1323172Y927093D01*
X1322556Y927666D01*
X1321953Y928253D01*
X1321366Y928856D01*
X1320793Y929472D01*
X1320235Y930103D01*
X1319693Y930747D01*
X1319168Y931404D01*
X1318658Y932073D01*
X1318165Y932756D01*
X1317689Y933449D01*
X1317230Y934155D01*
X1316788Y934871D01*
X1316365Y935599D01*
X1315959Y936336D01*
X1315571Y937083D01*
X1315202Y937839D01*
X1314852Y938604D01*
X1314520Y939378D01*
X1314208Y940159D01*
X1313914Y940948D01*
X1313641Y941744D01*
X1313387Y942546D01*
X1313152Y943354D01*
X1312938Y944168D01*
X1312743Y944987D01*
X1312569Y945810D01*
X1312415Y946638D01*
X1312281Y947469D01*
X1312168Y948303D01*
X1312075Y949139D01*
X1312003Y949977D01*
X1311951Y950817D01*
X1311920Y951658D01*
X1311910Y952500D01*
D11*
X1330200Y952500D02*
X1330205Y952893D01*
X1330219Y953285D01*
X1330243Y953677D01*
X1330277Y954068D01*
X1330320Y954459D01*
X1330373Y954848D01*
X1330436Y955235D01*
X1330507Y955621D01*
X1330589Y956006D01*
X1330679Y956388D01*
X1330780Y956767D01*
X1330889Y957145D01*
X1331008Y957519D01*
X1331135Y957890D01*
X1331272Y958258D01*
X1331418Y958623D01*
X1331573Y958984D01*
X1331736Y959341D01*
X1331908Y959694D01*
X1332089Y960042D01*
X1332279Y960386D01*
X1332476Y960726D01*
X1332682Y961060D01*
X1332896Y961389D01*
X1333119Y961713D01*
X1333349Y962031D01*
X1333586Y962344D01*
X1333832Y962650D01*
X1334085Y962951D01*
X1334345Y963245D01*
X1334612Y963533D01*
X1334886Y963814D01*
X1335167Y964088D01*
X1335455Y964355D01*
X1335749Y964615D01*
X1336050Y964868D01*
X1336356Y965114D01*
X1336669Y965351D01*
X1336987Y965581D01*
X1337311Y965804D01*
X1337640Y966018D01*
X1337974Y966224D01*
X1338314Y966421D01*
X1338658Y966611D01*
X1339006Y966792D01*
X1339359Y966964D01*
X1339716Y967127D01*
X1340077Y967282D01*
X1340442Y967428D01*
X1340810Y967565D01*
X1341181Y967692D01*
X1341555Y967811D01*
X1341933Y967920D01*
X1342312Y968021D01*
X1342694Y968111D01*
X1343079Y968193D01*
X1343465Y968264D01*
X1343852Y968327D01*
X1344241Y968380D01*
X1344632Y968423D01*
X1345023Y968457D01*
X1345415Y968481D01*
X1345807Y968495D01*
X1346200Y968500D01*
X1346593Y968495D01*
X1346985Y968481D01*
X1347377Y968457D01*
X1347768Y968423D01*
X1348159Y968380D01*
X1348548Y968327D01*
X1348935Y968264D01*
X1349321Y968193D01*
X1349706Y968111D01*
X1350088Y968021D01*
X1350467Y967920D01*
X1350845Y967811D01*
X1351219Y967692D01*
X1351590Y967565D01*
X1351958Y967428D01*
X1352323Y967282D01*
X1352684Y967127D01*
X1353041Y966964D01*
X1353394Y966792D01*
X1353742Y966611D01*
X1354086Y966421D01*
X1354426Y966224D01*
X1354760Y966018D01*
X1355089Y965804D01*
X1355413Y965581D01*
X1355731Y965351D01*
X1356044Y965114D01*
X1356350Y964868D01*
X1356651Y964615D01*
X1356945Y964355D01*
X1357233Y964088D01*
X1357514Y963814D01*
X1357788Y963533D01*
X1358055Y963245D01*
X1358315Y962951D01*
X1358568Y962650D01*
X1358814Y962344D01*
X1359051Y962031D01*
X1359281Y961713D01*
X1359504Y961389D01*
X1359718Y961060D01*
X1359924Y960726D01*
X1360121Y960386D01*
X1360311Y960042D01*
X1360492Y959694D01*
X1360664Y959341D01*
X1360827Y958984D01*
X1360982Y958623D01*
X1361128Y958258D01*
X1361265Y957890D01*
X1361392Y957519D01*
X1361511Y957145D01*
X1361620Y956767D01*
X1361721Y956388D01*
X1361811Y956006D01*
X1361893Y955621D01*
X1361964Y955235D01*
X1362027Y954848D01*
X1362080Y954459D01*
X1362123Y954068D01*
X1362157Y953677D01*
X1362181Y953285D01*
X1362195Y952893D01*
X1362200Y952500D01*
X1362195Y952107D01*
X1362181Y951715D01*
X1362157Y951323D01*
X1362123Y950932D01*
X1362080Y950541D01*
X1362027Y950152D01*
X1361964Y949765D01*
X1361893Y949379D01*
X1361811Y948994D01*
X1361721Y948612D01*
X1361620Y948233D01*
X1361511Y947855D01*
X1361392Y947481D01*
X1361265Y947110D01*
X1361128Y946742D01*
X1360982Y946377D01*
X1360827Y946016D01*
X1360664Y945659D01*
X1360492Y945306D01*
X1360311Y944958D01*
X1360121Y944614D01*
X1359924Y944274D01*
X1359718Y943940D01*
X1359504Y943611D01*
X1359281Y943287D01*
X1359051Y942969D01*
X1358814Y942656D01*
X1358568Y942350D01*
X1358315Y942049D01*
X1358055Y941755D01*
X1357788Y941467D01*
X1357514Y941186D01*
X1357233Y940912D01*
X1356945Y940645D01*
X1356651Y940385D01*
X1356350Y940132D01*
X1356044Y939886D01*
X1355731Y939649D01*
X1355413Y939419D01*
X1355089Y939196D01*
X1354760Y938982D01*
X1354426Y938776D01*
X1354086Y938579D01*
X1353742Y938389D01*
X1353394Y938208D01*
X1353041Y938036D01*
X1352684Y937873D01*
X1352323Y937718D01*
X1351958Y937572D01*
X1351590Y937435D01*
X1351219Y937308D01*
X1350845Y937189D01*
X1350467Y937080D01*
X1350088Y936979D01*
X1349706Y936889D01*
X1349321Y936807D01*
X1348935Y936736D01*
X1348548Y936673D01*
X1348159Y936620D01*
X1347768Y936577D01*
X1347377Y936543D01*
X1346985Y936519D01*
X1346593Y936505D01*
X1346200Y936500D01*
X1345807Y936505D01*
X1345415Y936519D01*
X1345023Y936543D01*
X1344632Y936577D01*
X1344241Y936620D01*
X1343852Y936673D01*
X1343465Y936736D01*
X1343079Y936807D01*
X1342694Y936889D01*
X1342312Y936979D01*
X1341933Y937080D01*
X1341555Y937189D01*
X1341181Y937308D01*
X1340810Y937435D01*
X1340442Y937572D01*
X1340077Y937718D01*
X1339716Y937873D01*
X1339359Y938036D01*
X1339006Y938208D01*
X1338658Y938389D01*
X1338314Y938579D01*
X1337974Y938776D01*
X1337640Y938982D01*
X1337311Y939196D01*
X1336987Y939419D01*
X1336669Y939649D01*
X1336356Y939886D01*
X1336050Y940132D01*
X1335749Y940385D01*
X1335455Y940645D01*
X1335167Y940912D01*
X1334886Y941186D01*
X1334612Y941467D01*
X1334345Y941755D01*
X1334085Y942049D01*
X1333832Y942350D01*
X1333586Y942656D01*
X1333349Y942969D01*
X1333119Y943287D01*
X1332896Y943611D01*
X1332682Y943940D01*
X1332476Y944274D01*
X1332279Y944614D01*
X1332089Y944958D01*
X1331908Y945306D01*
X1331736Y945659D01*
X1331573Y946016D01*
X1331418Y946377D01*
X1331272Y946742D01*
X1331135Y947110D01*
X1331008Y947481D01*
X1330889Y947855D01*
X1330780Y948233D01*
X1330679Y948612D01*
X1330589Y948994D01*
X1330507Y949379D01*
X1330436Y949765D01*
X1330373Y950152D01*
X1330320Y950541D01*
X1330277Y950932D01*
X1330243Y951323D01*
X1330219Y951715D01*
X1330205Y952107D01*
X1330200Y952500D01*
D12*
X1333500Y698500D02*
X1333500Y114300D01*
X1333500Y698500D02*
X673100Y698500D01*
X673100Y114300D01*
X1333500Y114300D01*
D11*
X825500Y990600D02*
X613500Y990600D01*
X613500Y825800D01*
X825500Y825800D01*
X825500Y990600D01*
D13*
X682535Y926042D02*
X682535Y911806D01*
X689653Y911806D01*
X692026Y914179D01*
X692026Y923669D01*
X689653Y926042D01*
X682535Y926042D01*
X697971Y911806D02*
X702716Y911806D01*
X700344Y911806D02*
X700344Y926042D01*
X702716Y926042D02*
X697971Y926042D01*
X708262Y926042D02*
X708262Y911806D01*
X717753Y911806D02*
X708262Y926042D01*
X717753Y926042D02*
X717753Y911806D01*
X723698Y918924D02*
X733189Y918924D01*
X739134Y926042D02*
X748625Y926042D01*
X739134Y926042D02*
X739134Y918924D01*
X743879Y921297D01*
X746252Y921297D01*
X748625Y918924D01*
X748625Y914179D01*
X746252Y911806D01*
X741507Y911806D01*
X739134Y914179D01*
D11*
X842100Y990600D02*
X1054100Y990600D01*
X842100Y990600D02*
X842100Y825800D01*
X1054100Y825800D01*
X1054100Y990600D01*
D13*
X911135Y926042D02*
X911135Y911806D01*
X918253Y911806D01*
X920626Y914179D01*
X920626Y923669D01*
X918253Y926042D01*
X911135Y926042D01*
X926571Y911806D02*
X931316Y911806D01*
X928944Y911806D02*
X928944Y926042D01*
X931316Y926042D02*
X926571Y926042D01*
X936862Y926042D02*
X936862Y911806D01*
X946353Y911806D02*
X936862Y926042D01*
X946353Y926042D02*
X946353Y911806D01*
X952298Y918924D02*
X961789Y918924D01*
X967734Y926042D02*
X977225Y926042D01*
X967734Y926042D02*
X967734Y918924D01*
X972479Y921297D01*
X974852Y921297D01*
X977225Y918924D01*
X977225Y914179D01*
X974852Y911806D01*
X970107Y911806D01*
X967734Y914179D01*
D10*
X1168400Y524510D02*
X1270000Y524510D01*
X1270000Y466090D02*
X1168400Y466090D01*
X1270000Y466090D02*
X1270000Y524510D01*
X1168400Y524510D02*
X1168400Y505460D01*
X1168400Y485140D02*
X1168400Y466090D01*
X1168400Y485140D02*
X1168647Y485143D01*
X1168895Y485152D01*
X1169142Y485167D01*
X1169388Y485188D01*
X1169634Y485215D01*
X1169879Y485248D01*
X1170124Y485287D01*
X1170367Y485332D01*
X1170609Y485383D01*
X1170850Y485440D01*
X1171089Y485502D01*
X1171327Y485571D01*
X1171563Y485645D01*
X1171797Y485725D01*
X1172029Y485810D01*
X1172259Y485902D01*
X1172487Y485998D01*
X1172712Y486101D01*
X1172935Y486208D01*
X1173155Y486322D01*
X1173372Y486440D01*
X1173587Y486564D01*
X1173798Y486693D01*
X1174006Y486827D01*
X1174211Y486966D01*
X1174412Y487110D01*
X1174610Y487258D01*
X1174804Y487412D01*
X1174994Y487570D01*
X1175180Y487733D01*
X1175362Y487900D01*
X1175540Y488072D01*
X1175714Y488248D01*
X1175884Y488428D01*
X1176049Y488613D01*
X1176209Y488801D01*
X1176365Y488993D01*
X1176517Y489189D01*
X1176663Y489388D01*
X1176805Y489591D01*
X1176941Y489798D01*
X1177073Y490007D01*
X1177199Y490220D01*
X1177320Y490436D01*
X1177436Y490654D01*
X1177546Y490876D01*
X1177651Y491100D01*
X1177751Y491326D01*
X1177845Y491555D01*
X1177933Y491786D01*
X1178016Y492020D01*
X1178093Y492255D01*
X1178164Y492492D01*
X1178230Y492730D01*
X1178289Y492970D01*
X1178343Y493212D01*
X1178391Y493455D01*
X1178433Y493698D01*
X1178469Y493943D01*
X1178499Y494189D01*
X1178523Y494435D01*
X1178541Y494682D01*
X1178553Y494929D01*
X1178559Y495176D01*
X1178559Y495424D01*
X1178553Y495671D01*
X1178541Y495918D01*
X1178523Y496165D01*
X1178499Y496411D01*
X1178469Y496657D01*
X1178433Y496902D01*
X1178391Y497145D01*
X1178343Y497388D01*
X1178289Y497630D01*
X1178230Y497870D01*
X1178164Y498108D01*
X1178093Y498345D01*
X1178016Y498580D01*
X1177933Y498814D01*
X1177845Y499045D01*
X1177751Y499274D01*
X1177651Y499500D01*
X1177546Y499724D01*
X1177436Y499946D01*
X1177320Y500164D01*
X1177199Y500380D01*
X1177073Y500593D01*
X1176941Y500802D01*
X1176805Y501009D01*
X1176663Y501212D01*
X1176517Y501411D01*
X1176365Y501607D01*
X1176209Y501799D01*
X1176049Y501987D01*
X1175884Y502172D01*
X1175714Y502352D01*
X1175540Y502528D01*
X1175362Y502700D01*
X1175180Y502867D01*
X1174994Y503030D01*
X1174804Y503188D01*
X1174610Y503342D01*
X1174412Y503490D01*
X1174211Y503634D01*
X1174006Y503773D01*
X1173798Y503907D01*
X1173587Y504036D01*
X1173372Y504160D01*
X1173155Y504278D01*
X1172935Y504392D01*
X1172712Y504499D01*
X1172487Y504602D01*
X1172259Y504698D01*
X1172029Y504790D01*
X1171797Y504875D01*
X1171563Y504955D01*
X1171327Y505029D01*
X1171089Y505098D01*
X1170850Y505160D01*
X1170609Y505217D01*
X1170367Y505268D01*
X1170124Y505313D01*
X1169879Y505352D01*
X1169634Y505385D01*
X1169388Y505412D01*
X1169142Y505433D01*
X1168895Y505448D01*
X1168647Y505457D01*
X1168400Y505460D01*
D12*
X1137133Y498485D02*
X1133320Y498485D01*
X1131413Y496578D01*
X1131413Y488952D01*
X1133320Y487045D01*
X1137133Y487045D01*
X1139040Y488952D01*
X1139040Y496578D01*
X1137133Y498485D01*
X1143107Y498485D02*
X1143107Y487045D01*
X1143107Y490858D02*
X1150734Y498485D01*
X1145014Y492765D02*
X1150734Y487045D01*
X1154801Y487045D02*
X1162427Y487045D01*
X1154801Y487045D02*
X1162427Y494672D01*
X1162427Y496578D01*
X1160521Y498485D01*
X1156708Y498485D01*
X1154801Y496578D01*
D10*
X1212850Y419100D02*
X1219200Y419100D01*
X1229360Y425450D02*
X1229360Y412750D01*
X1219200Y419100D01*
X1234440Y419100D01*
X1229360Y425450D02*
X1219200Y419100D01*
X1219200Y425450D01*
X1219200Y419100D02*
X1219200Y412750D01*
X1239520Y429260D02*
X1239620Y429258D01*
X1239719Y429252D01*
X1239819Y429242D01*
X1239917Y429229D01*
X1240016Y429211D01*
X1240113Y429190D01*
X1240209Y429165D01*
X1240305Y429136D01*
X1240399Y429103D01*
X1240492Y429067D01*
X1240583Y429027D01*
X1240673Y428983D01*
X1240761Y428936D01*
X1240847Y428886D01*
X1240931Y428832D01*
X1241013Y428775D01*
X1241092Y428715D01*
X1241170Y428651D01*
X1241244Y428585D01*
X1241316Y428516D01*
X1241385Y428444D01*
X1241451Y428370D01*
X1241515Y428292D01*
X1241575Y428213D01*
X1241632Y428131D01*
X1241686Y428047D01*
X1241736Y427961D01*
X1241783Y427873D01*
X1241827Y427783D01*
X1241867Y427692D01*
X1241903Y427599D01*
X1241936Y427505D01*
X1241965Y427409D01*
X1241990Y427313D01*
X1242011Y427216D01*
X1242029Y427117D01*
X1242042Y427019D01*
X1242052Y426919D01*
X1242058Y426820D01*
X1242060Y426720D01*
X1242060Y411480D01*
X1242058Y411380D01*
X1242052Y411281D01*
X1242042Y411181D01*
X1242029Y411083D01*
X1242011Y410984D01*
X1241990Y410887D01*
X1241965Y410791D01*
X1241936Y410695D01*
X1241903Y410601D01*
X1241867Y410508D01*
X1241827Y410417D01*
X1241783Y410327D01*
X1241736Y410239D01*
X1241686Y410153D01*
X1241632Y410069D01*
X1241575Y409987D01*
X1241515Y409908D01*
X1241451Y409830D01*
X1241385Y409756D01*
X1241316Y409684D01*
X1241244Y409615D01*
X1241170Y409549D01*
X1241092Y409485D01*
X1241013Y409425D01*
X1240931Y409368D01*
X1240847Y409314D01*
X1240761Y409264D01*
X1240673Y409217D01*
X1240583Y409173D01*
X1240492Y409133D01*
X1240399Y409097D01*
X1240305Y409064D01*
X1240209Y409035D01*
X1240113Y409010D01*
X1240016Y408989D01*
X1239917Y408971D01*
X1239819Y408958D01*
X1239719Y408948D01*
X1239620Y408942D01*
X1239520Y408940D01*
X1198880Y429260D02*
X1198780Y429258D01*
X1198681Y429252D01*
X1198581Y429242D01*
X1198483Y429229D01*
X1198384Y429211D01*
X1198287Y429190D01*
X1198191Y429165D01*
X1198095Y429136D01*
X1198001Y429103D01*
X1197908Y429067D01*
X1197817Y429027D01*
X1197727Y428983D01*
X1197639Y428936D01*
X1197553Y428886D01*
X1197469Y428832D01*
X1197387Y428775D01*
X1197308Y428715D01*
X1197230Y428651D01*
X1197156Y428585D01*
X1197084Y428516D01*
X1197015Y428444D01*
X1196949Y428370D01*
X1196885Y428292D01*
X1196825Y428213D01*
X1196768Y428131D01*
X1196714Y428047D01*
X1196664Y427961D01*
X1196617Y427873D01*
X1196573Y427783D01*
X1196533Y427692D01*
X1196497Y427599D01*
X1196464Y427505D01*
X1196435Y427409D01*
X1196410Y427313D01*
X1196389Y427216D01*
X1196371Y427117D01*
X1196358Y427019D01*
X1196348Y426919D01*
X1196342Y426820D01*
X1196340Y426720D01*
X1196340Y411480D02*
X1196342Y411380D01*
X1196348Y411281D01*
X1196358Y411181D01*
X1196371Y411083D01*
X1196389Y410984D01*
X1196410Y410887D01*
X1196435Y410791D01*
X1196464Y410695D01*
X1196497Y410601D01*
X1196533Y410508D01*
X1196573Y410417D01*
X1196617Y410327D01*
X1196664Y410239D01*
X1196714Y410153D01*
X1196768Y410069D01*
X1196825Y409987D01*
X1196885Y409908D01*
X1196949Y409830D01*
X1197015Y409756D01*
X1197084Y409684D01*
X1197156Y409615D01*
X1197230Y409549D01*
X1197308Y409485D01*
X1197387Y409425D01*
X1197469Y409368D01*
X1197553Y409314D01*
X1197639Y409264D01*
X1197727Y409217D01*
X1197817Y409173D01*
X1197908Y409133D01*
X1198001Y409097D01*
X1198095Y409064D01*
X1198191Y409035D01*
X1198287Y409010D01*
X1198384Y408989D01*
X1198483Y408971D01*
X1198581Y408958D01*
X1198681Y408948D01*
X1198780Y408942D01*
X1198880Y408940D01*
X1239520Y408940D01*
X1196340Y411480D02*
X1196340Y426720D01*
X1198880Y429260D02*
X1239520Y429260D01*
D14*
X1202690Y419100D03*
D15*
X1245235Y419100D03*
X1193165Y419100D03*
D12*
X1279525Y413385D02*
X1279525Y424825D01*
X1279525Y413385D02*
X1285245Y413385D01*
X1287152Y415292D01*
X1287152Y422918D01*
X1285245Y424825D01*
X1279525Y424825D01*
X1295032Y422918D02*
X1298845Y424825D01*
X1295032Y422918D02*
X1291219Y419105D01*
X1291219Y415292D01*
X1293126Y413385D01*
X1296939Y413385D01*
X1298845Y415292D01*
X1298845Y417198D01*
X1296939Y419105D01*
X1291219Y419105D01*
D10*
X723900Y792480D02*
X723898Y792380D01*
X723892Y792281D01*
X723882Y792181D01*
X723869Y792083D01*
X723851Y791984D01*
X723830Y791887D01*
X723805Y791791D01*
X723776Y791695D01*
X723743Y791601D01*
X723707Y791508D01*
X723667Y791417D01*
X723623Y791327D01*
X723576Y791239D01*
X723526Y791153D01*
X723472Y791069D01*
X723415Y790987D01*
X723355Y790908D01*
X723291Y790830D01*
X723225Y790756D01*
X723156Y790684D01*
X723084Y790615D01*
X723010Y790549D01*
X722932Y790485D01*
X722853Y790425D01*
X722771Y790368D01*
X722687Y790314D01*
X722601Y790264D01*
X722513Y790217D01*
X722423Y790173D01*
X722332Y790133D01*
X722239Y790097D01*
X722145Y790064D01*
X722049Y790035D01*
X721953Y790010D01*
X721856Y789989D01*
X721757Y789971D01*
X721659Y789958D01*
X721559Y789948D01*
X721460Y789942D01*
X721360Y789940D01*
X723900Y807720D02*
X723898Y807820D01*
X723892Y807919D01*
X723882Y808019D01*
X723869Y808117D01*
X723851Y808216D01*
X723830Y808313D01*
X723805Y808409D01*
X723776Y808505D01*
X723743Y808599D01*
X723707Y808692D01*
X723667Y808783D01*
X723623Y808873D01*
X723576Y808961D01*
X723526Y809047D01*
X723472Y809131D01*
X723415Y809213D01*
X723355Y809292D01*
X723291Y809370D01*
X723225Y809444D01*
X723156Y809516D01*
X723084Y809585D01*
X723010Y809651D01*
X722932Y809715D01*
X722853Y809775D01*
X722771Y809832D01*
X722687Y809886D01*
X722601Y809936D01*
X722513Y809983D01*
X722423Y810027D01*
X722332Y810067D01*
X722239Y810103D01*
X722145Y810136D01*
X722049Y810165D01*
X721953Y810190D01*
X721856Y810211D01*
X721757Y810229D01*
X721659Y810242D01*
X721559Y810252D01*
X721460Y810258D01*
X721360Y810260D01*
X675640Y810260D02*
X675540Y810258D01*
X675441Y810252D01*
X675341Y810242D01*
X675243Y810229D01*
X675144Y810211D01*
X675047Y810190D01*
X674951Y810165D01*
X674855Y810136D01*
X674761Y810103D01*
X674668Y810067D01*
X674577Y810027D01*
X674487Y809983D01*
X674399Y809936D01*
X674313Y809886D01*
X674229Y809832D01*
X674147Y809775D01*
X674068Y809715D01*
X673990Y809651D01*
X673916Y809585D01*
X673844Y809516D01*
X673775Y809444D01*
X673709Y809370D01*
X673645Y809292D01*
X673585Y809213D01*
X673528Y809131D01*
X673474Y809047D01*
X673424Y808961D01*
X673377Y808873D01*
X673333Y808783D01*
X673293Y808692D01*
X673257Y808599D01*
X673224Y808505D01*
X673195Y808409D01*
X673170Y808313D01*
X673149Y808216D01*
X673131Y808117D01*
X673118Y808019D01*
X673108Y807919D01*
X673102Y807820D01*
X673100Y807720D01*
X673100Y792480D02*
X673102Y792380D01*
X673108Y792281D01*
X673118Y792181D01*
X673131Y792083D01*
X673149Y791984D01*
X673170Y791887D01*
X673195Y791791D01*
X673224Y791695D01*
X673257Y791601D01*
X673293Y791508D01*
X673333Y791417D01*
X673377Y791327D01*
X673424Y791239D01*
X673474Y791153D01*
X673528Y791069D01*
X673585Y790987D01*
X673645Y790908D01*
X673709Y790830D01*
X673775Y790756D01*
X673844Y790684D01*
X673916Y790615D01*
X673990Y790549D01*
X674068Y790485D01*
X674147Y790425D01*
X674229Y790368D01*
X674313Y790314D01*
X674399Y790264D01*
X674487Y790217D01*
X674577Y790173D01*
X674668Y790133D01*
X674761Y790097D01*
X674855Y790064D01*
X674951Y790035D01*
X675047Y790010D01*
X675144Y789989D01*
X675243Y789971D01*
X675341Y789958D01*
X675441Y789948D01*
X675540Y789942D01*
X675640Y789940D01*
X723900Y792480D02*
X723900Y807720D01*
X721360Y789940D02*
X717550Y789940D01*
X716280Y791210D01*
X717550Y810260D02*
X721360Y810260D01*
X717550Y810260D02*
X716280Y808990D01*
X680720Y791210D02*
X679450Y789940D01*
X680720Y791210D02*
X716280Y791210D01*
X680720Y808990D02*
X679450Y810260D01*
X680720Y808990D02*
X716280Y808990D01*
X679450Y789940D02*
X675640Y789940D01*
X675640Y810260D02*
X679450Y810260D01*
X673100Y807720D02*
X673100Y792480D01*
D16*
X671195Y800100D03*
X725805Y800100D03*
D17*
X690925Y786646D02*
X690925Y777748D01*
X690925Y786646D02*
X695374Y786646D01*
X696857Y785163D01*
X696857Y782197D01*
X695374Y780714D01*
X690925Y780714D01*
X693891Y780714D02*
X696857Y777748D01*
X700047Y786646D02*
X705978Y786646D01*
X700047Y786646D02*
X700047Y782197D01*
X703013Y783680D01*
X704495Y783680D01*
X705978Y782197D01*
X705978Y779231D01*
X704495Y777748D01*
X701530Y777748D01*
X700047Y779231D01*
D10*
X850900Y807720D02*
X850902Y807820D01*
X850908Y807919D01*
X850918Y808019D01*
X850931Y808117D01*
X850949Y808216D01*
X850970Y808313D01*
X850995Y808409D01*
X851024Y808505D01*
X851057Y808599D01*
X851093Y808692D01*
X851133Y808783D01*
X851177Y808873D01*
X851224Y808961D01*
X851274Y809047D01*
X851328Y809131D01*
X851385Y809213D01*
X851445Y809292D01*
X851509Y809370D01*
X851575Y809444D01*
X851644Y809516D01*
X851716Y809585D01*
X851790Y809651D01*
X851868Y809715D01*
X851947Y809775D01*
X852029Y809832D01*
X852113Y809886D01*
X852199Y809936D01*
X852287Y809983D01*
X852377Y810027D01*
X852468Y810067D01*
X852561Y810103D01*
X852655Y810136D01*
X852751Y810165D01*
X852847Y810190D01*
X852944Y810211D01*
X853043Y810229D01*
X853141Y810242D01*
X853241Y810252D01*
X853340Y810258D01*
X853440Y810260D01*
X850900Y792480D02*
X850902Y792380D01*
X850908Y792281D01*
X850918Y792181D01*
X850931Y792083D01*
X850949Y791984D01*
X850970Y791887D01*
X850995Y791791D01*
X851024Y791695D01*
X851057Y791601D01*
X851093Y791508D01*
X851133Y791417D01*
X851177Y791327D01*
X851224Y791239D01*
X851274Y791153D01*
X851328Y791069D01*
X851385Y790987D01*
X851445Y790908D01*
X851509Y790830D01*
X851575Y790756D01*
X851644Y790684D01*
X851716Y790615D01*
X851790Y790549D01*
X851868Y790485D01*
X851947Y790425D01*
X852029Y790368D01*
X852113Y790314D01*
X852199Y790264D01*
X852287Y790217D01*
X852377Y790173D01*
X852468Y790133D01*
X852561Y790097D01*
X852655Y790064D01*
X852751Y790035D01*
X852847Y790010D01*
X852944Y789989D01*
X853043Y789971D01*
X853141Y789958D01*
X853241Y789948D01*
X853340Y789942D01*
X853440Y789940D01*
X899160Y789940D02*
X899260Y789942D01*
X899359Y789948D01*
X899459Y789958D01*
X899557Y789971D01*
X899656Y789989D01*
X899753Y790010D01*
X899849Y790035D01*
X899945Y790064D01*
X900039Y790097D01*
X900132Y790133D01*
X900223Y790173D01*
X900313Y790217D01*
X900401Y790264D01*
X900487Y790314D01*
X900571Y790368D01*
X900653Y790425D01*
X900732Y790485D01*
X900810Y790549D01*
X900884Y790615D01*
X900956Y790684D01*
X901025Y790756D01*
X901091Y790830D01*
X901155Y790908D01*
X901215Y790987D01*
X901272Y791069D01*
X901326Y791153D01*
X901376Y791239D01*
X901423Y791327D01*
X901467Y791417D01*
X901507Y791508D01*
X901543Y791601D01*
X901576Y791695D01*
X901605Y791791D01*
X901630Y791887D01*
X901651Y791984D01*
X901669Y792083D01*
X901682Y792181D01*
X901692Y792281D01*
X901698Y792380D01*
X901700Y792480D01*
X901700Y807720D02*
X901698Y807820D01*
X901692Y807919D01*
X901682Y808019D01*
X901669Y808117D01*
X901651Y808216D01*
X901630Y808313D01*
X901605Y808409D01*
X901576Y808505D01*
X901543Y808599D01*
X901507Y808692D01*
X901467Y808783D01*
X901423Y808873D01*
X901376Y808961D01*
X901326Y809047D01*
X901272Y809131D01*
X901215Y809213D01*
X901155Y809292D01*
X901091Y809370D01*
X901025Y809444D01*
X900956Y809516D01*
X900884Y809585D01*
X900810Y809651D01*
X900732Y809715D01*
X900653Y809775D01*
X900571Y809832D01*
X900487Y809886D01*
X900401Y809936D01*
X900313Y809983D01*
X900223Y810027D01*
X900132Y810067D01*
X900039Y810103D01*
X899945Y810136D01*
X899849Y810165D01*
X899753Y810190D01*
X899656Y810211D01*
X899557Y810229D01*
X899459Y810242D01*
X899359Y810252D01*
X899260Y810258D01*
X899160Y810260D01*
X850900Y807720D02*
X850900Y792480D01*
X853440Y810260D02*
X857250Y810260D01*
X858520Y808990D01*
X857250Y789940D02*
X853440Y789940D01*
X857250Y789940D02*
X858520Y791210D01*
X894080Y808990D02*
X895350Y810260D01*
X894080Y808990D02*
X858520Y808990D01*
X894080Y791210D02*
X895350Y789940D01*
X894080Y791210D02*
X858520Y791210D01*
X895350Y810260D02*
X899160Y810260D01*
X899160Y789940D02*
X895350Y789940D01*
X901700Y792480D02*
X901700Y807720D01*
D16*
X903605Y800100D03*
X848995Y800100D03*
D17*
X871728Y786900D02*
X871728Y778002D01*
X871728Y786900D02*
X876177Y786900D01*
X877660Y785417D01*
X877660Y782451D01*
X876177Y780968D01*
X871728Y780968D01*
X874694Y780968D02*
X877660Y778002D01*
X883815Y785417D02*
X886781Y786900D01*
X883815Y785417D02*
X880849Y782451D01*
X880849Y779485D01*
X882332Y778002D01*
X885298Y778002D01*
X886781Y779485D01*
X886781Y780968D01*
X885298Y782451D01*
X880849Y782451D01*
D10*
X1242060Y599440D02*
X1242160Y599442D01*
X1242259Y599448D01*
X1242359Y599458D01*
X1242457Y599471D01*
X1242556Y599489D01*
X1242653Y599510D01*
X1242749Y599535D01*
X1242845Y599564D01*
X1242939Y599597D01*
X1243032Y599633D01*
X1243123Y599673D01*
X1243213Y599717D01*
X1243301Y599764D01*
X1243387Y599814D01*
X1243471Y599868D01*
X1243553Y599925D01*
X1243632Y599985D01*
X1243710Y600049D01*
X1243784Y600115D01*
X1243856Y600184D01*
X1243925Y600256D01*
X1243991Y600330D01*
X1244055Y600408D01*
X1244115Y600487D01*
X1244172Y600569D01*
X1244226Y600653D01*
X1244276Y600739D01*
X1244323Y600827D01*
X1244367Y600917D01*
X1244407Y601008D01*
X1244443Y601101D01*
X1244476Y601195D01*
X1244505Y601291D01*
X1244530Y601387D01*
X1244551Y601484D01*
X1244569Y601583D01*
X1244582Y601681D01*
X1244592Y601781D01*
X1244598Y601880D01*
X1244600Y601980D01*
X1244600Y617220D02*
X1244598Y617320D01*
X1244592Y617419D01*
X1244582Y617519D01*
X1244569Y617617D01*
X1244551Y617716D01*
X1244530Y617813D01*
X1244505Y617909D01*
X1244476Y618005D01*
X1244443Y618099D01*
X1244407Y618192D01*
X1244367Y618283D01*
X1244323Y618373D01*
X1244276Y618461D01*
X1244226Y618547D01*
X1244172Y618631D01*
X1244115Y618713D01*
X1244055Y618792D01*
X1243991Y618870D01*
X1243925Y618944D01*
X1243856Y619016D01*
X1243784Y619085D01*
X1243710Y619151D01*
X1243632Y619215D01*
X1243553Y619275D01*
X1243471Y619332D01*
X1243387Y619386D01*
X1243301Y619436D01*
X1243213Y619483D01*
X1243123Y619527D01*
X1243032Y619567D01*
X1242939Y619603D01*
X1242845Y619636D01*
X1242749Y619665D01*
X1242653Y619690D01*
X1242556Y619711D01*
X1242457Y619729D01*
X1242359Y619742D01*
X1242259Y619752D01*
X1242160Y619758D01*
X1242060Y619760D01*
X1196340Y619760D02*
X1196240Y619758D01*
X1196141Y619752D01*
X1196041Y619742D01*
X1195943Y619729D01*
X1195844Y619711D01*
X1195747Y619690D01*
X1195651Y619665D01*
X1195555Y619636D01*
X1195461Y619603D01*
X1195368Y619567D01*
X1195277Y619527D01*
X1195187Y619483D01*
X1195099Y619436D01*
X1195013Y619386D01*
X1194929Y619332D01*
X1194847Y619275D01*
X1194768Y619215D01*
X1194690Y619151D01*
X1194616Y619085D01*
X1194544Y619016D01*
X1194475Y618944D01*
X1194409Y618870D01*
X1194345Y618792D01*
X1194285Y618713D01*
X1194228Y618631D01*
X1194174Y618547D01*
X1194124Y618461D01*
X1194077Y618373D01*
X1194033Y618283D01*
X1193993Y618192D01*
X1193957Y618099D01*
X1193924Y618005D01*
X1193895Y617909D01*
X1193870Y617813D01*
X1193849Y617716D01*
X1193831Y617617D01*
X1193818Y617519D01*
X1193808Y617419D01*
X1193802Y617320D01*
X1193800Y617220D01*
X1193800Y601980D02*
X1193802Y601880D01*
X1193808Y601781D01*
X1193818Y601681D01*
X1193831Y601583D01*
X1193849Y601484D01*
X1193870Y601387D01*
X1193895Y601291D01*
X1193924Y601195D01*
X1193957Y601101D01*
X1193993Y601008D01*
X1194033Y600917D01*
X1194077Y600827D01*
X1194124Y600739D01*
X1194174Y600653D01*
X1194228Y600569D01*
X1194285Y600487D01*
X1194345Y600408D01*
X1194409Y600330D01*
X1194475Y600256D01*
X1194544Y600184D01*
X1194616Y600115D01*
X1194690Y600049D01*
X1194768Y599985D01*
X1194847Y599925D01*
X1194929Y599868D01*
X1195013Y599814D01*
X1195099Y599764D01*
X1195187Y599717D01*
X1195277Y599673D01*
X1195368Y599633D01*
X1195461Y599597D01*
X1195555Y599564D01*
X1195651Y599535D01*
X1195747Y599510D01*
X1195844Y599489D01*
X1195943Y599471D01*
X1196041Y599458D01*
X1196141Y599448D01*
X1196240Y599442D01*
X1196340Y599440D01*
X1244600Y601980D02*
X1244600Y617220D01*
X1242060Y599440D02*
X1238250Y599440D01*
X1236980Y600710D01*
X1238250Y619760D02*
X1242060Y619760D01*
X1238250Y619760D02*
X1236980Y618490D01*
X1201420Y600710D02*
X1200150Y599440D01*
X1201420Y600710D02*
X1236980Y600710D01*
X1201420Y618490D02*
X1200150Y619760D01*
X1201420Y618490D02*
X1236980Y618490D01*
X1200150Y599440D02*
X1196340Y599440D01*
X1196340Y619760D02*
X1200150Y619760D01*
X1193800Y617220D02*
X1193800Y601980D01*
D16*
X1191895Y609600D03*
X1246505Y609600D03*
D17*
X1214165Y622808D02*
X1214165Y631706D01*
X1218614Y631706D01*
X1220097Y630223D01*
X1220097Y627257D01*
X1218614Y625774D01*
X1214165Y625774D01*
X1217131Y625774D02*
X1220097Y622808D01*
X1223287Y631706D02*
X1229218Y631706D01*
X1229218Y630223D01*
X1223287Y624291D01*
X1223287Y622808D01*
D10*
X1196340Y581660D02*
X1196240Y581658D01*
X1196141Y581652D01*
X1196041Y581642D01*
X1195943Y581629D01*
X1195844Y581611D01*
X1195747Y581590D01*
X1195651Y581565D01*
X1195555Y581536D01*
X1195461Y581503D01*
X1195368Y581467D01*
X1195277Y581427D01*
X1195187Y581383D01*
X1195099Y581336D01*
X1195013Y581286D01*
X1194929Y581232D01*
X1194847Y581175D01*
X1194768Y581115D01*
X1194690Y581051D01*
X1194616Y580985D01*
X1194544Y580916D01*
X1194475Y580844D01*
X1194409Y580770D01*
X1194345Y580692D01*
X1194285Y580613D01*
X1194228Y580531D01*
X1194174Y580447D01*
X1194124Y580361D01*
X1194077Y580273D01*
X1194033Y580183D01*
X1193993Y580092D01*
X1193957Y579999D01*
X1193924Y579905D01*
X1193895Y579809D01*
X1193870Y579713D01*
X1193849Y579616D01*
X1193831Y579517D01*
X1193818Y579419D01*
X1193808Y579319D01*
X1193802Y579220D01*
X1193800Y579120D01*
X1193800Y563880D02*
X1193802Y563780D01*
X1193808Y563681D01*
X1193818Y563581D01*
X1193831Y563483D01*
X1193849Y563384D01*
X1193870Y563287D01*
X1193895Y563191D01*
X1193924Y563095D01*
X1193957Y563001D01*
X1193993Y562908D01*
X1194033Y562817D01*
X1194077Y562727D01*
X1194124Y562639D01*
X1194174Y562553D01*
X1194228Y562469D01*
X1194285Y562387D01*
X1194345Y562308D01*
X1194409Y562230D01*
X1194475Y562156D01*
X1194544Y562084D01*
X1194616Y562015D01*
X1194690Y561949D01*
X1194768Y561885D01*
X1194847Y561825D01*
X1194929Y561768D01*
X1195013Y561714D01*
X1195099Y561664D01*
X1195187Y561617D01*
X1195277Y561573D01*
X1195368Y561533D01*
X1195461Y561497D01*
X1195555Y561464D01*
X1195651Y561435D01*
X1195747Y561410D01*
X1195844Y561389D01*
X1195943Y561371D01*
X1196041Y561358D01*
X1196141Y561348D01*
X1196240Y561342D01*
X1196340Y561340D01*
X1242060Y561340D02*
X1242160Y561342D01*
X1242259Y561348D01*
X1242359Y561358D01*
X1242457Y561371D01*
X1242556Y561389D01*
X1242653Y561410D01*
X1242749Y561435D01*
X1242845Y561464D01*
X1242939Y561497D01*
X1243032Y561533D01*
X1243123Y561573D01*
X1243213Y561617D01*
X1243301Y561664D01*
X1243387Y561714D01*
X1243471Y561768D01*
X1243553Y561825D01*
X1243632Y561885D01*
X1243710Y561949D01*
X1243784Y562015D01*
X1243856Y562084D01*
X1243925Y562156D01*
X1243991Y562230D01*
X1244055Y562308D01*
X1244115Y562387D01*
X1244172Y562469D01*
X1244226Y562553D01*
X1244276Y562639D01*
X1244323Y562727D01*
X1244367Y562817D01*
X1244407Y562908D01*
X1244443Y563001D01*
X1244476Y563095D01*
X1244505Y563191D01*
X1244530Y563287D01*
X1244551Y563384D01*
X1244569Y563483D01*
X1244582Y563581D01*
X1244592Y563681D01*
X1244598Y563780D01*
X1244600Y563880D01*
X1244600Y579120D02*
X1244598Y579220D01*
X1244592Y579319D01*
X1244582Y579419D01*
X1244569Y579517D01*
X1244551Y579616D01*
X1244530Y579713D01*
X1244505Y579809D01*
X1244476Y579905D01*
X1244443Y579999D01*
X1244407Y580092D01*
X1244367Y580183D01*
X1244323Y580273D01*
X1244276Y580361D01*
X1244226Y580447D01*
X1244172Y580531D01*
X1244115Y580613D01*
X1244055Y580692D01*
X1243991Y580770D01*
X1243925Y580844D01*
X1243856Y580916D01*
X1243784Y580985D01*
X1243710Y581051D01*
X1243632Y581115D01*
X1243553Y581175D01*
X1243471Y581232D01*
X1243387Y581286D01*
X1243301Y581336D01*
X1243213Y581383D01*
X1243123Y581427D01*
X1243032Y581467D01*
X1242939Y581503D01*
X1242845Y581536D01*
X1242749Y581565D01*
X1242653Y581590D01*
X1242556Y581611D01*
X1242457Y581629D01*
X1242359Y581642D01*
X1242259Y581652D01*
X1242160Y581658D01*
X1242060Y581660D01*
X1193800Y579120D02*
X1193800Y563880D01*
X1196340Y581660D02*
X1200150Y581660D01*
X1201420Y580390D01*
X1200150Y561340D02*
X1196340Y561340D01*
X1200150Y561340D02*
X1201420Y562610D01*
X1236980Y580390D02*
X1238250Y581660D01*
X1236980Y580390D02*
X1201420Y580390D01*
X1236980Y562610D02*
X1238250Y561340D01*
X1236980Y562610D02*
X1201420Y562610D01*
X1238250Y581660D02*
X1242060Y581660D01*
X1242060Y561340D02*
X1238250Y561340D01*
X1244600Y563880D02*
X1244600Y579120D01*
D16*
X1246505Y571500D03*
X1191895Y571500D03*
D17*
X1209548Y584962D02*
X1209548Y593860D01*
X1213997Y593860D01*
X1215480Y592377D01*
X1215480Y589411D01*
X1213997Y587928D01*
X1209548Y587928D01*
X1212514Y587928D02*
X1215480Y584962D01*
X1218669Y590894D02*
X1221635Y593860D01*
X1221635Y584962D01*
X1218669Y584962D02*
X1224601Y584962D01*
X1232239Y584962D02*
X1232239Y593860D01*
X1227791Y589411D01*
X1233722Y589411D01*
D10*
X673100Y0D02*
X495300Y0D01*
X495300Y63500D01*
X673100Y63500D02*
X673100Y0D01*
X673100Y-12700D02*
X685800Y-12700D01*
X529590Y76200D02*
X482600Y76200D01*
X482600Y-12700D01*
X685800Y-12700D02*
X685800Y76200D01*
X538480Y63500D02*
X495300Y63500D01*
X563880Y55880D02*
X604520Y55880D01*
X604520Y63500D01*
X673100Y63500D01*
X604520Y63500D02*
X604520Y66040D01*
X563880Y63500D02*
X563880Y55880D01*
X563880Y63500D02*
X563880Y66040D01*
X495300Y-12700D02*
X495300Y-15240D01*
X508000Y-15240D01*
X508000Y-12700D01*
X495300Y-12700D02*
X482600Y-12700D01*
X577850Y-15240D02*
X590550Y-15240D01*
X577850Y-15240D02*
X577850Y-12700D01*
X508000Y-12700D01*
X590550Y-12700D02*
X590550Y-15240D01*
X660400Y-15240D02*
X673100Y-15240D01*
X673100Y-12700D01*
X660400Y-12700D02*
X660400Y-15240D01*
X660400Y-12700D02*
X590550Y-12700D01*
X563880Y76200D02*
X562610Y76200D01*
X563880Y76200D02*
X604520Y76200D01*
X553720Y66040D02*
X553720Y63500D01*
X563880Y63500D01*
X538480Y63500D02*
X538480Y66040D01*
X538480Y63500D02*
X553720Y63500D01*
X558800Y71120D02*
X562610Y76200D01*
X533400Y71120D02*
X529590Y76200D01*
X533400Y71120D02*
X538480Y71120D01*
D18*
X553720Y66040D02*
X563880Y66040D01*
D10*
X563880Y76200D01*
D18*
X538480Y66040D02*
X492760Y66040D01*
X492760Y-2540D01*
X675640Y-2540D01*
X675640Y66040D01*
X604520Y66040D01*
D10*
X604520Y76200D01*
X553720Y71120D02*
X553720Y66040D01*
X553720Y71120D02*
X558800Y71120D01*
X538480Y71120D02*
X538480Y66040D01*
X538480Y71120D02*
X553720Y71120D01*
X604520Y76200D02*
X628650Y76200D01*
X628650Y74930D01*
X641350Y74930D01*
X641350Y76200D01*
X685800Y76200D01*
D12*
X575420Y71765D02*
X571607Y67952D01*
X575420Y71765D02*
X575420Y60325D01*
X571607Y60325D02*
X579234Y60325D01*
X583301Y62232D02*
X583301Y69858D01*
X585208Y71765D01*
X589021Y71765D01*
X590928Y69858D01*
X590928Y62232D01*
X589021Y60325D01*
X585208Y60325D01*
X583301Y62232D01*
X590928Y69858D01*
X649341Y46362D02*
X653154Y50175D01*
X653154Y38735D01*
X649341Y38735D02*
X656968Y38735D01*
X656968Y13335D02*
X649341Y13335D01*
X656968Y20962D01*
X656968Y22868D01*
X655061Y24775D01*
X651248Y24775D01*
X649341Y22868D01*
D19*
X528293Y100725D02*
X517616Y100725D01*
X517616Y84709D01*
X528293Y84709D01*
X522955Y92717D02*
X517616Y92717D01*
X533988Y84709D02*
X533988Y100725D01*
X544665Y84709D01*
X544665Y100725D01*
X558367Y100725D02*
X561037Y98055D01*
X558367Y100725D02*
X553029Y100725D01*
X550359Y98055D01*
X550359Y87378D01*
X553029Y84709D01*
X558367Y84709D01*
X561037Y87378D01*
X569400Y100725D02*
X574739Y100725D01*
X569400Y100725D02*
X566731Y98055D01*
X566731Y87378D01*
X569400Y84709D01*
X574739Y84709D01*
X577408Y87378D01*
X577408Y98055D01*
X574739Y100725D01*
X583103Y100725D02*
X583103Y84709D01*
X591110Y84709D01*
X593780Y87378D01*
X593780Y98055D01*
X591110Y100725D01*
X583103Y100725D01*
X599474Y100725D02*
X610151Y100725D01*
X599474Y100725D02*
X599474Y84709D01*
X610151Y84709D01*
X604813Y92717D02*
X599474Y92717D01*
X615846Y84709D02*
X615846Y100725D01*
X623854Y100725D01*
X626523Y98055D01*
X626523Y92717D01*
X623854Y90048D01*
X615846Y90048D01*
X621184Y90048D02*
X626523Y84709D01*
X640225Y100725D02*
X642894Y98055D01*
X640225Y100725D02*
X634887Y100725D01*
X632217Y98055D01*
X632217Y95386D01*
X634887Y92717D01*
X640225Y92717D01*
X642894Y90048D01*
X642894Y87378D01*
X640225Y84709D01*
X634887Y84709D01*
X632217Y87378D01*
D12*
X323850Y-266700D02*
X323850Y-304800D01*
X323850Y-355600D02*
X323850Y-393700D01*
X222250Y-393700D01*
X222250Y-355600D01*
X222250Y-304800D02*
X222250Y-266700D01*
X234950Y-266700D01*
X311150Y-266700D02*
X323850Y-266700D01*
X285750Y-266700D02*
X260350Y-266700D01*
X237129Y-330200D02*
X237140Y-329318D01*
X237172Y-328437D01*
X237226Y-327557D01*
X237302Y-326679D01*
X237399Y-325803D01*
X237518Y-324929D01*
X237658Y-324059D01*
X237819Y-323192D01*
X238002Y-322330D01*
X238206Y-321472D01*
X238430Y-320619D01*
X238676Y-319773D01*
X238942Y-318932D01*
X239229Y-318099D01*
X239536Y-317272D01*
X239863Y-316454D01*
X240211Y-315643D01*
X240578Y-314842D01*
X240964Y-314050D01*
X241371Y-313267D01*
X241796Y-312495D01*
X242240Y-311733D01*
X242702Y-310982D01*
X243183Y-310243D01*
X243682Y-309516D01*
X244198Y-308802D01*
X244732Y-308100D01*
X245283Y-307412D01*
X245850Y-306737D01*
X246434Y-306077D01*
X247034Y-305431D01*
X247650Y-304800D01*
X248281Y-304184D01*
X248927Y-303584D01*
X249587Y-303000D01*
X250262Y-302433D01*
X250950Y-301882D01*
X251652Y-301348D01*
X252366Y-300832D01*
X253093Y-300333D01*
X253832Y-299852D01*
X254583Y-299390D01*
X255345Y-298946D01*
X256117Y-298521D01*
X256900Y-298114D01*
X257692Y-297728D01*
X258493Y-297361D01*
X259304Y-297013D01*
X260122Y-296686D01*
X260949Y-296379D01*
X261782Y-296092D01*
X262623Y-295826D01*
X263469Y-295580D01*
X264322Y-295356D01*
X265180Y-295152D01*
X266042Y-294969D01*
X266909Y-294808D01*
X267779Y-294668D01*
X268653Y-294549D01*
X269529Y-294452D01*
X270407Y-294376D01*
X271287Y-294322D01*
X272168Y-294290D01*
X273050Y-294279D01*
X273932Y-294290D01*
X274813Y-294322D01*
X275693Y-294376D01*
X276571Y-294452D01*
X277447Y-294549D01*
X278321Y-294668D01*
X279191Y-294808D01*
X280058Y-294969D01*
X280920Y-295152D01*
X281778Y-295356D01*
X282631Y-295580D01*
X283477Y-295826D01*
X284318Y-296092D01*
X285151Y-296379D01*
X285978Y-296686D01*
X286796Y-297013D01*
X287607Y-297361D01*
X288408Y-297728D01*
X289200Y-298114D01*
X289983Y-298521D01*
X290755Y-298946D01*
X291517Y-299390D01*
X292268Y-299852D01*
X293007Y-300333D01*
X293734Y-300832D01*
X294448Y-301348D01*
X295150Y-301882D01*
X295838Y-302433D01*
X296513Y-303000D01*
X297173Y-303584D01*
X297819Y-304184D01*
X298450Y-304800D01*
X299066Y-305431D01*
X299666Y-306077D01*
X300250Y-306737D01*
X300817Y-307412D01*
X301368Y-308100D01*
X301902Y-308802D01*
X302418Y-309516D01*
X302917Y-310243D01*
X303398Y-310982D01*
X303860Y-311733D01*
X304304Y-312495D01*
X304729Y-313267D01*
X305136Y-314050D01*
X305522Y-314842D01*
X305889Y-315643D01*
X306237Y-316454D01*
X306564Y-317272D01*
X306871Y-318099D01*
X307158Y-318932D01*
X307424Y-319773D01*
X307670Y-320619D01*
X307894Y-321472D01*
X308098Y-322330D01*
X308281Y-323192D01*
X308442Y-324059D01*
X308582Y-324929D01*
X308701Y-325803D01*
X308798Y-326679D01*
X308874Y-327557D01*
X308928Y-328437D01*
X308960Y-329318D01*
X308971Y-330200D01*
X308960Y-331082D01*
X308928Y-331963D01*
X308874Y-332843D01*
X308798Y-333721D01*
X308701Y-334597D01*
X308582Y-335471D01*
X308442Y-336341D01*
X308281Y-337208D01*
X308098Y-338070D01*
X307894Y-338928D01*
X307670Y-339781D01*
X307424Y-340627D01*
X307158Y-341468D01*
X306871Y-342301D01*
X306564Y-343128D01*
X306237Y-343946D01*
X305889Y-344757D01*
X305522Y-345558D01*
X305136Y-346350D01*
X304729Y-347133D01*
X304304Y-347905D01*
X303860Y-348667D01*
X303398Y-349418D01*
X302917Y-350157D01*
X302418Y-350884D01*
X301902Y-351598D01*
X301368Y-352300D01*
X300817Y-352988D01*
X300250Y-353663D01*
X299666Y-354323D01*
X299066Y-354969D01*
X298450Y-355600D01*
X297819Y-356216D01*
X297173Y-356816D01*
X296513Y-357400D01*
X295838Y-357967D01*
X295150Y-358518D01*
X294448Y-359052D01*
X293734Y-359568D01*
X293007Y-360067D01*
X292268Y-360548D01*
X291517Y-361010D01*
X290755Y-361454D01*
X289983Y-361879D01*
X289200Y-362286D01*
X288408Y-362672D01*
X287607Y-363039D01*
X286796Y-363387D01*
X285978Y-363714D01*
X285151Y-364021D01*
X284318Y-364308D01*
X283477Y-364574D01*
X282631Y-364820D01*
X281778Y-365044D01*
X280920Y-365248D01*
X280058Y-365431D01*
X279191Y-365592D01*
X278321Y-365732D01*
X277447Y-365851D01*
X276571Y-365948D01*
X275693Y-366024D01*
X274813Y-366078D01*
X273932Y-366110D01*
X273050Y-366121D01*
X272168Y-366110D01*
X271287Y-366078D01*
X270407Y-366024D01*
X269529Y-365948D01*
X268653Y-365851D01*
X267779Y-365732D01*
X266909Y-365592D01*
X266042Y-365431D01*
X265180Y-365248D01*
X264322Y-365044D01*
X263469Y-364820D01*
X262623Y-364574D01*
X261782Y-364308D01*
X260949Y-364021D01*
X260122Y-363714D01*
X259304Y-363387D01*
X258493Y-363039D01*
X257692Y-362672D01*
X256900Y-362286D01*
X256117Y-361879D01*
X255345Y-361454D01*
X254583Y-361010D01*
X253832Y-360548D01*
X253093Y-360067D01*
X252366Y-359568D01*
X251652Y-359052D01*
X250950Y-358518D01*
X250262Y-357967D01*
X249587Y-357400D01*
X248927Y-356816D01*
X248281Y-356216D01*
X247650Y-355600D01*
X247034Y-354969D01*
X246434Y-354323D01*
X245850Y-353663D01*
X245283Y-352988D01*
X244732Y-352300D01*
X244198Y-351598D01*
X243682Y-350884D01*
X243183Y-350157D01*
X242702Y-349418D01*
X242240Y-348667D01*
X241796Y-347905D01*
X241371Y-347133D01*
X240964Y-346350D01*
X240578Y-345558D01*
X240211Y-344757D01*
X239863Y-343946D01*
X239536Y-343128D01*
X239229Y-342301D01*
X238942Y-341468D01*
X238676Y-340627D01*
X238430Y-339781D01*
X238206Y-338928D01*
X238002Y-338070D01*
X237819Y-337208D01*
X237658Y-336341D01*
X237518Y-335471D01*
X237399Y-334597D01*
X237302Y-333721D01*
X237226Y-332843D01*
X237172Y-331963D01*
X237140Y-331082D01*
X237129Y-330200D01*
D20*
X273174Y-333541D02*
X273174Y-336083D01*
X276987Y-336083D01*
X276987Y-333541D01*
X275080Y-334812D02*
X275080Y-336083D01*
X276987Y-332341D02*
X273174Y-332341D01*
X276987Y-329799D01*
X273174Y-329799D01*
X273174Y-326693D02*
X273809Y-326057D01*
X273174Y-326693D02*
X273174Y-327964D01*
X273809Y-328599D01*
X276351Y-328599D01*
X276987Y-327964D01*
X276987Y-326693D01*
X276351Y-326057D01*
X277623Y-324857D02*
X277623Y-322315D01*
X274445Y-321115D02*
X273174Y-319844D01*
X276987Y-319844D01*
X276987Y-321115D02*
X276987Y-318573D01*
D12*
X673100Y-304800D02*
X673100Y-266700D01*
X673100Y-355600D02*
X673100Y-393700D01*
X571500Y-393700D01*
X571500Y-355600D01*
X571500Y-304800D02*
X571500Y-266700D01*
X584200Y-266700D01*
X660400Y-266700D02*
X673100Y-266700D01*
X635000Y-266700D02*
X609600Y-266700D01*
X586379Y-330200D02*
X586390Y-329318D01*
X586422Y-328437D01*
X586476Y-327557D01*
X586552Y-326679D01*
X586649Y-325803D01*
X586768Y-324929D01*
X586908Y-324059D01*
X587069Y-323192D01*
X587252Y-322330D01*
X587456Y-321472D01*
X587680Y-320619D01*
X587926Y-319773D01*
X588192Y-318932D01*
X588479Y-318099D01*
X588786Y-317272D01*
X589113Y-316454D01*
X589461Y-315643D01*
X589828Y-314842D01*
X590214Y-314050D01*
X590621Y-313267D01*
X591046Y-312495D01*
X591490Y-311733D01*
X591952Y-310982D01*
X592433Y-310243D01*
X592932Y-309516D01*
X593448Y-308802D01*
X593982Y-308100D01*
X594533Y-307412D01*
X595100Y-306737D01*
X595684Y-306077D01*
X596284Y-305431D01*
X596900Y-304800D01*
X597531Y-304184D01*
X598177Y-303584D01*
X598837Y-303000D01*
X599512Y-302433D01*
X600200Y-301882D01*
X600902Y-301348D01*
X601616Y-300832D01*
X602343Y-300333D01*
X603082Y-299852D01*
X603833Y-299390D01*
X604595Y-298946D01*
X605367Y-298521D01*
X606150Y-298114D01*
X606942Y-297728D01*
X607743Y-297361D01*
X608554Y-297013D01*
X609372Y-296686D01*
X610199Y-296379D01*
X611032Y-296092D01*
X611873Y-295826D01*
X612719Y-295580D01*
X613572Y-295356D01*
X614430Y-295152D01*
X615292Y-294969D01*
X616159Y-294808D01*
X617029Y-294668D01*
X617903Y-294549D01*
X618779Y-294452D01*
X619657Y-294376D01*
X620537Y-294322D01*
X621418Y-294290D01*
X622300Y-294279D01*
X623182Y-294290D01*
X624063Y-294322D01*
X624943Y-294376D01*
X625821Y-294452D01*
X626697Y-294549D01*
X627571Y-294668D01*
X628441Y-294808D01*
X629308Y-294969D01*
X630170Y-295152D01*
X631028Y-295356D01*
X631881Y-295580D01*
X632727Y-295826D01*
X633568Y-296092D01*
X634401Y-296379D01*
X635228Y-296686D01*
X636046Y-297013D01*
X636857Y-297361D01*
X637658Y-297728D01*
X638450Y-298114D01*
X639233Y-298521D01*
X640005Y-298946D01*
X640767Y-299390D01*
X641518Y-299852D01*
X642257Y-300333D01*
X642984Y-300832D01*
X643698Y-301348D01*
X644400Y-301882D01*
X645088Y-302433D01*
X645763Y-303000D01*
X646423Y-303584D01*
X647069Y-304184D01*
X647700Y-304800D01*
X648316Y-305431D01*
X648916Y-306077D01*
X649500Y-306737D01*
X650067Y-307412D01*
X650618Y-308100D01*
X651152Y-308802D01*
X651668Y-309516D01*
X652167Y-310243D01*
X652648Y-310982D01*
X653110Y-311733D01*
X653554Y-312495D01*
X653979Y-313267D01*
X654386Y-314050D01*
X654772Y-314842D01*
X655139Y-315643D01*
X655487Y-316454D01*
X655814Y-317272D01*
X656121Y-318099D01*
X656408Y-318932D01*
X656674Y-319773D01*
X656920Y-320619D01*
X657144Y-321472D01*
X657348Y-322330D01*
X657531Y-323192D01*
X657692Y-324059D01*
X657832Y-324929D01*
X657951Y-325803D01*
X658048Y-326679D01*
X658124Y-327557D01*
X658178Y-328437D01*
X658210Y-329318D01*
X658221Y-330200D01*
X658210Y-331082D01*
X658178Y-331963D01*
X658124Y-332843D01*
X658048Y-333721D01*
X657951Y-334597D01*
X657832Y-335471D01*
X657692Y-336341D01*
X657531Y-337208D01*
X657348Y-338070D01*
X657144Y-338928D01*
X656920Y-339781D01*
X656674Y-340627D01*
X656408Y-341468D01*
X656121Y-342301D01*
X655814Y-343128D01*
X655487Y-343946D01*
X655139Y-344757D01*
X654772Y-345558D01*
X654386Y-346350D01*
X653979Y-347133D01*
X653554Y-347905D01*
X653110Y-348667D01*
X652648Y-349418D01*
X652167Y-350157D01*
X651668Y-350884D01*
X651152Y-351598D01*
X650618Y-352300D01*
X650067Y-352988D01*
X649500Y-353663D01*
X648916Y-354323D01*
X648316Y-354969D01*
X647700Y-355600D01*
X647069Y-356216D01*
X646423Y-356816D01*
X645763Y-357400D01*
X645088Y-357967D01*
X644400Y-358518D01*
X643698Y-359052D01*
X642984Y-359568D01*
X642257Y-360067D01*
X641518Y-360548D01*
X640767Y-361010D01*
X640005Y-361454D01*
X639233Y-361879D01*
X638450Y-362286D01*
X637658Y-362672D01*
X636857Y-363039D01*
X636046Y-363387D01*
X635228Y-363714D01*
X634401Y-364021D01*
X633568Y-364308D01*
X632727Y-364574D01*
X631881Y-364820D01*
X631028Y-365044D01*
X630170Y-365248D01*
X629308Y-365431D01*
X628441Y-365592D01*
X627571Y-365732D01*
X626697Y-365851D01*
X625821Y-365948D01*
X624943Y-366024D01*
X624063Y-366078D01*
X623182Y-366110D01*
X622300Y-366121D01*
X621418Y-366110D01*
X620537Y-366078D01*
X619657Y-366024D01*
X618779Y-365948D01*
X617903Y-365851D01*
X617029Y-365732D01*
X616159Y-365592D01*
X615292Y-365431D01*
X614430Y-365248D01*
X613572Y-365044D01*
X612719Y-364820D01*
X611873Y-364574D01*
X611032Y-364308D01*
X610199Y-364021D01*
X609372Y-363714D01*
X608554Y-363387D01*
X607743Y-363039D01*
X606942Y-362672D01*
X606150Y-362286D01*
X605367Y-361879D01*
X604595Y-361454D01*
X603833Y-361010D01*
X603082Y-360548D01*
X602343Y-360067D01*
X601616Y-359568D01*
X600902Y-359052D01*
X600200Y-358518D01*
X599512Y-357967D01*
X598837Y-357400D01*
X598177Y-356816D01*
X597531Y-356216D01*
X596900Y-355600D01*
X596284Y-354969D01*
X595684Y-354323D01*
X595100Y-353663D01*
X594533Y-352988D01*
X593982Y-352300D01*
X593448Y-351598D01*
X592932Y-350884D01*
X592433Y-350157D01*
X591952Y-349418D01*
X591490Y-348667D01*
X591046Y-347905D01*
X590621Y-347133D01*
X590214Y-346350D01*
X589828Y-345558D01*
X589461Y-344757D01*
X589113Y-343946D01*
X588786Y-343128D01*
X588479Y-342301D01*
X588192Y-341468D01*
X587926Y-340627D01*
X587680Y-339781D01*
X587456Y-338928D01*
X587252Y-338070D01*
X587069Y-337208D01*
X586908Y-336341D01*
X586768Y-335471D01*
X586649Y-334597D01*
X586552Y-333721D01*
X586476Y-332843D01*
X586422Y-331963D01*
X586390Y-331082D01*
X586379Y-330200D01*
D20*
X622424Y-333541D02*
X622424Y-336083D01*
X626237Y-336083D01*
X626237Y-333541D01*
X624330Y-334812D02*
X624330Y-336083D01*
X626237Y-332341D02*
X622424Y-332341D01*
X626237Y-329799D01*
X622424Y-329799D01*
X622424Y-326693D02*
X623059Y-326057D01*
X622424Y-326693D02*
X622424Y-327964D01*
X623059Y-328599D01*
X625601Y-328599D01*
X626237Y-327964D01*
X626237Y-326693D01*
X625601Y-326057D01*
X626873Y-324857D02*
X626873Y-322315D01*
X626237Y-321115D02*
X626237Y-318573D01*
X626237Y-321115D02*
X623695Y-318573D01*
X623059Y-318573D01*
X622424Y-319209D01*
X622424Y-320480D01*
X623059Y-321115D01*
D12*
X1028700Y-304800D02*
X1028700Y-266700D01*
X1028700Y-355600D02*
X1028700Y-393700D01*
X927100Y-393700D01*
X927100Y-355600D01*
X927100Y-304800D02*
X927100Y-266700D01*
X939800Y-266700D01*
X1016000Y-266700D02*
X1028700Y-266700D01*
X990600Y-266700D02*
X965200Y-266700D01*
X941979Y-330200D02*
X941990Y-329318D01*
X942022Y-328437D01*
X942076Y-327557D01*
X942152Y-326679D01*
X942249Y-325803D01*
X942368Y-324929D01*
X942508Y-324059D01*
X942669Y-323192D01*
X942852Y-322330D01*
X943056Y-321472D01*
X943280Y-320619D01*
X943526Y-319773D01*
X943792Y-318932D01*
X944079Y-318099D01*
X944386Y-317272D01*
X944713Y-316454D01*
X945061Y-315643D01*
X945428Y-314842D01*
X945814Y-314050D01*
X946221Y-313267D01*
X946646Y-312495D01*
X947090Y-311733D01*
X947552Y-310982D01*
X948033Y-310243D01*
X948532Y-309516D01*
X949048Y-308802D01*
X949582Y-308100D01*
X950133Y-307412D01*
X950700Y-306737D01*
X951284Y-306077D01*
X951884Y-305431D01*
X952500Y-304800D01*
X953131Y-304184D01*
X953777Y-303584D01*
X954437Y-303000D01*
X955112Y-302433D01*
X955800Y-301882D01*
X956502Y-301348D01*
X957216Y-300832D01*
X957943Y-300333D01*
X958682Y-299852D01*
X959433Y-299390D01*
X960195Y-298946D01*
X960967Y-298521D01*
X961750Y-298114D01*
X962542Y-297728D01*
X963343Y-297361D01*
X964154Y-297013D01*
X964972Y-296686D01*
X965799Y-296379D01*
X966632Y-296092D01*
X967473Y-295826D01*
X968319Y-295580D01*
X969172Y-295356D01*
X970030Y-295152D01*
X970892Y-294969D01*
X971759Y-294808D01*
X972629Y-294668D01*
X973503Y-294549D01*
X974379Y-294452D01*
X975257Y-294376D01*
X976137Y-294322D01*
X977018Y-294290D01*
X977900Y-294279D01*
X978782Y-294290D01*
X979663Y-294322D01*
X980543Y-294376D01*
X981421Y-294452D01*
X982297Y-294549D01*
X983171Y-294668D01*
X984041Y-294808D01*
X984908Y-294969D01*
X985770Y-295152D01*
X986628Y-295356D01*
X987481Y-295580D01*
X988327Y-295826D01*
X989168Y-296092D01*
X990001Y-296379D01*
X990828Y-296686D01*
X991646Y-297013D01*
X992457Y-297361D01*
X993258Y-297728D01*
X994050Y-298114D01*
X994833Y-298521D01*
X995605Y-298946D01*
X996367Y-299390D01*
X997118Y-299852D01*
X997857Y-300333D01*
X998584Y-300832D01*
X999298Y-301348D01*
X1000000Y-301882D01*
X1000688Y-302433D01*
X1001363Y-303000D01*
X1002023Y-303584D01*
X1002669Y-304184D01*
X1003300Y-304800D01*
X1003916Y-305431D01*
X1004516Y-306077D01*
X1005100Y-306737D01*
X1005667Y-307412D01*
X1006218Y-308100D01*
X1006752Y-308802D01*
X1007268Y-309516D01*
X1007767Y-310243D01*
X1008248Y-310982D01*
X1008710Y-311733D01*
X1009154Y-312495D01*
X1009579Y-313267D01*
X1009986Y-314050D01*
X1010372Y-314842D01*
X1010739Y-315643D01*
X1011087Y-316454D01*
X1011414Y-317272D01*
X1011721Y-318099D01*
X1012008Y-318932D01*
X1012274Y-319773D01*
X1012520Y-320619D01*
X1012744Y-321472D01*
X1012948Y-322330D01*
X1013131Y-323192D01*
X1013292Y-324059D01*
X1013432Y-324929D01*
X1013551Y-325803D01*
X1013648Y-326679D01*
X1013724Y-327557D01*
X1013778Y-328437D01*
X1013810Y-329318D01*
X1013821Y-330200D01*
X1013810Y-331082D01*
X1013778Y-331963D01*
X1013724Y-332843D01*
X1013648Y-333721D01*
X1013551Y-334597D01*
X1013432Y-335471D01*
X1013292Y-336341D01*
X1013131Y-337208D01*
X1012948Y-338070D01*
X1012744Y-338928D01*
X1012520Y-339781D01*
X1012274Y-340627D01*
X1012008Y-341468D01*
X1011721Y-342301D01*
X1011414Y-343128D01*
X1011087Y-343946D01*
X1010739Y-344757D01*
X1010372Y-345558D01*
X1009986Y-346350D01*
X1009579Y-347133D01*
X1009154Y-347905D01*
X1008710Y-348667D01*
X1008248Y-349418D01*
X1007767Y-350157D01*
X1007268Y-350884D01*
X1006752Y-351598D01*
X1006218Y-352300D01*
X1005667Y-352988D01*
X1005100Y-353663D01*
X1004516Y-354323D01*
X1003916Y-354969D01*
X1003300Y-355600D01*
X1002669Y-356216D01*
X1002023Y-356816D01*
X1001363Y-357400D01*
X1000688Y-357967D01*
X1000000Y-358518D01*
X999298Y-359052D01*
X998584Y-359568D01*
X997857Y-360067D01*
X997118Y-360548D01*
X996367Y-361010D01*
X995605Y-361454D01*
X994833Y-361879D01*
X994050Y-362286D01*
X993258Y-362672D01*
X992457Y-363039D01*
X991646Y-363387D01*
X990828Y-363714D01*
X990001Y-364021D01*
X989168Y-364308D01*
X988327Y-364574D01*
X987481Y-364820D01*
X986628Y-365044D01*
X985770Y-365248D01*
X984908Y-365431D01*
X984041Y-365592D01*
X983171Y-365732D01*
X982297Y-365851D01*
X981421Y-365948D01*
X980543Y-366024D01*
X979663Y-366078D01*
X978782Y-366110D01*
X977900Y-366121D01*
X977018Y-366110D01*
X976137Y-366078D01*
X975257Y-366024D01*
X974379Y-365948D01*
X973503Y-365851D01*
X972629Y-365732D01*
X971759Y-365592D01*
X970892Y-365431D01*
X970030Y-365248D01*
X969172Y-365044D01*
X968319Y-364820D01*
X967473Y-364574D01*
X966632Y-364308D01*
X965799Y-364021D01*
X964972Y-363714D01*
X964154Y-363387D01*
X963343Y-363039D01*
X962542Y-362672D01*
X961750Y-362286D01*
X960967Y-361879D01*
X960195Y-361454D01*
X959433Y-361010D01*
X958682Y-360548D01*
X957943Y-360067D01*
X957216Y-359568D01*
X956502Y-359052D01*
X955800Y-358518D01*
X955112Y-357967D01*
X954437Y-357400D01*
X953777Y-356816D01*
X953131Y-356216D01*
X952500Y-355600D01*
X951884Y-354969D01*
X951284Y-354323D01*
X950700Y-353663D01*
X950133Y-352988D01*
X949582Y-352300D01*
X949048Y-351598D01*
X948532Y-350884D01*
X948033Y-350157D01*
X947552Y-349418D01*
X947090Y-348667D01*
X946646Y-347905D01*
X946221Y-347133D01*
X945814Y-346350D01*
X945428Y-345558D01*
X945061Y-344757D01*
X944713Y-343946D01*
X944386Y-343128D01*
X944079Y-342301D01*
X943792Y-341468D01*
X943526Y-340627D01*
X943280Y-339781D01*
X943056Y-338928D01*
X942852Y-338070D01*
X942669Y-337208D01*
X942508Y-336341D01*
X942368Y-335471D01*
X942249Y-334597D01*
X942152Y-333721D01*
X942076Y-332843D01*
X942022Y-331963D01*
X941990Y-331082D01*
X941979Y-330200D01*
D20*
X978024Y-333541D02*
X978024Y-336083D01*
X981837Y-336083D01*
X981837Y-333541D01*
X979930Y-334812D02*
X979930Y-336083D01*
X981837Y-332341D02*
X978024Y-332341D01*
X981837Y-329799D01*
X978024Y-329799D01*
X978024Y-326693D02*
X978659Y-326057D01*
X978024Y-326693D02*
X978024Y-327964D01*
X978659Y-328599D01*
X981201Y-328599D01*
X981837Y-327964D01*
X981837Y-326693D01*
X981201Y-326057D01*
X982473Y-324857D02*
X982473Y-322315D01*
X978659Y-321115D02*
X978024Y-320480D01*
X978024Y-319209D01*
X978659Y-318573D01*
X979295Y-318573D01*
X979930Y-319209D01*
X979930Y-319844D01*
X979930Y-319209D02*
X980566Y-318573D01*
X981201Y-318573D01*
X981837Y-319209D01*
X981837Y-320480D01*
X981201Y-321115D01*
D12*
X1384300Y-304800D02*
X1384300Y-266700D01*
X1384300Y-355600D02*
X1384300Y-393700D01*
X1282700Y-393700D01*
X1282700Y-355600D01*
X1282700Y-304800D02*
X1282700Y-266700D01*
X1295400Y-266700D01*
X1371600Y-266700D02*
X1384300Y-266700D01*
X1346200Y-266700D02*
X1320800Y-266700D01*
X1297579Y-330200D02*
X1297590Y-329318D01*
X1297622Y-328437D01*
X1297676Y-327557D01*
X1297752Y-326679D01*
X1297849Y-325803D01*
X1297968Y-324929D01*
X1298108Y-324059D01*
X1298269Y-323192D01*
X1298452Y-322330D01*
X1298656Y-321472D01*
X1298880Y-320619D01*
X1299126Y-319773D01*
X1299392Y-318932D01*
X1299679Y-318099D01*
X1299986Y-317272D01*
X1300313Y-316454D01*
X1300661Y-315643D01*
X1301028Y-314842D01*
X1301414Y-314050D01*
X1301821Y-313267D01*
X1302246Y-312495D01*
X1302690Y-311733D01*
X1303152Y-310982D01*
X1303633Y-310243D01*
X1304132Y-309516D01*
X1304648Y-308802D01*
X1305182Y-308100D01*
X1305733Y-307412D01*
X1306300Y-306737D01*
X1306884Y-306077D01*
X1307484Y-305431D01*
X1308100Y-304800D01*
X1308731Y-304184D01*
X1309377Y-303584D01*
X1310037Y-303000D01*
X1310712Y-302433D01*
X1311400Y-301882D01*
X1312102Y-301348D01*
X1312816Y-300832D01*
X1313543Y-300333D01*
X1314282Y-299852D01*
X1315033Y-299390D01*
X1315795Y-298946D01*
X1316567Y-298521D01*
X1317350Y-298114D01*
X1318142Y-297728D01*
X1318943Y-297361D01*
X1319754Y-297013D01*
X1320572Y-296686D01*
X1321399Y-296379D01*
X1322232Y-296092D01*
X1323073Y-295826D01*
X1323919Y-295580D01*
X1324772Y-295356D01*
X1325630Y-295152D01*
X1326492Y-294969D01*
X1327359Y-294808D01*
X1328229Y-294668D01*
X1329103Y-294549D01*
X1329979Y-294452D01*
X1330857Y-294376D01*
X1331737Y-294322D01*
X1332618Y-294290D01*
X1333500Y-294279D01*
X1334382Y-294290D01*
X1335263Y-294322D01*
X1336143Y-294376D01*
X1337021Y-294452D01*
X1337897Y-294549D01*
X1338771Y-294668D01*
X1339641Y-294808D01*
X1340508Y-294969D01*
X1341370Y-295152D01*
X1342228Y-295356D01*
X1343081Y-295580D01*
X1343927Y-295826D01*
X1344768Y-296092D01*
X1345601Y-296379D01*
X1346428Y-296686D01*
X1347246Y-297013D01*
X1348057Y-297361D01*
X1348858Y-297728D01*
X1349650Y-298114D01*
X1350433Y-298521D01*
X1351205Y-298946D01*
X1351967Y-299390D01*
X1352718Y-299852D01*
X1353457Y-300333D01*
X1354184Y-300832D01*
X1354898Y-301348D01*
X1355600Y-301882D01*
X1356288Y-302433D01*
X1356963Y-303000D01*
X1357623Y-303584D01*
X1358269Y-304184D01*
X1358900Y-304800D01*
X1359516Y-305431D01*
X1360116Y-306077D01*
X1360700Y-306737D01*
X1361267Y-307412D01*
X1361818Y-308100D01*
X1362352Y-308802D01*
X1362868Y-309516D01*
X1363367Y-310243D01*
X1363848Y-310982D01*
X1364310Y-311733D01*
X1364754Y-312495D01*
X1365179Y-313267D01*
X1365586Y-314050D01*
X1365972Y-314842D01*
X1366339Y-315643D01*
X1366687Y-316454D01*
X1367014Y-317272D01*
X1367321Y-318099D01*
X1367608Y-318932D01*
X1367874Y-319773D01*
X1368120Y-320619D01*
X1368344Y-321472D01*
X1368548Y-322330D01*
X1368731Y-323192D01*
X1368892Y-324059D01*
X1369032Y-324929D01*
X1369151Y-325803D01*
X1369248Y-326679D01*
X1369324Y-327557D01*
X1369378Y-328437D01*
X1369410Y-329318D01*
X1369421Y-330200D01*
X1369410Y-331082D01*
X1369378Y-331963D01*
X1369324Y-332843D01*
X1369248Y-333721D01*
X1369151Y-334597D01*
X1369032Y-335471D01*
X1368892Y-336341D01*
X1368731Y-337208D01*
X1368548Y-338070D01*
X1368344Y-338928D01*
X1368120Y-339781D01*
X1367874Y-340627D01*
X1367608Y-341468D01*
X1367321Y-342301D01*
X1367014Y-343128D01*
X1366687Y-343946D01*
X1366339Y-344757D01*
X1365972Y-345558D01*
X1365586Y-346350D01*
X1365179Y-347133D01*
X1364754Y-347905D01*
X1364310Y-348667D01*
X1363848Y-349418D01*
X1363367Y-350157D01*
X1362868Y-350884D01*
X1362352Y-351598D01*
X1361818Y-352300D01*
X1361267Y-352988D01*
X1360700Y-353663D01*
X1360116Y-354323D01*
X1359516Y-354969D01*
X1358900Y-355600D01*
X1358269Y-356216D01*
X1357623Y-356816D01*
X1356963Y-357400D01*
X1356288Y-357967D01*
X1355600Y-358518D01*
X1354898Y-359052D01*
X1354184Y-359568D01*
X1353457Y-360067D01*
X1352718Y-360548D01*
X1351967Y-361010D01*
X1351205Y-361454D01*
X1350433Y-361879D01*
X1349650Y-362286D01*
X1348858Y-362672D01*
X1348057Y-363039D01*
X1347246Y-363387D01*
X1346428Y-363714D01*
X1345601Y-364021D01*
X1344768Y-364308D01*
X1343927Y-364574D01*
X1343081Y-364820D01*
X1342228Y-365044D01*
X1341370Y-365248D01*
X1340508Y-365431D01*
X1339641Y-365592D01*
X1338771Y-365732D01*
X1337897Y-365851D01*
X1337021Y-365948D01*
X1336143Y-366024D01*
X1335263Y-366078D01*
X1334382Y-366110D01*
X1333500Y-366121D01*
X1332618Y-366110D01*
X1331737Y-366078D01*
X1330857Y-366024D01*
X1329979Y-365948D01*
X1329103Y-365851D01*
X1328229Y-365732D01*
X1327359Y-365592D01*
X1326492Y-365431D01*
X1325630Y-365248D01*
X1324772Y-365044D01*
X1323919Y-364820D01*
X1323073Y-364574D01*
X1322232Y-364308D01*
X1321399Y-364021D01*
X1320572Y-363714D01*
X1319754Y-363387D01*
X1318943Y-363039D01*
X1318142Y-362672D01*
X1317350Y-362286D01*
X1316567Y-361879D01*
X1315795Y-361454D01*
X1315033Y-361010D01*
X1314282Y-360548D01*
X1313543Y-360067D01*
X1312816Y-359568D01*
X1312102Y-359052D01*
X1311400Y-358518D01*
X1310712Y-357967D01*
X1310037Y-357400D01*
X1309377Y-356816D01*
X1308731Y-356216D01*
X1308100Y-355600D01*
X1307484Y-354969D01*
X1306884Y-354323D01*
X1306300Y-353663D01*
X1305733Y-352988D01*
X1305182Y-352300D01*
X1304648Y-351598D01*
X1304132Y-350884D01*
X1303633Y-350157D01*
X1303152Y-349418D01*
X1302690Y-348667D01*
X1302246Y-347905D01*
X1301821Y-347133D01*
X1301414Y-346350D01*
X1301028Y-345558D01*
X1300661Y-344757D01*
X1300313Y-343946D01*
X1299986Y-343128D01*
X1299679Y-342301D01*
X1299392Y-341468D01*
X1299126Y-340627D01*
X1298880Y-339781D01*
X1298656Y-338928D01*
X1298452Y-338070D01*
X1298269Y-337208D01*
X1298108Y-336341D01*
X1297968Y-335471D01*
X1297849Y-334597D01*
X1297752Y-333721D01*
X1297676Y-332843D01*
X1297622Y-331963D01*
X1297590Y-331082D01*
X1297579Y-330200D01*
D20*
X1333624Y-333541D02*
X1333624Y-336083D01*
X1337437Y-336083D01*
X1337437Y-333541D01*
X1335530Y-334812D02*
X1335530Y-336083D01*
X1337437Y-332341D02*
X1333624Y-332341D01*
X1337437Y-329799D01*
X1333624Y-329799D01*
X1333624Y-326693D02*
X1334259Y-326057D01*
X1333624Y-326693D02*
X1333624Y-327964D01*
X1334259Y-328599D01*
X1336801Y-328599D01*
X1337437Y-327964D01*
X1337437Y-326693D01*
X1336801Y-326057D01*
X1338073Y-324857D02*
X1338073Y-322315D01*
X1337437Y-319209D02*
X1333624Y-319209D01*
X1335530Y-321115D01*
X1335530Y-318573D01*
D13*
X25400Y-368300D02*
X25400Y-393700D01*
X25400Y-368300D02*
X50800Y-381000D01*
X25400Y-393700D01*
D10*
X27940Y-302260D02*
X17780Y-302260D01*
X27940Y-302260D02*
X27940Y-281940D01*
X17780Y-281940D01*
X90170Y-299720D02*
X90170Y-308610D01*
X67310Y-299720D02*
X67124Y-299718D01*
X66939Y-299711D01*
X66754Y-299700D01*
X66569Y-299684D01*
X66384Y-299664D01*
X66201Y-299639D01*
X66017Y-299610D01*
X65835Y-299576D01*
X65653Y-299538D01*
X65473Y-299495D01*
X65293Y-299448D01*
X65115Y-299397D01*
X64938Y-299341D01*
X64762Y-299281D01*
X64588Y-299217D01*
X64415Y-299149D01*
X64245Y-299076D01*
X64076Y-299000D01*
X63909Y-298919D01*
X63744Y-298834D01*
X63581Y-298745D01*
X63420Y-298652D01*
X63262Y-298556D01*
X63106Y-298455D01*
X62952Y-298351D01*
X62801Y-298243D01*
X62653Y-298131D01*
X62507Y-298016D01*
X62365Y-297897D01*
X62225Y-297775D01*
X62088Y-297650D01*
X61955Y-297521D01*
X61824Y-297389D01*
X61697Y-297254D01*
X61573Y-297115D01*
X61453Y-296974D01*
X61336Y-296830D01*
X61223Y-296683D01*
X61113Y-296534D01*
X61007Y-296382D01*
X60904Y-296227D01*
X60806Y-296070D01*
X60711Y-295910D01*
X60620Y-295748D01*
X60533Y-295584D01*
X60450Y-295418D01*
X60372Y-295250D01*
X60297Y-295080D01*
X60226Y-294909D01*
X60160Y-294735D01*
X60098Y-294560D01*
X60040Y-294384D01*
X59987Y-294206D01*
X59938Y-294027D01*
X59893Y-293847D01*
X59853Y-293666D01*
X59817Y-293484D01*
X59785Y-293301D01*
X59758Y-293118D01*
X59736Y-292933D01*
X59718Y-292749D01*
X59704Y-292564D01*
X59695Y-292378D01*
X59691Y-292193D01*
X59691Y-292007D01*
X59695Y-291822D01*
X59704Y-291636D01*
X59718Y-291451D01*
X59736Y-291267D01*
X59758Y-291082D01*
X59785Y-290899D01*
X59817Y-290716D01*
X59853Y-290534D01*
X59893Y-290353D01*
X59938Y-290173D01*
X59987Y-289994D01*
X60040Y-289816D01*
X60098Y-289640D01*
X60160Y-289465D01*
X60226Y-289291D01*
X60297Y-289120D01*
X60372Y-288950D01*
X60450Y-288782D01*
X60533Y-288616D01*
X60620Y-288452D01*
X60711Y-288290D01*
X60806Y-288130D01*
X60904Y-287973D01*
X61007Y-287818D01*
X61113Y-287666D01*
X61223Y-287517D01*
X61336Y-287370D01*
X61453Y-287226D01*
X61573Y-287085D01*
X61697Y-286946D01*
X61824Y-286811D01*
X61955Y-286679D01*
X62088Y-286550D01*
X62225Y-286425D01*
X62365Y-286303D01*
X62507Y-286184D01*
X62653Y-286069D01*
X62801Y-285957D01*
X62952Y-285849D01*
X63106Y-285745D01*
X63262Y-285644D01*
X63420Y-285548D01*
X63581Y-285455D01*
X63744Y-285366D01*
X63909Y-285281D01*
X64076Y-285200D01*
X64245Y-285124D01*
X64415Y-285051D01*
X64588Y-284983D01*
X64762Y-284919D01*
X64938Y-284859D01*
X65115Y-284803D01*
X65293Y-284752D01*
X65473Y-284705D01*
X65653Y-284662D01*
X65835Y-284624D01*
X66017Y-284590D01*
X66201Y-284561D01*
X66384Y-284536D01*
X66569Y-284516D01*
X66754Y-284500D01*
X66939Y-284489D01*
X67124Y-284482D01*
X67310Y-284480D01*
X82550Y-284480D01*
X90170Y-284480D02*
X90170Y-270510D01*
X82550Y-351790D02*
X17780Y-351790D01*
X17780Y-308610D01*
X82550Y-308610D01*
X82550Y-351790D01*
X92710Y-351790D02*
X92710Y-308610D01*
X92710Y-351790D02*
X82550Y-351790D01*
X82550Y-308610D02*
X90170Y-308610D01*
X92710Y-308610D01*
X105410Y-308610D01*
X82550Y-299720D02*
X67310Y-299720D01*
X82550Y-299720D02*
X90170Y-299720D01*
X82550Y-299720D02*
X82550Y-284480D01*
X90170Y-284480D01*
X90170Y-270510D02*
X17780Y-270510D01*
X90170Y-270510D02*
X106680Y-270510D01*
X106680Y-361950D02*
X106680Y-374650D01*
X106680Y-349250D02*
X106680Y-336550D01*
X106680Y-323850D02*
X106680Y-311150D01*
X106680Y-298450D02*
X106680Y-285750D01*
D21*
X26670Y-330200D02*
X24130Y-330200D01*
D10*
X82550Y-262890D02*
X82550Y-234950D01*
X44450Y-234950D01*
X44450Y-262890D01*
X82550Y-262890D01*
X17780Y-228600D02*
X17780Y-308610D01*
X17780Y-228600D02*
X106680Y-228600D01*
X106680Y-240030D01*
X17780Y-351790D02*
X17780Y-431800D01*
X106680Y-431800D01*
X106680Y-420370D01*
X106680Y-273050D02*
X106680Y-270510D01*
X106680Y-250190D02*
X113030Y-250190D01*
X113030Y-240030D01*
X106680Y-240030D01*
X106680Y-250190D02*
X106680Y-270510D01*
X106680Y-250190D02*
X106680Y-240030D01*
X106680Y-420370D02*
X113030Y-420370D01*
X106680Y-420370D02*
X106680Y-410210D01*
X113030Y-410210D02*
X113030Y-420370D01*
X113030Y-410210D02*
X106680Y-410210D01*
X106680Y-387350D01*
D12*
X131689Y-397380D02*
X135503Y-401193D01*
X131689Y-397380D02*
X143129Y-397380D01*
X143129Y-401193D02*
X143129Y-393567D01*
X122809Y-393821D02*
X122809Y-401447D01*
X115183Y-393821D01*
X113276Y-393821D01*
X111369Y-395727D01*
X111369Y-399540D01*
X113276Y-401447D01*
D10*
X48896Y-246626D02*
X53472Y-242050D01*
X53472Y-255778D01*
X48896Y-255778D02*
X58048Y-255778D01*
X62929Y-253490D02*
X62929Y-244338D01*
X65217Y-242050D01*
X69793Y-242050D01*
X72081Y-244338D01*
X72081Y-253490D01*
X69793Y-255778D01*
X65217Y-255778D01*
X62929Y-253490D01*
X72081Y-244338D01*
D22*
X53340Y-330200D03*
D23*
X27940Y-381000D03*
D24*
X33020Y-381000D03*
D25*
X38100Y-381000D03*
D26*
X43180Y-381000D03*
D27*
X46990Y-381000D03*
D28*
X127000Y-381000D03*
X127000Y-355600D03*
X127000Y-330200D03*
X127000Y-304800D03*
X127000Y-279400D03*
D19*
X-4205Y-420488D02*
X-4205Y-431165D01*
X11811Y-431165D01*
X11811Y-420488D01*
X3803Y-425826D02*
X3803Y-431165D01*
X11811Y-414793D02*
X-4205Y-414793D01*
X11811Y-404116D01*
X-4205Y-404116D01*
X-4205Y-390414D02*
X-1535Y-387745D01*
X-4205Y-390414D02*
X-4205Y-395753D01*
X-1535Y-398422D01*
X9142Y-398422D01*
X11811Y-395753D01*
X11811Y-390414D01*
X9142Y-387745D01*
X14480Y-382050D02*
X14480Y-371373D01*
X-1535Y-355002D02*
X-4205Y-357671D01*
X-4205Y-363009D01*
X-1535Y-365679D01*
X1134Y-365679D01*
X3803Y-363009D01*
X3803Y-357671D01*
X6472Y-355002D01*
X9142Y-355002D01*
X11811Y-357671D01*
X11811Y-363009D01*
X9142Y-365679D01*
X-4205Y-346638D02*
X-4205Y-341299D01*
X-4205Y-346638D02*
X-1535Y-349307D01*
X9142Y-349307D01*
X11811Y-346638D01*
X11811Y-341299D01*
X9142Y-338630D01*
X-1535Y-338630D01*
X-4205Y-341299D01*
X-4205Y-324928D02*
X-1535Y-322259D01*
X-4205Y-324928D02*
X-4205Y-330266D01*
X-1535Y-332936D01*
X9142Y-332936D01*
X11811Y-330266D01*
X11811Y-324928D01*
X9142Y-322259D01*
X11811Y-316564D02*
X-4205Y-316564D01*
X11811Y-316564D02*
X11811Y-305887D01*
X-4205Y-300193D02*
X-4205Y-289515D01*
X-4205Y-300193D02*
X11811Y-300193D01*
X11811Y-289515D01*
X3803Y-294854D02*
X3803Y-300193D01*
D10*
X800100Y63500D02*
X977900Y63500D01*
X977900Y0D01*
X800100Y0D02*
X800100Y63500D01*
X800100Y76200D02*
X787400Y76200D01*
X943610Y-12700D02*
X990600Y-12700D01*
X990600Y76200D01*
X787400Y76200D02*
X787400Y-12700D01*
X934720Y0D02*
X977900Y0D01*
X909320Y7620D02*
X868680Y7620D01*
X868680Y0D01*
X800100Y0D01*
X868680Y0D02*
X868680Y-2540D01*
X909320Y0D02*
X909320Y7620D01*
X909320Y0D02*
X909320Y-2540D01*
X977900Y76200D02*
X977900Y78740D01*
X965200Y78740D01*
X965200Y76200D01*
X977900Y76200D02*
X990600Y76200D01*
X895350Y78740D02*
X882650Y78740D01*
X895350Y78740D02*
X895350Y76200D01*
X965200Y76200D01*
X882650Y76200D02*
X882650Y78740D01*
X812800Y78740D02*
X800100Y78740D01*
X800100Y76200D01*
X812800Y76200D02*
X812800Y78740D01*
X812800Y76200D02*
X882650Y76200D01*
X909320Y-12700D02*
X910590Y-12700D01*
X909320Y-12700D02*
X868680Y-12700D01*
X919480Y-2540D02*
X919480Y0D01*
X909320Y0D01*
X934720Y0D02*
X934720Y-2540D01*
X934720Y0D02*
X919480Y0D01*
X914400Y-7620D02*
X910590Y-12700D01*
X939800Y-7620D02*
X943610Y-12700D01*
X939800Y-7620D02*
X934720Y-7620D01*
D18*
X919480Y-2540D02*
X909320Y-2540D01*
D10*
X909320Y-12700D01*
D18*
X934720Y-2540D02*
X980440Y-2540D01*
X980440Y66040D01*
X797560Y66040D01*
X797560Y-2540D01*
X868680Y-2540D01*
D10*
X868680Y-12700D01*
X919480Y-7620D02*
X919480Y-2540D01*
X919480Y-7620D02*
X914400Y-7620D01*
X934720Y-7620D02*
X934720Y-2540D01*
X934720Y-7620D02*
X919480Y-7620D01*
X868680Y-12700D02*
X844550Y-12700D01*
X844550Y-11430D01*
X831850Y-11430D01*
X831850Y-12700D01*
X787400Y-12700D01*
D12*
X879475Y-629D02*
X883288Y3185D01*
X883288Y-8255D01*
X879475Y-8255D02*
X887102Y-8255D01*
X891169Y-6348D02*
X891169Y1278D01*
X893076Y3185D01*
X896889Y3185D01*
X898795Y1278D01*
X898795Y-6348D01*
X896889Y-8255D01*
X893076Y-8255D01*
X891169Y-6348D01*
X898795Y1278D01*
X817248Y24775D02*
X813435Y20962D01*
X817248Y24775D02*
X817248Y13335D01*
X813435Y13335D02*
X821062Y13335D01*
X821062Y38735D02*
X813435Y38735D01*
X821062Y46362D01*
X821062Y48268D01*
X819155Y50175D01*
X815342Y50175D01*
X813435Y48268D01*
D19*
X832438Y84709D02*
X832438Y100725D01*
X840446Y100725D01*
X843115Y98055D01*
X843115Y95386D01*
X840446Y92717D01*
X843115Y90048D01*
X843115Y87378D01*
X840446Y84709D01*
X832438Y84709D01*
X832438Y92717D02*
X840446Y92717D01*
X848809Y87378D02*
X848809Y100725D01*
X848809Y87378D02*
X851479Y84709D01*
X856817Y84709D01*
X859487Y87378D01*
X859487Y100725D01*
X870520Y100725D02*
X870520Y84709D01*
X865181Y100725D02*
X875858Y100725D01*
X886891Y100725D02*
X886891Y84709D01*
X881553Y100725D02*
X892230Y100725D01*
X900593Y100725D02*
X905932Y100725D01*
X900593Y100725D02*
X897924Y98055D01*
X897924Y87378D01*
X900593Y84709D01*
X905932Y84709D01*
X908601Y87378D01*
X908601Y98055D01*
X905932Y100725D01*
X914296Y100725D02*
X914296Y84709D01*
X924973Y84709D02*
X914296Y100725D01*
X924973Y100725D02*
X924973Y84709D01*
X938675Y100725D02*
X941344Y98055D01*
X938675Y100725D02*
X933337Y100725D01*
X930667Y98055D01*
X930667Y95386D01*
X933337Y92717D01*
X938675Y92717D01*
X941344Y90048D01*
X941344Y87378D01*
X938675Y84709D01*
X933337Y84709D01*
X930667Y87378D01*
D10*
X1104900Y63500D02*
X1282700Y63500D01*
X1282700Y0D01*
X1104900Y0D02*
X1104900Y63500D01*
X1104900Y76200D02*
X1092200Y76200D01*
X1248410Y-12700D02*
X1295400Y-12700D01*
X1295400Y76200D01*
X1092200Y76200D02*
X1092200Y-12700D01*
X1239520Y0D02*
X1282700Y0D01*
X1214120Y7620D02*
X1173480Y7620D01*
X1173480Y0D01*
X1104900Y0D01*
X1173480Y0D02*
X1173480Y-2540D01*
X1214120Y0D02*
X1214120Y7620D01*
X1214120Y0D02*
X1214120Y-2540D01*
X1282700Y76200D02*
X1282700Y78740D01*
X1270000Y78740D01*
X1270000Y76200D01*
X1282700Y76200D02*
X1295400Y76200D01*
X1200150Y78740D02*
X1187450Y78740D01*
X1200150Y78740D02*
X1200150Y76200D01*
X1270000Y76200D01*
X1187450Y76200D02*
X1187450Y78740D01*
X1117600Y78740D02*
X1104900Y78740D01*
X1104900Y76200D01*
X1117600Y76200D02*
X1117600Y78740D01*
X1117600Y76200D02*
X1187450Y76200D01*
X1214120Y-12700D02*
X1215390Y-12700D01*
X1214120Y-12700D02*
X1173480Y-12700D01*
X1224280Y-2540D02*
X1224280Y0D01*
X1214120Y0D01*
X1239520Y0D02*
X1239520Y-2540D01*
X1239520Y0D02*
X1224280Y0D01*
X1219200Y-7620D02*
X1215390Y-12700D01*
X1244600Y-7620D02*
X1248410Y-12700D01*
X1244600Y-7620D02*
X1239520Y-7620D01*
D18*
X1224280Y-2540D02*
X1214120Y-2540D01*
D10*
X1214120Y-12700D01*
D18*
X1239520Y-2540D02*
X1285240Y-2540D01*
X1285240Y66040D01*
X1102360Y66040D01*
X1102360Y-2540D01*
X1173480Y-2540D01*
D10*
X1173480Y-12700D01*
X1224280Y-7620D02*
X1224280Y-2540D01*
X1224280Y-7620D02*
X1219200Y-7620D01*
X1239520Y-7620D02*
X1239520Y-2540D01*
X1239520Y-7620D02*
X1224280Y-7620D01*
X1173480Y-12700D02*
X1149350Y-12700D01*
X1149350Y-11430D01*
X1136650Y-11430D01*
X1136650Y-12700D01*
X1092200Y-12700D01*
D12*
X1184275Y-629D02*
X1188088Y3185D01*
X1188088Y-8255D01*
X1184275Y-8255D02*
X1191902Y-8255D01*
X1195969Y-6348D02*
X1195969Y1278D01*
X1197876Y3185D01*
X1201689Y3185D01*
X1203595Y1278D01*
X1203595Y-6348D01*
X1201689Y-8255D01*
X1197876Y-8255D01*
X1195969Y-6348D01*
X1203595Y1278D01*
X1122048Y24775D02*
X1118235Y20962D01*
X1122048Y24775D02*
X1122048Y13335D01*
X1118235Y13335D02*
X1125862Y13335D01*
X1125862Y38735D02*
X1118235Y38735D01*
X1125862Y46362D01*
X1125862Y48268D01*
X1123955Y50175D01*
X1120142Y50175D01*
X1118235Y48268D01*
D19*
X1170974Y84709D02*
X1170974Y100725D01*
X1170974Y84709D02*
X1181651Y84709D01*
X1195354Y100725D02*
X1198023Y98055D01*
X1195354Y100725D02*
X1190015Y100725D01*
X1187346Y98055D01*
X1187346Y87378D01*
X1190015Y84709D01*
X1195354Y84709D01*
X1198023Y87378D01*
X1203717Y84709D02*
X1203717Y100725D01*
X1203717Y84709D02*
X1211725Y84709D01*
X1214395Y87378D01*
X1214395Y98055D01*
X1211725Y100725D01*
X1203717Y100725D01*
D29*
X336300Y990150D02*
X323300Y990150D01*
X336300Y990150D02*
X400300Y990150D01*
X413300Y990150D01*
X408300Y955150D02*
X323300Y955150D01*
X408300Y955150D02*
X413300Y955150D01*
X408300Y955150D02*
X408300Y870150D01*
X413300Y870150D01*
X413300Y990150D01*
X408300Y870150D02*
X408300Y855150D01*
X408300Y850150D01*
X400300Y900150D02*
X400300Y990150D01*
X336300Y990150D02*
X336300Y900150D01*
X400300Y900150D01*
X380800Y970150D02*
X380796Y970454D01*
X380785Y970759D01*
X380767Y971062D01*
X380741Y971366D01*
X380707Y971668D01*
X380667Y971970D01*
X380619Y972271D01*
X380564Y972570D01*
X380501Y972868D01*
X380431Y973164D01*
X380354Y973459D01*
X380270Y973751D01*
X380179Y974042D01*
X380080Y974330D01*
X379975Y974615D01*
X379863Y974898D01*
X379744Y975179D01*
X379618Y975456D01*
X379486Y975730D01*
X379346Y976000D01*
X379201Y976268D01*
X379048Y976531D01*
X378890Y976791D01*
X378725Y977047D01*
X378554Y977299D01*
X378377Y977546D01*
X378194Y977790D01*
X378005Y978028D01*
X377810Y978262D01*
X377610Y978491D01*
X377404Y978716D01*
X377192Y978935D01*
X376976Y979149D01*
X376754Y979357D01*
X376528Y979561D01*
X376296Y979758D01*
X376060Y979950D01*
X375819Y980136D01*
X375573Y980316D01*
X375324Y980490D01*
X375070Y980658D01*
X374812Y980820D01*
X374550Y980975D01*
X374285Y981124D01*
X374016Y981267D01*
X373743Y981403D01*
X373468Y981532D01*
X373189Y981654D01*
X372907Y981770D01*
X372623Y981879D01*
X372336Y981980D01*
X372047Y982075D01*
X371755Y982163D01*
X371462Y982244D01*
X371166Y982317D01*
X370869Y982383D01*
X370570Y982442D01*
X370270Y982494D01*
X369969Y982538D01*
X369667Y982575D01*
X369364Y982605D01*
X369061Y982627D01*
X368757Y982642D01*
X368452Y982649D01*
X368148Y982649D01*
X367843Y982642D01*
X367539Y982627D01*
X367236Y982605D01*
X366933Y982575D01*
X366631Y982538D01*
X366330Y982494D01*
X366030Y982442D01*
X365731Y982383D01*
X365434Y982317D01*
X365138Y982244D01*
X364845Y982163D01*
X364553Y982075D01*
X364264Y981980D01*
X363977Y981879D01*
X363693Y981770D01*
X363411Y981654D01*
X363132Y981532D01*
X362857Y981403D01*
X362584Y981267D01*
X362315Y981124D01*
X362050Y980975D01*
X361788Y980820D01*
X361530Y980658D01*
X361276Y980490D01*
X361027Y980316D01*
X360781Y980136D01*
X360540Y979950D01*
X360304Y979758D01*
X360072Y979561D01*
X359846Y979357D01*
X359624Y979149D01*
X359408Y978935D01*
X359196Y978716D01*
X358990Y978491D01*
X358790Y978262D01*
X358595Y978028D01*
X358406Y977790D01*
X358223Y977546D01*
X358046Y977299D01*
X357875Y977047D01*
X357710Y976791D01*
X357552Y976531D01*
X357399Y976268D01*
X357254Y976000D01*
X357114Y975730D01*
X356982Y975456D01*
X356856Y975179D01*
X356737Y974898D01*
X356625Y974615D01*
X356520Y974330D01*
X356421Y974042D01*
X356330Y973751D01*
X356246Y973459D01*
X356169Y973164D01*
X356099Y972868D01*
X356036Y972570D01*
X355981Y972271D01*
X355933Y971970D01*
X355893Y971668D01*
X355859Y971366D01*
X355833Y971062D01*
X355815Y970759D01*
X355804Y970454D01*
X355800Y970150D01*
X391800Y855150D02*
X408300Y855150D01*
X344800Y855150D02*
X328300Y855150D01*
X328300Y850150D02*
X344800Y850150D01*
X391800Y850150D02*
X408300Y850150D01*
X328300Y850150D02*
X328300Y855150D01*
X323300Y908250D02*
X323300Y990150D01*
X341000Y870150D02*
X408300Y870150D01*
D17*
X337058Y844052D02*
X337058Y832358D01*
X337058Y844052D02*
X342905Y844052D01*
X344854Y842103D01*
X344854Y838205D01*
X342905Y836256D01*
X337058Y836256D01*
X350701Y844052D02*
X354599Y844052D01*
X350701Y844052D02*
X348752Y842103D01*
X348752Y834307D01*
X350701Y832358D01*
X354599Y832358D01*
X356548Y834307D01*
X356548Y842103D01*
X354599Y844052D01*
X360446Y844052D02*
X360446Y832358D01*
X364344Y836256D01*
X368242Y832358D01*
X368242Y844052D01*
X372140Y844052D02*
X379936Y844052D01*
X372140Y844052D02*
X372140Y832358D01*
X379936Y832358D01*
X376038Y838205D02*
X372140Y838205D01*
X383834Y832358D02*
X383834Y844052D01*
X389681Y844052D01*
X391630Y842103D01*
X391630Y838205D01*
X389681Y836256D01*
X383834Y836256D01*
X387732Y836256D02*
X391630Y832358D01*
D10*
X368300Y377190D02*
X368300Y264160D01*
X361950Y383540D02*
X273050Y383540D01*
X361950Y383540D02*
X362108Y383538D01*
X362267Y383532D01*
X362425Y383522D01*
X362582Y383508D01*
X362740Y383491D01*
X362896Y383469D01*
X363053Y383444D01*
X363208Y383414D01*
X363363Y383381D01*
X363517Y383344D01*
X363670Y383303D01*
X363822Y383258D01*
X363972Y383209D01*
X364122Y383157D01*
X364270Y383101D01*
X364417Y383041D01*
X364562Y382978D01*
X364705Y382911D01*
X364847Y382841D01*
X364987Y382767D01*
X365125Y382689D01*
X365261Y382608D01*
X365395Y382524D01*
X365527Y382437D01*
X365657Y382346D01*
X365784Y382252D01*
X365909Y382155D01*
X366032Y382054D01*
X366152Y381951D01*
X366269Y381845D01*
X366384Y381736D01*
X366496Y381624D01*
X366605Y381509D01*
X366711Y381392D01*
X366814Y381272D01*
X366915Y381149D01*
X367012Y381024D01*
X367106Y380897D01*
X367197Y380767D01*
X367284Y380635D01*
X367368Y380501D01*
X367449Y380365D01*
X367527Y380227D01*
X367601Y380087D01*
X367671Y379945D01*
X367738Y379802D01*
X367801Y379657D01*
X367861Y379510D01*
X367917Y379362D01*
X367969Y379212D01*
X368018Y379062D01*
X368063Y378910D01*
X368104Y378757D01*
X368141Y378603D01*
X368174Y378448D01*
X368204Y378293D01*
X368229Y378136D01*
X368251Y377980D01*
X368268Y377822D01*
X368282Y377665D01*
X368292Y377507D01*
X368298Y377348D01*
X368300Y377190D01*
X273050Y383540D02*
X272892Y383538D01*
X272733Y383532D01*
X272575Y383522D01*
X272418Y383508D01*
X272260Y383491D01*
X272104Y383469D01*
X271947Y383444D01*
X271792Y383414D01*
X271637Y383381D01*
X271483Y383344D01*
X271330Y383303D01*
X271178Y383258D01*
X271028Y383209D01*
X270878Y383157D01*
X270730Y383101D01*
X270583Y383041D01*
X270438Y382978D01*
X270295Y382911D01*
X270153Y382841D01*
X270013Y382767D01*
X269875Y382689D01*
X269739Y382608D01*
X269605Y382524D01*
X269473Y382437D01*
X269343Y382346D01*
X269216Y382252D01*
X269091Y382155D01*
X268968Y382054D01*
X268848Y381951D01*
X268731Y381845D01*
X268616Y381736D01*
X268504Y381624D01*
X268395Y381509D01*
X268289Y381392D01*
X268186Y381272D01*
X268085Y381149D01*
X267988Y381024D01*
X267894Y380897D01*
X267803Y380767D01*
X267716Y380635D01*
X267632Y380501D01*
X267551Y380365D01*
X267473Y380227D01*
X267399Y380087D01*
X267329Y379945D01*
X267262Y379802D01*
X267199Y379657D01*
X267139Y379510D01*
X267083Y379362D01*
X267031Y379212D01*
X266982Y379062D01*
X266937Y378910D01*
X266896Y378757D01*
X266859Y378603D01*
X266826Y378448D01*
X266796Y378293D01*
X266771Y378136D01*
X266749Y377980D01*
X266732Y377822D01*
X266718Y377665D01*
X266708Y377507D01*
X266702Y377348D01*
X266700Y377190D01*
D30*
X304800Y387350D02*
X304800Y393700D01*
X330200Y393700D02*
X330200Y387350D01*
D10*
X266700Y377190D02*
X266700Y264160D01*
X335280Y350520D02*
X335280Y358140D01*
X339090Y354330D02*
X331470Y354330D01*
X330200Y364490D02*
X322580Y364490D01*
X322580Y373380D01*
X319278Y373380D01*
X319278Y355600D01*
X322580Y355600D01*
X322580Y364490D01*
X312420Y364490D02*
X304800Y364490D01*
X266700Y264160D02*
X266715Y262923D01*
X266760Y261687D01*
X266836Y260452D01*
X266941Y259219D01*
X267076Y257990D01*
X267241Y256763D01*
X267436Y255542D01*
X267661Y254325D01*
X267915Y253115D01*
X268199Y251910D01*
X268512Y250713D01*
X268854Y249525D01*
X269225Y248344D01*
X269624Y247173D01*
X270052Y246013D01*
X270508Y244863D01*
X270992Y243724D01*
X271503Y242598D01*
X272042Y241484D01*
X272608Y240384D01*
X273200Y239298D01*
X273818Y238226D01*
X274463Y237170D01*
X275133Y236130D01*
X275828Y235107D01*
X276548Y234101D01*
X277292Y233112D01*
X278060Y232142D01*
X278851Y231192D01*
X279666Y230260D01*
X280502Y229349D01*
X281361Y228458D01*
X282241Y227589D01*
X283142Y226741D01*
X284063Y225916D01*
X285005Y225113D01*
X285965Y224333D01*
X286944Y223577D01*
X287942Y222845D01*
X288956Y222137D01*
X289988Y221455D01*
X291036Y220797D01*
X292100Y220166D01*
X293179Y219560D01*
X294272Y218981D01*
X295379Y218429D01*
X296499Y217904D01*
X297632Y217406D01*
X298776Y216936D01*
X299932Y216495D01*
X301098Y216081D01*
X302273Y215696D01*
X303458Y215339D01*
X304651Y215012D01*
X305852Y214714D01*
X307059Y214445D01*
X308273Y214205D01*
X309492Y213995D01*
X310716Y213815D01*
X311944Y213665D01*
X313175Y213544D01*
X314409Y213454D01*
X315645Y213394D01*
X316881Y213364D01*
X318119Y213364D01*
X319355Y213394D01*
X320591Y213454D01*
X321825Y213544D01*
X323056Y213665D01*
X324284Y213815D01*
X325508Y213995D01*
X326727Y214205D01*
X327941Y214445D01*
X329148Y214714D01*
X330349Y215012D01*
X331542Y215339D01*
X332727Y215696D01*
X333902Y216081D01*
X335068Y216495D01*
X336224Y216936D01*
X337368Y217406D01*
X338501Y217904D01*
X339621Y218429D01*
X340728Y218981D01*
X341821Y219560D01*
X342900Y220166D01*
X343964Y220797D01*
X345012Y221455D01*
X346044Y222137D01*
X347058Y222845D01*
X348056Y223577D01*
X349035Y224333D01*
X349995Y225113D01*
X350937Y225916D01*
X351858Y226741D01*
X352759Y227589D01*
X353639Y228458D01*
X354498Y229349D01*
X355334Y230260D01*
X356149Y231192D01*
X356940Y232142D01*
X357708Y233112D01*
X358452Y234101D01*
X359172Y235107D01*
X359867Y236130D01*
X360537Y237170D01*
X361182Y238226D01*
X361800Y239298D01*
X362392Y240384D01*
X362958Y241484D01*
X363497Y242598D01*
X364008Y243724D01*
X364492Y244863D01*
X364948Y246013D01*
X365376Y247173D01*
X365775Y248344D01*
X366146Y249525D01*
X366488Y250713D01*
X366801Y251910D01*
X367085Y253115D01*
X367339Y254325D01*
X367564Y255542D01*
X367759Y256763D01*
X367924Y257990D01*
X368059Y259219D01*
X368164Y260452D01*
X368240Y261687D01*
X368285Y262923D01*
X368300Y264160D01*
D31*
X330200Y385445D03*
X304800Y385445D03*
D32*
X314071Y364490D03*
D12*
X283845Y358250D02*
X272405Y358250D01*
X272405Y354437D02*
X272405Y362064D01*
X272405Y369944D02*
X283845Y369944D01*
X272405Y366131D02*
X272405Y373758D01*
X372735Y306817D02*
X374642Y308724D01*
X372735Y306817D02*
X372735Y303004D01*
X374642Y301097D01*
X382268Y301097D01*
X384175Y303004D01*
X384175Y306817D01*
X382268Y308724D01*
X374642Y312791D02*
X372735Y314698D01*
X372735Y318511D01*
X374642Y320418D01*
X376549Y320418D01*
X378455Y318511D01*
X378455Y316604D01*
X378455Y318511D02*
X380362Y320418D01*
X382268Y320418D01*
X384175Y318511D01*
X384175Y314698D01*
X382268Y312791D01*
D10*
X299466Y600710D02*
X299471Y601153D01*
X299488Y601595D01*
X299515Y602037D01*
X299553Y602478D01*
X299602Y602918D01*
X299661Y603356D01*
X299732Y603793D01*
X299813Y604228D01*
X299904Y604661D01*
X300006Y605092D01*
X300119Y605520D01*
X300243Y605945D01*
X300376Y606367D01*
X300520Y606785D01*
X300674Y607200D01*
X300839Y607611D01*
X301013Y608018D01*
X301197Y608421D01*
X301392Y608818D01*
X301595Y609211D01*
X301809Y609599D01*
X302032Y609981D01*
X302264Y610358D01*
X302505Y610729D01*
X302756Y611094D01*
X303015Y611453D01*
X303283Y611805D01*
X303560Y612151D01*
X303844Y612489D01*
X304138Y612821D01*
X304439Y613145D01*
X304748Y613462D01*
X305065Y613771D01*
X305389Y614072D01*
X305721Y614366D01*
X306059Y614650D01*
X306405Y614927D01*
X306757Y615195D01*
X307116Y615454D01*
X307481Y615705D01*
X307852Y615946D01*
X308229Y616178D01*
X308611Y616401D01*
X308999Y616615D01*
X309392Y616818D01*
X309789Y617013D01*
X310192Y617197D01*
X310599Y617371D01*
X311010Y617536D01*
X311425Y617690D01*
X311843Y617834D01*
X312265Y617967D01*
X312690Y618091D01*
X313118Y618204D01*
X313549Y618306D01*
X313982Y618397D01*
X314417Y618478D01*
X314854Y618549D01*
X315292Y618608D01*
X315732Y618657D01*
X316173Y618695D01*
X316615Y618722D01*
X317057Y618739D01*
X317500Y618744D01*
X317943Y618739D01*
X318385Y618722D01*
X318827Y618695D01*
X319268Y618657D01*
X319708Y618608D01*
X320146Y618549D01*
X320583Y618478D01*
X321018Y618397D01*
X321451Y618306D01*
X321882Y618204D01*
X322310Y618091D01*
X322735Y617967D01*
X323157Y617834D01*
X323575Y617690D01*
X323990Y617536D01*
X324401Y617371D01*
X324808Y617197D01*
X325211Y617013D01*
X325608Y616818D01*
X326001Y616615D01*
X326389Y616401D01*
X326771Y616178D01*
X327148Y615946D01*
X327519Y615705D01*
X327884Y615454D01*
X328243Y615195D01*
X328595Y614927D01*
X328941Y614650D01*
X329279Y614366D01*
X329611Y614072D01*
X329935Y613771D01*
X330252Y613462D01*
X330561Y613145D01*
X330862Y612821D01*
X331156Y612489D01*
X331440Y612151D01*
X331717Y611805D01*
X331985Y611453D01*
X332244Y611094D01*
X332495Y610729D01*
X332736Y610358D01*
X332968Y609981D01*
X333191Y609599D01*
X333405Y609211D01*
X333608Y608818D01*
X333803Y608421D01*
X333987Y608018D01*
X334161Y607611D01*
X334326Y607200D01*
X334480Y606785D01*
X334624Y606367D01*
X334757Y605945D01*
X334881Y605520D01*
X334994Y605092D01*
X335096Y604661D01*
X335187Y604228D01*
X335268Y603793D01*
X335339Y603356D01*
X335398Y602918D01*
X335447Y602478D01*
X335485Y602037D01*
X335512Y601595D01*
X335529Y601153D01*
X335534Y600710D01*
X335529Y600267D01*
X335512Y599825D01*
X335485Y599383D01*
X335447Y598942D01*
X335398Y598502D01*
X335339Y598064D01*
X335268Y597627D01*
X335187Y597192D01*
X335096Y596759D01*
X334994Y596328D01*
X334881Y595900D01*
X334757Y595475D01*
X334624Y595053D01*
X334480Y594635D01*
X334326Y594220D01*
X334161Y593809D01*
X333987Y593402D01*
X333803Y592999D01*
X333608Y592602D01*
X333405Y592209D01*
X333191Y591821D01*
X332968Y591439D01*
X332736Y591062D01*
X332495Y590691D01*
X332244Y590326D01*
X331985Y589967D01*
X331717Y589615D01*
X331440Y589269D01*
X331156Y588931D01*
X330862Y588599D01*
X330561Y588275D01*
X330252Y587958D01*
X329935Y587649D01*
X329611Y587348D01*
X329279Y587054D01*
X328941Y586770D01*
X328595Y586493D01*
X328243Y586225D01*
X327884Y585966D01*
X327519Y585715D01*
X327148Y585474D01*
X326771Y585242D01*
X326389Y585019D01*
X326001Y584805D01*
X325608Y584602D01*
X325211Y584407D01*
X324808Y584223D01*
X324401Y584049D01*
X323990Y583884D01*
X323575Y583730D01*
X323157Y583586D01*
X322735Y583453D01*
X322310Y583329D01*
X321882Y583216D01*
X321451Y583114D01*
X321018Y583023D01*
X320583Y582942D01*
X320146Y582871D01*
X319708Y582812D01*
X319268Y582763D01*
X318827Y582725D01*
X318385Y582698D01*
X317943Y582681D01*
X317500Y582676D01*
X317057Y582681D01*
X316615Y582698D01*
X316173Y582725D01*
X315732Y582763D01*
X315292Y582812D01*
X314854Y582871D01*
X314417Y582942D01*
X313982Y583023D01*
X313549Y583114D01*
X313118Y583216D01*
X312690Y583329D01*
X312265Y583453D01*
X311843Y583586D01*
X311425Y583730D01*
X311010Y583884D01*
X310599Y584049D01*
X310192Y584223D01*
X309789Y584407D01*
X309392Y584602D01*
X308999Y584805D01*
X308611Y585019D01*
X308229Y585242D01*
X307852Y585474D01*
X307481Y585715D01*
X307116Y585966D01*
X306757Y586225D01*
X306405Y586493D01*
X306059Y586770D01*
X305721Y587054D01*
X305389Y587348D01*
X305065Y587649D01*
X304748Y587958D01*
X304439Y588275D01*
X304138Y588599D01*
X303844Y588931D01*
X303560Y589269D01*
X303283Y589615D01*
X303015Y589967D01*
X302756Y590326D01*
X302505Y590691D01*
X302264Y591062D01*
X302032Y591439D01*
X301809Y591821D01*
X301595Y592209D01*
X301392Y592602D01*
X301197Y592999D01*
X301013Y593402D01*
X300839Y593809D01*
X300674Y594220D01*
X300520Y594635D01*
X300376Y595053D01*
X300243Y595475D01*
X300119Y595900D01*
X300006Y596328D01*
X299904Y596759D01*
X299813Y597192D01*
X299732Y597627D01*
X299661Y598064D01*
X299602Y598502D01*
X299553Y598942D01*
X299515Y599383D01*
X299488Y599825D01*
X299471Y600267D01*
X299466Y600710D01*
X265430Y476250D02*
X369570Y476250D01*
X369570Y635000D02*
X265430Y635000D01*
X369570Y600710D02*
X369570Y476250D01*
X369570Y600710D02*
X360680Y600710D01*
X360680Y615950D01*
X369570Y615950D01*
X369570Y635000D01*
X265430Y600710D02*
X265430Y476250D01*
X265430Y600710D02*
X274320Y600710D01*
X274320Y615950D01*
X265430Y615950D01*
X265430Y635000D01*
D18*
X271780Y482600D02*
X363220Y482600D01*
X363220Y565150D01*
X271780Y565150D01*
X271780Y482600D01*
D33*
X342900Y445135D03*
X317500Y445135D03*
X292100Y445135D03*
D34*
X292100Y462280D03*
X317500Y462280D03*
X342900Y462280D03*
D19*
X304200Y639699D02*
X298861Y639699D01*
X301531Y639699D02*
X301531Y655715D01*
X304200Y655715D02*
X298861Y655715D01*
X317784Y655715D02*
X320453Y653045D01*
X317784Y655715D02*
X312445Y655715D01*
X309776Y653045D01*
X309776Y642368D01*
X312445Y639699D01*
X317784Y639699D01*
X320453Y642368D01*
X326147Y650376D02*
X331486Y655715D01*
X331486Y639699D01*
X326147Y639699D02*
X336825Y639699D01*
D12*
X1055300Y990600D02*
X1281500Y990600D01*
X1055300Y990600D02*
X1055300Y780600D01*
X1128700Y780600D01*
X1208700Y780600D01*
X1281500Y780600D01*
X1281500Y990600D01*
X1168700Y983300D02*
X1168700Y750600D01*
X1198700Y750600D01*
X1168700Y750600D02*
X1138700Y750600D01*
X1198700Y750600D02*
X1208700Y780600D01*
X1138700Y750600D02*
X1128700Y780600D01*
D10*
X1152824Y740932D02*
X1158247Y740932D01*
X1152824Y740932D02*
X1150112Y738220D01*
X1150112Y727374D01*
X1152824Y724662D01*
X1158247Y724662D01*
X1160959Y727374D01*
X1160959Y738220D01*
X1158247Y740932D01*
X1166484Y740932D02*
X1166484Y727374D01*
X1169195Y724662D01*
X1174619Y724662D01*
X1177330Y727374D01*
X1177330Y740932D01*
X1188278Y740932D02*
X1188278Y724662D01*
X1182855Y740932D02*
X1193702Y740932D01*
D11*
X1320800Y819150D02*
X1333500Y819150D01*
X1333500Y895350D02*
X1320800Y895350D01*
D12*
X1290193Y810140D02*
X1290193Y802513D01*
X1290193Y810140D02*
X1294006Y813953D01*
X1297820Y810140D01*
X1297820Y802513D01*
X1297820Y808233D02*
X1290193Y808233D01*
X1301887Y804420D02*
X1301887Y813953D01*
X1301887Y804420D02*
X1303794Y802513D01*
X1307607Y802513D01*
X1309513Y804420D01*
X1309513Y813953D01*
X1313581Y813953D02*
X1313581Y802513D01*
X1319301Y802513D01*
X1321207Y804420D01*
X1321207Y812046D01*
X1319301Y813953D01*
X1313581Y813953D01*
X1325275Y802513D02*
X1329088Y802513D01*
X1327182Y802513D02*
X1327182Y813953D01*
X1329088Y813953D02*
X1325275Y813953D01*
X1334978Y813953D02*
X1338791Y813953D01*
X1334978Y813953D02*
X1333071Y812046D01*
X1333071Y804420D01*
X1334978Y802513D01*
X1338791Y802513D01*
X1340697Y804420D01*
X1340697Y812046D01*
X1338791Y813953D01*
X1344765Y800606D02*
X1352391Y800606D01*
X1356459Y804420D02*
X1358365Y802513D01*
X1360272Y802513D01*
X1362179Y804420D01*
X1362179Y813953D01*
X1364085Y813953D02*
X1360272Y813953D01*
X1368153Y810140D02*
X1368153Y802513D01*
X1368153Y810140D02*
X1371966Y813953D01*
X1375779Y810140D01*
X1375779Y802513D01*
X1375779Y808233D02*
X1368153Y808233D01*
X1385567Y813953D02*
X1387473Y812046D01*
X1385567Y813953D02*
X1381753Y813953D01*
X1379847Y812046D01*
X1379847Y804420D01*
X1381753Y802513D01*
X1385567Y802513D01*
X1387473Y804420D01*
X1391541Y802513D02*
X1391541Y813953D01*
X1399167Y813953D02*
X1391541Y806326D01*
X1393447Y808233D02*
X1399167Y802513D01*
X482600Y817880D02*
X482600Y762000D01*
X533400Y762000D02*
X533400Y817880D01*
X482600Y817880D01*
X520700Y762000D02*
X533400Y762000D01*
X520700Y762000D02*
X495300Y762000D01*
X482600Y762000D01*
X495300Y762000D02*
X495300Y774700D01*
X520700Y774700D01*
X520700Y762000D01*
D10*
X1032510Y789940D02*
X1032610Y789942D01*
X1032709Y789948D01*
X1032809Y789958D01*
X1032907Y789971D01*
X1033006Y789989D01*
X1033103Y790010D01*
X1033199Y790035D01*
X1033295Y790064D01*
X1033389Y790097D01*
X1033482Y790133D01*
X1033573Y790173D01*
X1033663Y790217D01*
X1033751Y790264D01*
X1033837Y790314D01*
X1033921Y790368D01*
X1034003Y790425D01*
X1034082Y790485D01*
X1034160Y790549D01*
X1034234Y790615D01*
X1034306Y790684D01*
X1034375Y790756D01*
X1034441Y790830D01*
X1034505Y790908D01*
X1034565Y790987D01*
X1034622Y791069D01*
X1034676Y791153D01*
X1034726Y791239D01*
X1034773Y791327D01*
X1034817Y791417D01*
X1034857Y791508D01*
X1034893Y791601D01*
X1034926Y791695D01*
X1034955Y791791D01*
X1034980Y791887D01*
X1035001Y791984D01*
X1035019Y792083D01*
X1035032Y792181D01*
X1035042Y792281D01*
X1035048Y792380D01*
X1035050Y792480D01*
X1035050Y807720D02*
X1035048Y807820D01*
X1035042Y807919D01*
X1035032Y808019D01*
X1035019Y808117D01*
X1035001Y808216D01*
X1034980Y808313D01*
X1034955Y808409D01*
X1034926Y808505D01*
X1034893Y808599D01*
X1034857Y808692D01*
X1034817Y808783D01*
X1034773Y808873D01*
X1034726Y808961D01*
X1034676Y809047D01*
X1034622Y809131D01*
X1034565Y809213D01*
X1034505Y809292D01*
X1034441Y809370D01*
X1034375Y809444D01*
X1034306Y809516D01*
X1034234Y809585D01*
X1034160Y809651D01*
X1034082Y809715D01*
X1034003Y809775D01*
X1033921Y809832D01*
X1033837Y809886D01*
X1033751Y809936D01*
X1033663Y809983D01*
X1033573Y810027D01*
X1033482Y810067D01*
X1033389Y810103D01*
X1033295Y810136D01*
X1033199Y810165D01*
X1033103Y810190D01*
X1033006Y810211D01*
X1032907Y810229D01*
X1032809Y810242D01*
X1032709Y810252D01*
X1032610Y810258D01*
X1032510Y810260D01*
X986790Y810260D02*
X986690Y810258D01*
X986591Y810252D01*
X986491Y810242D01*
X986393Y810229D01*
X986294Y810211D01*
X986197Y810190D01*
X986101Y810165D01*
X986005Y810136D01*
X985911Y810103D01*
X985818Y810067D01*
X985727Y810027D01*
X985637Y809983D01*
X985549Y809936D01*
X985463Y809886D01*
X985379Y809832D01*
X985297Y809775D01*
X985218Y809715D01*
X985140Y809651D01*
X985066Y809585D01*
X984994Y809516D01*
X984925Y809444D01*
X984859Y809370D01*
X984795Y809292D01*
X984735Y809213D01*
X984678Y809131D01*
X984624Y809047D01*
X984574Y808961D01*
X984527Y808873D01*
X984483Y808783D01*
X984443Y808692D01*
X984407Y808599D01*
X984374Y808505D01*
X984345Y808409D01*
X984320Y808313D01*
X984299Y808216D01*
X984281Y808117D01*
X984268Y808019D01*
X984258Y807919D01*
X984252Y807820D01*
X984250Y807720D01*
X984250Y792480D02*
X984252Y792380D01*
X984258Y792281D01*
X984268Y792181D01*
X984281Y792083D01*
X984299Y791984D01*
X984320Y791887D01*
X984345Y791791D01*
X984374Y791695D01*
X984407Y791601D01*
X984443Y791508D01*
X984483Y791417D01*
X984527Y791327D01*
X984574Y791239D01*
X984624Y791153D01*
X984678Y791069D01*
X984735Y790987D01*
X984795Y790908D01*
X984859Y790830D01*
X984925Y790756D01*
X984994Y790684D01*
X985066Y790615D01*
X985140Y790549D01*
X985218Y790485D01*
X985297Y790425D01*
X985379Y790368D01*
X985463Y790314D01*
X985549Y790264D01*
X985637Y790217D01*
X985727Y790173D01*
X985818Y790133D01*
X985911Y790097D01*
X986005Y790064D01*
X986101Y790035D01*
X986197Y790010D01*
X986294Y789989D01*
X986393Y789971D01*
X986491Y789958D01*
X986591Y789948D01*
X986690Y789942D01*
X986790Y789940D01*
X1035050Y792480D02*
X1035050Y807720D01*
X1032510Y789940D02*
X1028700Y789940D01*
X1027430Y791210D01*
X1028700Y810260D02*
X1032510Y810260D01*
X1028700Y810260D02*
X1027430Y808990D01*
X991870Y791210D02*
X990600Y789940D01*
X991870Y791210D02*
X1027430Y791210D01*
X991870Y808990D02*
X990600Y810260D01*
X991870Y808990D02*
X1027430Y808990D01*
X990600Y789940D02*
X986790Y789940D01*
X986790Y810260D02*
X990600Y810260D01*
X984250Y807720D02*
X984250Y792480D01*
D16*
X982345Y800100D03*
X1036955Y800100D03*
D17*
X1002075Y786646D02*
X1002075Y777748D01*
X1002075Y786646D02*
X1006524Y786646D01*
X1008007Y785163D01*
X1008007Y782197D01*
X1006524Y780714D01*
X1002075Y780714D01*
X1005041Y780714D02*
X1008007Y777748D01*
X1011197Y783680D02*
X1014163Y786646D01*
X1014163Y777748D01*
X1017128Y777748D02*
X1011197Y777748D01*
D12*
X297420Y184150D02*
X297426Y184643D01*
X297444Y185135D01*
X297474Y185627D01*
X297517Y186118D01*
X297571Y186608D01*
X297637Y187096D01*
X297716Y187583D01*
X297806Y188067D01*
X297908Y188550D01*
X298022Y189029D01*
X298147Y189506D01*
X298285Y189979D01*
X298433Y190449D01*
X298594Y190915D01*
X298766Y191377D01*
X298948Y191834D01*
X299143Y192287D01*
X299348Y192735D01*
X299564Y193178D01*
X299791Y193616D01*
X300029Y194047D01*
X300277Y194473D01*
X300535Y194893D01*
X300804Y195306D01*
X301083Y195712D01*
X301372Y196112D01*
X301670Y196504D01*
X301978Y196889D01*
X302295Y197266D01*
X302622Y197635D01*
X302957Y197996D01*
X303301Y198349D01*
X303654Y198693D01*
X304015Y199028D01*
X304384Y199355D01*
X304761Y199672D01*
X305146Y199980D01*
X305538Y200278D01*
X305938Y200567D01*
X306344Y200846D01*
X306757Y201115D01*
X307177Y201373D01*
X307603Y201621D01*
X308034Y201859D01*
X308472Y202086D01*
X308915Y202302D01*
X309363Y202507D01*
X309816Y202702D01*
X310273Y202884D01*
X310735Y203056D01*
X311201Y203217D01*
X311671Y203365D01*
X312144Y203503D01*
X312621Y203628D01*
X313100Y203742D01*
X313583Y203844D01*
X314067Y203934D01*
X314554Y204013D01*
X315042Y204079D01*
X315532Y204133D01*
X316023Y204176D01*
X316515Y204206D01*
X317007Y204224D01*
X317500Y204230D01*
X317993Y204224D01*
X318485Y204206D01*
X318977Y204176D01*
X319468Y204133D01*
X319958Y204079D01*
X320446Y204013D01*
X320933Y203934D01*
X321417Y203844D01*
X321900Y203742D01*
X322379Y203628D01*
X322856Y203503D01*
X323329Y203365D01*
X323799Y203217D01*
X324265Y203056D01*
X324727Y202884D01*
X325184Y202702D01*
X325637Y202507D01*
X326085Y202302D01*
X326528Y202086D01*
X326966Y201859D01*
X327397Y201621D01*
X327823Y201373D01*
X328243Y201115D01*
X328656Y200846D01*
X329062Y200567D01*
X329462Y200278D01*
X329854Y199980D01*
X330239Y199672D01*
X330616Y199355D01*
X330985Y199028D01*
X331346Y198693D01*
X331699Y198349D01*
X332043Y197996D01*
X332378Y197635D01*
X332705Y197266D01*
X333022Y196889D01*
X333330Y196504D01*
X333628Y196112D01*
X333917Y195712D01*
X334196Y195306D01*
X334465Y194893D01*
X334723Y194473D01*
X334971Y194047D01*
X335209Y193616D01*
X335436Y193178D01*
X335652Y192735D01*
X335857Y192287D01*
X336052Y191834D01*
X336234Y191377D01*
X336406Y190915D01*
X336567Y190449D01*
X336715Y189979D01*
X336853Y189506D01*
X336978Y189029D01*
X337092Y188550D01*
X337194Y188067D01*
X337284Y187583D01*
X337363Y187096D01*
X337429Y186608D01*
X337483Y186118D01*
X337526Y185627D01*
X337556Y185135D01*
X337574Y184643D01*
X337580Y184150D01*
X337574Y183657D01*
X337556Y183165D01*
X337526Y182673D01*
X337483Y182182D01*
X337429Y181692D01*
X337363Y181204D01*
X337284Y180717D01*
X337194Y180233D01*
X337092Y179750D01*
X336978Y179271D01*
X336853Y178794D01*
X336715Y178321D01*
X336567Y177851D01*
X336406Y177385D01*
X336234Y176923D01*
X336052Y176466D01*
X335857Y176013D01*
X335652Y175565D01*
X335436Y175122D01*
X335209Y174684D01*
X334971Y174253D01*
X334723Y173827D01*
X334465Y173407D01*
X334196Y172994D01*
X333917Y172588D01*
X333628Y172188D01*
X333330Y171796D01*
X333022Y171411D01*
X332705Y171034D01*
X332378Y170665D01*
X332043Y170304D01*
X331699Y169951D01*
X331346Y169607D01*
X330985Y169272D01*
X330616Y168945D01*
X330239Y168628D01*
X329854Y168320D01*
X329462Y168022D01*
X329062Y167733D01*
X328656Y167454D01*
X328243Y167185D01*
X327823Y166927D01*
X327397Y166679D01*
X326966Y166441D01*
X326528Y166214D01*
X326085Y165998D01*
X325637Y165793D01*
X325184Y165598D01*
X324727Y165416D01*
X324265Y165244D01*
X323799Y165083D01*
X323329Y164935D01*
X322856Y164797D01*
X322379Y164672D01*
X321900Y164558D01*
X321417Y164456D01*
X320933Y164366D01*
X320446Y164287D01*
X319958Y164221D01*
X319468Y164167D01*
X318977Y164124D01*
X318485Y164094D01*
X317993Y164076D01*
X317500Y164070D01*
X317007Y164076D01*
X316515Y164094D01*
X316023Y164124D01*
X315532Y164167D01*
X315042Y164221D01*
X314554Y164287D01*
X314067Y164366D01*
X313583Y164456D01*
X313100Y164558D01*
X312621Y164672D01*
X312144Y164797D01*
X311671Y164935D01*
X311201Y165083D01*
X310735Y165244D01*
X310273Y165416D01*
X309816Y165598D01*
X309363Y165793D01*
X308915Y165998D01*
X308472Y166214D01*
X308034Y166441D01*
X307603Y166679D01*
X307177Y166927D01*
X306757Y167185D01*
X306344Y167454D01*
X305938Y167733D01*
X305538Y168022D01*
X305146Y168320D01*
X304761Y168628D01*
X304384Y168945D01*
X304015Y169272D01*
X303654Y169607D01*
X303301Y169951D01*
X302957Y170304D01*
X302622Y170665D01*
X302295Y171034D01*
X301978Y171411D01*
X301670Y171796D01*
X301372Y172188D01*
X301083Y172588D01*
X300804Y172994D01*
X300535Y173407D01*
X300277Y173827D01*
X300029Y174253D01*
X299791Y174684D01*
X299564Y175122D01*
X299348Y175565D01*
X299143Y176013D01*
X298948Y176466D01*
X298766Y176923D01*
X298594Y177385D01*
X298433Y177851D01*
X298285Y178321D01*
X298147Y178794D01*
X298022Y179271D01*
X297908Y179750D01*
X297806Y180233D01*
X297716Y180717D01*
X297637Y181204D01*
X297571Y181692D01*
X297517Y182182D01*
X297474Y182673D01*
X297444Y183165D01*
X297426Y183657D01*
X297420Y184150D01*
X342900Y158750D02*
X342900Y209550D01*
X292100Y209550D01*
X292100Y158750D01*
X342900Y158750D01*
X317500Y184150D02*
X304800Y184150D01*
X317500Y184150D02*
X317500Y196850D01*
X317500Y184150D02*
X330200Y184150D01*
X317500Y184150D02*
X317500Y171450D01*
D17*
X288549Y226575D02*
X287024Y228100D01*
X283973Y228100D01*
X282448Y226575D01*
X282448Y220473D01*
X283973Y218948D01*
X287024Y218948D01*
X288549Y220473D01*
X293328Y228100D02*
X296379Y228100D01*
X293328Y228100D02*
X291803Y226575D01*
X291803Y220473D01*
X293328Y218948D01*
X296379Y218948D01*
X297904Y220473D01*
X297904Y226575D01*
X296379Y228100D01*
X301158Y228100D02*
X301158Y218948D01*
X307260Y218948D02*
X301158Y228100D01*
X307260Y228100D02*
X307260Y218948D01*
X313564Y218948D02*
X313564Y228100D01*
X310514Y228100D02*
X316615Y228100D01*
X319869Y228100D02*
X319869Y218948D01*
X319869Y228100D02*
X324445Y228100D01*
X325970Y226575D01*
X325970Y223524D01*
X324445Y221999D01*
X319869Y221999D01*
X322919Y221999D02*
X325970Y218948D01*
X329224Y218948D02*
X329224Y225049D01*
X332275Y228100D01*
X335325Y225049D01*
X335325Y218948D01*
X335325Y223524D02*
X329224Y223524D01*
X343155Y228100D02*
X344680Y226575D01*
X343155Y228100D02*
X340104Y228100D01*
X338579Y226575D01*
X338579Y225049D01*
X340104Y223524D01*
X343155Y223524D01*
X344680Y221999D01*
X344680Y220473D01*
X343155Y218948D01*
X340104Y218948D01*
X338579Y220473D01*
X350985Y218948D02*
X350985Y228100D01*
X347934Y228100D02*
X354036Y228100D01*
D11*
X568000Y911600D02*
X568000Y949600D01*
X448000Y949600D02*
X448000Y911600D01*
X448000Y869600D02*
X448000Y830600D01*
X568000Y830600D01*
X568000Y869600D01*
D20*
X549401Y853975D02*
X546224Y853975D01*
X549401Y853975D02*
X550037Y854610D01*
X550037Y855881D01*
X549401Y856517D01*
X546224Y856517D01*
X546224Y859623D02*
X546859Y860259D01*
X546224Y859623D02*
X546224Y858352D01*
X546859Y857717D01*
X547495Y857717D01*
X548130Y858352D01*
X548130Y859623D01*
X548766Y860259D01*
X549401Y860259D01*
X550037Y859623D01*
X550037Y858352D01*
X549401Y857717D01*
X550037Y861459D02*
X546224Y861459D01*
X546224Y863365D01*
X546859Y864001D01*
X547495Y864001D01*
X548130Y863365D01*
X548766Y864001D01*
X549401Y864001D01*
X550037Y863365D01*
X550037Y861459D01*
X548130Y861459D02*
X548130Y863365D01*
X550673Y865201D02*
X550673Y867743D01*
X550037Y868943D02*
X546224Y868943D01*
X546224Y870849D01*
X546859Y871485D01*
X548130Y871485D01*
X548766Y870849D01*
X548766Y868943D01*
X546224Y874591D02*
X546859Y875227D01*
X546224Y874591D02*
X546224Y873320D01*
X546859Y872685D01*
X549401Y872685D01*
X550037Y873320D01*
X550037Y874591D01*
X549401Y875227D01*
D10*
X419100Y579120D02*
X419100Y538480D01*
X444500Y538480D01*
X444500Y579120D01*
X419100Y579120D01*
X431800Y565150D02*
X431800Y558800D01*
X438150Y548640D02*
X425450Y548640D01*
X431800Y558800D01*
X431800Y543560D01*
X438150Y548640D02*
X431800Y558800D01*
X438150Y558800D01*
X431800Y558800D02*
X425450Y558800D01*
D12*
X448935Y556367D02*
X460375Y556367D01*
X460375Y562087D01*
X458468Y563994D01*
X450842Y563994D01*
X448935Y562087D01*
X448935Y556367D01*
X452749Y568061D02*
X448935Y571874D01*
X460375Y571874D01*
X460375Y568061D02*
X460375Y575688D01*
D35*
X431800Y572770D03*
D36*
X431800Y528955D03*
X431800Y588645D03*
D10*
X406400Y579120D02*
X406400Y538480D01*
X406400Y579120D02*
X381000Y579120D01*
X381000Y538480D01*
X406400Y538480D01*
X393700Y552450D02*
X393700Y558800D01*
X387350Y568960D02*
X400050Y568960D01*
X393700Y558800D01*
X393700Y574040D01*
X387350Y568960D02*
X393700Y558800D01*
X387350Y558800D01*
X393700Y558800D02*
X400050Y558800D01*
D12*
X376555Y539115D02*
X365115Y539115D01*
X376555Y539115D02*
X376555Y544835D01*
X374648Y546742D01*
X367022Y546742D01*
X365115Y544835D01*
X365115Y539115D01*
X376555Y550809D02*
X376555Y558435D01*
X376555Y550809D02*
X368929Y558435D01*
X367022Y558435D01*
X365115Y556529D01*
X365115Y552716D01*
X367022Y550809D01*
D35*
X393700Y544830D03*
D36*
X393700Y588645D03*
X393700Y528955D03*
D10*
X410210Y764540D02*
X453390Y764540D01*
X453390Y810260D02*
X410210Y810260D01*
X455930Y807720D02*
X455930Y767080D01*
X410210Y764540D02*
X410110Y764542D01*
X410011Y764548D01*
X409911Y764558D01*
X409813Y764571D01*
X409714Y764589D01*
X409617Y764610D01*
X409521Y764635D01*
X409425Y764664D01*
X409331Y764697D01*
X409238Y764733D01*
X409147Y764773D01*
X409057Y764817D01*
X408969Y764864D01*
X408883Y764914D01*
X408799Y764968D01*
X408717Y765025D01*
X408638Y765085D01*
X408560Y765149D01*
X408486Y765215D01*
X408414Y765284D01*
X408345Y765356D01*
X408279Y765430D01*
X408215Y765508D01*
X408155Y765587D01*
X408098Y765669D01*
X408044Y765753D01*
X407994Y765839D01*
X407947Y765927D01*
X407903Y766017D01*
X407863Y766108D01*
X407827Y766201D01*
X407794Y766295D01*
X407765Y766391D01*
X407740Y766487D01*
X407719Y766584D01*
X407701Y766683D01*
X407688Y766781D01*
X407678Y766881D01*
X407672Y766980D01*
X407670Y767080D01*
X453390Y764540D02*
X453490Y764542D01*
X453589Y764548D01*
X453689Y764558D01*
X453787Y764571D01*
X453886Y764589D01*
X453983Y764610D01*
X454079Y764635D01*
X454175Y764664D01*
X454269Y764697D01*
X454362Y764733D01*
X454453Y764773D01*
X454543Y764817D01*
X454631Y764864D01*
X454717Y764914D01*
X454801Y764968D01*
X454883Y765025D01*
X454962Y765085D01*
X455040Y765149D01*
X455114Y765215D01*
X455186Y765284D01*
X455255Y765356D01*
X455321Y765430D01*
X455385Y765508D01*
X455445Y765587D01*
X455502Y765669D01*
X455556Y765753D01*
X455606Y765839D01*
X455653Y765927D01*
X455697Y766017D01*
X455737Y766108D01*
X455773Y766201D01*
X455806Y766295D01*
X455835Y766391D01*
X455860Y766487D01*
X455881Y766584D01*
X455899Y766683D01*
X455912Y766781D01*
X455922Y766881D01*
X455928Y766980D01*
X455930Y767080D01*
X410210Y810260D02*
X410110Y810258D01*
X410011Y810252D01*
X409911Y810242D01*
X409813Y810229D01*
X409714Y810211D01*
X409617Y810190D01*
X409521Y810165D01*
X409425Y810136D01*
X409331Y810103D01*
X409238Y810067D01*
X409147Y810027D01*
X409057Y809983D01*
X408969Y809936D01*
X408883Y809886D01*
X408799Y809832D01*
X408717Y809775D01*
X408638Y809715D01*
X408560Y809651D01*
X408486Y809585D01*
X408414Y809516D01*
X408345Y809444D01*
X408279Y809370D01*
X408215Y809292D01*
X408155Y809213D01*
X408098Y809131D01*
X408044Y809047D01*
X407994Y808961D01*
X407947Y808873D01*
X407903Y808783D01*
X407863Y808692D01*
X407827Y808599D01*
X407794Y808505D01*
X407765Y808409D01*
X407740Y808313D01*
X407719Y808216D01*
X407701Y808117D01*
X407688Y808019D01*
X407678Y807919D01*
X407672Y807820D01*
X407670Y807720D01*
X453390Y810260D02*
X453490Y810258D01*
X453589Y810252D01*
X453689Y810242D01*
X453787Y810229D01*
X453886Y810211D01*
X453983Y810190D01*
X454079Y810165D01*
X454175Y810136D01*
X454269Y810103D01*
X454362Y810067D01*
X454453Y810027D01*
X454543Y809983D01*
X454631Y809936D01*
X454717Y809886D01*
X454801Y809832D01*
X454883Y809775D01*
X454962Y809715D01*
X455040Y809651D01*
X455114Y809585D01*
X455186Y809516D01*
X455255Y809444D01*
X455321Y809370D01*
X455385Y809292D01*
X455445Y809213D01*
X455502Y809131D01*
X455556Y809047D01*
X455606Y808961D01*
X455653Y808873D01*
X455697Y808783D01*
X455737Y808692D01*
X455773Y808599D01*
X455806Y808505D01*
X455835Y808409D01*
X455860Y808313D01*
X455881Y808216D01*
X455899Y808117D01*
X455912Y808019D01*
X455922Y807919D01*
X455928Y807820D01*
X455930Y807720D01*
X429260Y787400D02*
X427990Y787400D01*
D13*
X429260Y787400D02*
X429260Y779780D01*
X429260Y787400D02*
X429260Y795020D01*
X434340Y787400D02*
X434340Y779780D01*
X434340Y787400D02*
X434340Y795020D01*
D10*
X434340Y787400D02*
X435610Y787400D01*
X382270Y767080D02*
X382270Y807720D01*
X382270Y767080D02*
X382272Y766980D01*
X382278Y766881D01*
X382288Y766781D01*
X382301Y766683D01*
X382319Y766584D01*
X382340Y766487D01*
X382365Y766391D01*
X382394Y766295D01*
X382427Y766201D01*
X382463Y766108D01*
X382503Y766017D01*
X382547Y765927D01*
X382594Y765839D01*
X382644Y765753D01*
X382698Y765669D01*
X382755Y765587D01*
X382815Y765508D01*
X382879Y765430D01*
X382945Y765356D01*
X383014Y765284D01*
X383086Y765215D01*
X383160Y765149D01*
X383238Y765085D01*
X383317Y765025D01*
X383399Y764968D01*
X383483Y764914D01*
X383569Y764864D01*
X383657Y764817D01*
X383747Y764773D01*
X383838Y764733D01*
X383931Y764697D01*
X384025Y764664D01*
X384121Y764635D01*
X384217Y764610D01*
X384314Y764589D01*
X384413Y764571D01*
X384511Y764558D01*
X384611Y764548D01*
X384710Y764542D01*
X384810Y764540D01*
X382270Y807720D02*
X382272Y807820D01*
X382278Y807919D01*
X382288Y808019D01*
X382301Y808117D01*
X382319Y808216D01*
X382340Y808313D01*
X382365Y808409D01*
X382394Y808505D01*
X382427Y808599D01*
X382463Y808692D01*
X382503Y808783D01*
X382547Y808873D01*
X382594Y808961D01*
X382644Y809047D01*
X382698Y809131D01*
X382755Y809213D01*
X382815Y809292D01*
X382879Y809370D01*
X382945Y809444D01*
X383014Y809516D01*
X383086Y809585D01*
X383160Y809651D01*
X383238Y809715D01*
X383317Y809775D01*
X383399Y809832D01*
X383483Y809886D01*
X383569Y809936D01*
X383657Y809983D01*
X383747Y810027D01*
X383838Y810067D01*
X383931Y810103D01*
X384025Y810136D01*
X384121Y810165D01*
X384217Y810190D01*
X384314Y810211D01*
X384413Y810229D01*
X384511Y810242D01*
X384611Y810252D01*
X384710Y810258D01*
X384810Y810260D01*
X384810Y764540D02*
X403860Y764540D01*
X403860Y810260D02*
X384810Y810260D01*
X407670Y773430D02*
X407670Y767080D01*
X407670Y801370D02*
X407670Y807720D01*
X407670Y795020D02*
X407670Y779780D01*
X408940Y787400D02*
X403860Y787400D01*
D12*
X430007Y761375D02*
X431914Y759468D01*
X430007Y761375D02*
X426194Y761375D01*
X424287Y759468D01*
X424287Y751842D01*
X426194Y749935D01*
X430007Y749935D01*
X431914Y751842D01*
X435981Y749935D02*
X443608Y749935D01*
X435981Y749935D02*
X443608Y757562D01*
X443608Y759468D01*
X441701Y761375D01*
X437888Y761375D01*
X435981Y759468D01*
D10*
X422910Y702310D02*
X466090Y702310D01*
X466090Y656590D02*
X422910Y656590D01*
X420370Y659130D02*
X420370Y699770D01*
X466090Y702310D02*
X466190Y702308D01*
X466289Y702302D01*
X466389Y702292D01*
X466487Y702279D01*
X466586Y702261D01*
X466683Y702240D01*
X466779Y702215D01*
X466875Y702186D01*
X466969Y702153D01*
X467062Y702117D01*
X467153Y702077D01*
X467243Y702033D01*
X467331Y701986D01*
X467417Y701936D01*
X467501Y701882D01*
X467583Y701825D01*
X467662Y701765D01*
X467740Y701701D01*
X467814Y701635D01*
X467886Y701566D01*
X467955Y701494D01*
X468021Y701420D01*
X468085Y701342D01*
X468145Y701263D01*
X468202Y701181D01*
X468256Y701097D01*
X468306Y701011D01*
X468353Y700923D01*
X468397Y700833D01*
X468437Y700742D01*
X468473Y700649D01*
X468506Y700555D01*
X468535Y700459D01*
X468560Y700363D01*
X468581Y700266D01*
X468599Y700167D01*
X468612Y700069D01*
X468622Y699969D01*
X468628Y699870D01*
X468630Y699770D01*
X422910Y702310D02*
X422810Y702308D01*
X422711Y702302D01*
X422611Y702292D01*
X422513Y702279D01*
X422414Y702261D01*
X422317Y702240D01*
X422221Y702215D01*
X422125Y702186D01*
X422031Y702153D01*
X421938Y702117D01*
X421847Y702077D01*
X421757Y702033D01*
X421669Y701986D01*
X421583Y701936D01*
X421499Y701882D01*
X421417Y701825D01*
X421338Y701765D01*
X421260Y701701D01*
X421186Y701635D01*
X421114Y701566D01*
X421045Y701494D01*
X420979Y701420D01*
X420915Y701342D01*
X420855Y701263D01*
X420798Y701181D01*
X420744Y701097D01*
X420694Y701011D01*
X420647Y700923D01*
X420603Y700833D01*
X420563Y700742D01*
X420527Y700649D01*
X420494Y700555D01*
X420465Y700459D01*
X420440Y700363D01*
X420419Y700266D01*
X420401Y700167D01*
X420388Y700069D01*
X420378Y699969D01*
X420372Y699870D01*
X420370Y699770D01*
X466090Y656590D02*
X466190Y656592D01*
X466289Y656598D01*
X466389Y656608D01*
X466487Y656621D01*
X466586Y656639D01*
X466683Y656660D01*
X466779Y656685D01*
X466875Y656714D01*
X466969Y656747D01*
X467062Y656783D01*
X467153Y656823D01*
X467243Y656867D01*
X467331Y656914D01*
X467417Y656964D01*
X467501Y657018D01*
X467583Y657075D01*
X467662Y657135D01*
X467740Y657199D01*
X467814Y657265D01*
X467886Y657334D01*
X467955Y657406D01*
X468021Y657480D01*
X468085Y657558D01*
X468145Y657637D01*
X468202Y657719D01*
X468256Y657803D01*
X468306Y657889D01*
X468353Y657977D01*
X468397Y658067D01*
X468437Y658158D01*
X468473Y658251D01*
X468506Y658345D01*
X468535Y658441D01*
X468560Y658537D01*
X468581Y658634D01*
X468599Y658733D01*
X468612Y658831D01*
X468622Y658931D01*
X468628Y659030D01*
X468630Y659130D01*
X422910Y656590D02*
X422810Y656592D01*
X422711Y656598D01*
X422611Y656608D01*
X422513Y656621D01*
X422414Y656639D01*
X422317Y656660D01*
X422221Y656685D01*
X422125Y656714D01*
X422031Y656747D01*
X421938Y656783D01*
X421847Y656823D01*
X421757Y656867D01*
X421669Y656914D01*
X421583Y656964D01*
X421499Y657018D01*
X421417Y657075D01*
X421338Y657135D01*
X421260Y657199D01*
X421186Y657265D01*
X421114Y657334D01*
X421045Y657406D01*
X420979Y657480D01*
X420915Y657558D01*
X420855Y657637D01*
X420798Y657719D01*
X420744Y657803D01*
X420694Y657889D01*
X420647Y657977D01*
X420603Y658067D01*
X420563Y658158D01*
X420527Y658251D01*
X420494Y658345D01*
X420465Y658441D01*
X420440Y658537D01*
X420419Y658634D01*
X420401Y658733D01*
X420388Y658831D01*
X420378Y658931D01*
X420372Y659030D01*
X420370Y659130D01*
X447040Y679450D02*
X448310Y679450D01*
D13*
X447040Y679450D02*
X447040Y687070D01*
X447040Y679450D02*
X447040Y671830D01*
X441960Y679450D02*
X441960Y687070D01*
X441960Y679450D02*
X441960Y671830D01*
D10*
X441960Y679450D02*
X440690Y679450D01*
X494030Y699770D02*
X494030Y659130D01*
X494030Y699770D02*
X494028Y699870D01*
X494022Y699969D01*
X494012Y700069D01*
X493999Y700167D01*
X493981Y700266D01*
X493960Y700363D01*
X493935Y700459D01*
X493906Y700555D01*
X493873Y700649D01*
X493837Y700742D01*
X493797Y700833D01*
X493753Y700923D01*
X493706Y701011D01*
X493656Y701097D01*
X493602Y701181D01*
X493545Y701263D01*
X493485Y701342D01*
X493421Y701420D01*
X493355Y701494D01*
X493286Y701566D01*
X493214Y701635D01*
X493140Y701701D01*
X493062Y701765D01*
X492983Y701825D01*
X492901Y701882D01*
X492817Y701936D01*
X492731Y701986D01*
X492643Y702033D01*
X492553Y702077D01*
X492462Y702117D01*
X492369Y702153D01*
X492275Y702186D01*
X492179Y702215D01*
X492083Y702240D01*
X491986Y702261D01*
X491887Y702279D01*
X491789Y702292D01*
X491689Y702302D01*
X491590Y702308D01*
X491490Y702310D01*
X494030Y659130D02*
X494028Y659030D01*
X494022Y658931D01*
X494012Y658831D01*
X493999Y658733D01*
X493981Y658634D01*
X493960Y658537D01*
X493935Y658441D01*
X493906Y658345D01*
X493873Y658251D01*
X493837Y658158D01*
X493797Y658067D01*
X493753Y657977D01*
X493706Y657889D01*
X493656Y657803D01*
X493602Y657719D01*
X493545Y657637D01*
X493485Y657558D01*
X493421Y657480D01*
X493355Y657406D01*
X493286Y657334D01*
X493214Y657265D01*
X493140Y657199D01*
X493062Y657135D01*
X492983Y657075D01*
X492901Y657018D01*
X492817Y656964D01*
X492731Y656914D01*
X492643Y656867D01*
X492553Y656823D01*
X492462Y656783D01*
X492369Y656747D01*
X492275Y656714D01*
X492179Y656685D01*
X492083Y656660D01*
X491986Y656639D01*
X491887Y656621D01*
X491789Y656608D01*
X491689Y656598D01*
X491590Y656592D01*
X491490Y656590D01*
X491490Y702310D02*
X472440Y702310D01*
X472440Y656590D02*
X491490Y656590D01*
X468630Y693420D02*
X468630Y699770D01*
X468630Y665480D02*
X468630Y659130D01*
X468630Y671830D02*
X468630Y687070D01*
X467360Y679450D02*
X472440Y679450D01*
D12*
X437522Y715018D02*
X435615Y716925D01*
X431802Y716925D01*
X429895Y715018D01*
X429895Y707392D01*
X431802Y705485D01*
X435615Y705485D01*
X437522Y707392D01*
X447309Y705485D02*
X447309Y716925D01*
X441589Y711205D01*
X449215Y711205D01*
D11*
X1146000Y344400D02*
X1146000Y344399D01*
X1146000Y341400D01*
X1143000Y338400D02*
X1143000Y220400D01*
X1146000Y217400D02*
X1146000Y214400D01*
X1233000Y214400D01*
X1258000Y214400D01*
X1282000Y214400D01*
X1282000Y344400D01*
X1258000Y344400D01*
X1233000Y344400D01*
X1146000Y344400D01*
X1146000Y344399D02*
X1145893Y344401D01*
X1145786Y344407D01*
X1145679Y344416D01*
X1145573Y344430D01*
X1145467Y344447D01*
X1145362Y344468D01*
X1145258Y344492D01*
X1145155Y344521D01*
X1145053Y344553D01*
X1144952Y344588D01*
X1144852Y344627D01*
X1144754Y344670D01*
X1144657Y344716D01*
X1144562Y344766D01*
X1144469Y344819D01*
X1144378Y344875D01*
X1144289Y344935D01*
X1144202Y344997D01*
X1144118Y345063D01*
X1144035Y345132D01*
X1143956Y345203D01*
X1143879Y345278D01*
X1143804Y345355D01*
X1143733Y345434D01*
X1143664Y345517D01*
X1143598Y345601D01*
X1143536Y345688D01*
X1143476Y345777D01*
X1143420Y345868D01*
X1143367Y345961D01*
X1143317Y346056D01*
X1143271Y346153D01*
X1143228Y346251D01*
X1143189Y346351D01*
X1143154Y346452D01*
X1143122Y346554D01*
X1143093Y346657D01*
X1143069Y346761D01*
X1143048Y346866D01*
X1143031Y346972D01*
X1143017Y347078D01*
X1143008Y347185D01*
X1143002Y347292D01*
X1143000Y347399D01*
X1143000Y347400D02*
X1143000Y349400D01*
X1146000Y341400D02*
X1145998Y341293D01*
X1145992Y341186D01*
X1145983Y341079D01*
X1145969Y340973D01*
X1145952Y340867D01*
X1145931Y340762D01*
X1145907Y340658D01*
X1145878Y340555D01*
X1145846Y340453D01*
X1145811Y340352D01*
X1145772Y340252D01*
X1145729Y340154D01*
X1145683Y340057D01*
X1145633Y339962D01*
X1145580Y339869D01*
X1145524Y339778D01*
X1145464Y339689D01*
X1145402Y339602D01*
X1145336Y339518D01*
X1145267Y339435D01*
X1145196Y339356D01*
X1145121Y339279D01*
X1145044Y339204D01*
X1144965Y339133D01*
X1144882Y339064D01*
X1144798Y338998D01*
X1144711Y338936D01*
X1144622Y338876D01*
X1144531Y338820D01*
X1144438Y338767D01*
X1144343Y338717D01*
X1144246Y338671D01*
X1144148Y338628D01*
X1144048Y338589D01*
X1143947Y338554D01*
X1143845Y338522D01*
X1143742Y338493D01*
X1143638Y338469D01*
X1143533Y338448D01*
X1143427Y338431D01*
X1143321Y338417D01*
X1143214Y338408D01*
X1143107Y338402D01*
X1143000Y338400D01*
X1146000Y214400D02*
X1145893Y214398D01*
X1145786Y214392D01*
X1145679Y214383D01*
X1145573Y214369D01*
X1145467Y214352D01*
X1145362Y214331D01*
X1145258Y214307D01*
X1145155Y214278D01*
X1145053Y214246D01*
X1144952Y214211D01*
X1144852Y214172D01*
X1144754Y214129D01*
X1144657Y214083D01*
X1144562Y214033D01*
X1144469Y213980D01*
X1144378Y213924D01*
X1144289Y213864D01*
X1144202Y213802D01*
X1144118Y213736D01*
X1144035Y213667D01*
X1143956Y213596D01*
X1143879Y213521D01*
X1143804Y213444D01*
X1143733Y213365D01*
X1143664Y213282D01*
X1143598Y213198D01*
X1143536Y213111D01*
X1143476Y213022D01*
X1143420Y212931D01*
X1143367Y212838D01*
X1143317Y212743D01*
X1143271Y212646D01*
X1143228Y212548D01*
X1143189Y212448D01*
X1143154Y212347D01*
X1143122Y212245D01*
X1143093Y212142D01*
X1143069Y212038D01*
X1143048Y211933D01*
X1143031Y211827D01*
X1143017Y211721D01*
X1143008Y211614D01*
X1143002Y211507D01*
X1143000Y211400D01*
X1146001Y217400D02*
X1145999Y217507D01*
X1145993Y217614D01*
X1145984Y217721D01*
X1145970Y217827D01*
X1145953Y217933D01*
X1145932Y218038D01*
X1145908Y218142D01*
X1145879Y218245D01*
X1145847Y218347D01*
X1145812Y218448D01*
X1145772Y218548D01*
X1145730Y218646D01*
X1145683Y218743D01*
X1145634Y218838D01*
X1145581Y218931D01*
X1145524Y219022D01*
X1145465Y219111D01*
X1145402Y219198D01*
X1145336Y219282D01*
X1145268Y219365D01*
X1145196Y219444D01*
X1145122Y219521D01*
X1145045Y219596D01*
X1144965Y219667D01*
X1144883Y219736D01*
X1144798Y219802D01*
X1144711Y219864D01*
X1144622Y219924D01*
X1144531Y219980D01*
X1144438Y220033D01*
X1144343Y220083D01*
X1144246Y220129D01*
X1144148Y220172D01*
X1144049Y220211D01*
X1143948Y220246D01*
X1143845Y220278D01*
X1143742Y220307D01*
X1143638Y220331D01*
X1143533Y220352D01*
X1143427Y220369D01*
X1143321Y220383D01*
X1143214Y220392D01*
X1143107Y220398D01*
X1143000Y220400D01*
X1163000Y319400D02*
X1223000Y329400D01*
X1163000Y319400D02*
X1163000Y309400D01*
X1223000Y299400D01*
X1223000Y229400D02*
X1163000Y239400D01*
X1163000Y249400D01*
X1223000Y259400D01*
X1258000Y344400D02*
X1253000Y359400D01*
X1238000Y359400D01*
X1233000Y344400D01*
X1258000Y214400D02*
X1253000Y199400D01*
X1238000Y199400D01*
X1233000Y214400D01*
X1143000Y211400D02*
X1143000Y209400D01*
D37*
X1152858Y218319D02*
X1159129Y218319D01*
X1152858Y218319D02*
X1149723Y221454D01*
X1152858Y224589D01*
X1159129Y224589D01*
X1154426Y224589D02*
X1154426Y218319D01*
X1159129Y227674D02*
X1149723Y227674D01*
X1152858Y230809D01*
X1149723Y233945D01*
X1159129Y233945D01*
X1159129Y237029D02*
X1149723Y237029D01*
X1149723Y241732D01*
X1151291Y243300D01*
X1154426Y243300D01*
X1155994Y241732D01*
X1155994Y237029D01*
X1149723Y255739D02*
X1149723Y262010D01*
X1151291Y262010D01*
X1157561Y255739D01*
X1159129Y255739D01*
X1151291Y265095D02*
X1149723Y266662D01*
X1149723Y269798D01*
X1151291Y271365D01*
X1152858Y271365D01*
X1154426Y269798D01*
X1155994Y271365D01*
X1157561Y271365D01*
X1159129Y269798D01*
X1159129Y266662D01*
X1157561Y265095D01*
X1155994Y265095D01*
X1154426Y266662D01*
X1152858Y265095D01*
X1151291Y265095D01*
X1154426Y266662D02*
X1154426Y269798D01*
X1149723Y274450D02*
X1149723Y280720D01*
X1151291Y280720D01*
X1157561Y274450D01*
X1159129Y274450D01*
X1151291Y286940D02*
X1149723Y290076D01*
X1151291Y286940D02*
X1154426Y283805D01*
X1157561Y283805D01*
X1159129Y285373D01*
X1159129Y288508D01*
X1157561Y290076D01*
X1155994Y290076D01*
X1154426Y288508D01*
X1154426Y283805D01*
X1152858Y293160D02*
X1149723Y296296D01*
X1159129Y296296D01*
X1159129Y299431D02*
X1159129Y293160D01*
X1151291Y305651D02*
X1149723Y308786D01*
X1151291Y305651D02*
X1154426Y302515D01*
X1157561Y302515D01*
X1159129Y304083D01*
X1159129Y307218D01*
X1157561Y308786D01*
X1155994Y308786D01*
X1154426Y307218D01*
X1154426Y302515D01*
X1154426Y311871D02*
X1154426Y318141D01*
X1152858Y321226D02*
X1149723Y324361D01*
X1159129Y324361D01*
X1159129Y321226D02*
X1159129Y327496D01*
D17*
X1288499Y230861D02*
X1298244Y230861D01*
X1300193Y232810D01*
X1300193Y236708D01*
X1298244Y238657D01*
X1288499Y238657D01*
X1288499Y248402D02*
X1290448Y250351D01*
X1288499Y248402D02*
X1288499Y244504D01*
X1290448Y242555D01*
X1292397Y242555D01*
X1294346Y244504D01*
X1294346Y248402D01*
X1296295Y250351D01*
X1298244Y250351D01*
X1300193Y248402D01*
X1300193Y244504D01*
X1298244Y242555D01*
X1300193Y254249D02*
X1288499Y254249D01*
X1288499Y260096D01*
X1290448Y262045D01*
X1292397Y262045D01*
X1294346Y260096D01*
X1296295Y262045D01*
X1298244Y262045D01*
X1300193Y260096D01*
X1300193Y254249D01*
X1294346Y254249D02*
X1294346Y260096D01*
X1302142Y265943D02*
X1302142Y273739D01*
X1300193Y277637D02*
X1288499Y277637D01*
X1300193Y277637D02*
X1300193Y283484D01*
X1298244Y285433D01*
X1290448Y285433D01*
X1288499Y283484D01*
X1288499Y277637D01*
X1288499Y289331D02*
X1300193Y289331D01*
X1288499Y289331D02*
X1288499Y295178D01*
X1290448Y297127D01*
X1294346Y297127D01*
X1296295Y295178D01*
X1296295Y289331D01*
X1296295Y293229D02*
X1300193Y297127D01*
X1300193Y301025D02*
X1300193Y304923D01*
X1300193Y302974D02*
X1288499Y302974D01*
X1288499Y301025D02*
X1288499Y304923D01*
X1288499Y308821D02*
X1296295Y308821D01*
X1300193Y312719D01*
X1296295Y316617D01*
X1288499Y316617D01*
X1288499Y320515D02*
X1288499Y328311D01*
X1288499Y320515D02*
X1300193Y320515D01*
X1300193Y328311D01*
X1294346Y324413D02*
X1294346Y320515D01*
D12*
X378461Y248799D02*
X377828Y248731D01*
X377198Y248648D01*
X376570Y248549D01*
X375944Y248436D01*
X375322Y248308D01*
X374702Y248166D01*
X374086Y248008D01*
X373474Y247836D01*
X372866Y247649D01*
X372263Y247448D01*
X371665Y247233D01*
X371072Y247003D01*
X370485Y246760D01*
X369904Y246502D01*
X369329Y246231D01*
X368760Y245946D01*
X368199Y245647D01*
X367645Y245335D01*
X367098Y245010D01*
X366560Y244673D01*
X366030Y244322D01*
X365508Y243959D01*
X364995Y243583D01*
X364491Y243196D01*
X378460Y248799D02*
X379109Y248853D01*
X379758Y248891D01*
X380409Y248913D01*
X381060Y248920D01*
X381711Y248911D01*
X382361Y248885D01*
X383011Y248844D01*
X383659Y248787D01*
X384306Y248714D01*
X384951Y248626D01*
X385594Y248521D01*
X386234Y248401D01*
X386870Y248266D01*
X387504Y248115D01*
X388133Y247948D01*
X388758Y247767D01*
X389379Y247570D01*
X389994Y247358D01*
X390604Y247131D01*
X391209Y246889D01*
X391807Y246632D01*
X392399Y246361D01*
X392984Y246076D01*
X393562Y245776D01*
X394132Y245463D01*
X394695Y245135D01*
X395249Y244794D01*
X395795Y244440D01*
X396332Y244072D01*
X396861Y243691D01*
X397379Y243298D01*
X397888Y242892D01*
X398387Y242474D01*
X398875Y242043D01*
X399353Y241601D01*
X399820Y241147D01*
X400275Y240682D01*
X400719Y240206D01*
X401152Y239720D01*
X401572Y239223D01*
X401980Y238716D01*
X402376Y238199D01*
X402759Y237672D01*
X403129Y237136D01*
X403486Y236592D01*
X403829Y236039D01*
X404159Y235478D01*
X404475Y234908D01*
X404777Y234332D01*
X405064Y233748D01*
X405338Y233157D01*
X405597Y232560D01*
X405841Y231956D01*
X406071Y231347D01*
X406285Y230733D01*
X406485Y230113D01*
X406485Y214387D02*
X406286Y213772D01*
X406074Y213161D01*
X405846Y212556D01*
X405604Y211957D01*
X405347Y211364D01*
X405076Y210777D01*
X404791Y210197D01*
X404492Y209624D01*
X404179Y209058D01*
X403852Y208500D01*
X403512Y207950D01*
X403159Y207409D01*
X402793Y206876D01*
X402414Y206353D01*
X402022Y205838D01*
X401619Y205334D01*
X401202Y204839D01*
X400775Y204354D01*
X400335Y203880D01*
X399884Y203417D01*
X399422Y202965D01*
X398949Y202524D01*
X398466Y202095D01*
X397972Y201678D01*
X397469Y201272D01*
X396956Y200879D01*
X396433Y200499D01*
X395901Y200131D01*
X395361Y199777D01*
X394812Y199435D01*
X394255Y199107D01*
X393690Y198793D01*
X393118Y198492D01*
X392539Y198205D01*
X391952Y197933D01*
X391360Y197674D01*
X390761Y197431D01*
X390157Y197201D01*
X389547Y196987D01*
X388932Y196787D01*
X388313Y196602D01*
X387689Y196432D01*
X387061Y196278D01*
X386430Y196139D01*
X385796Y196015D01*
X385158Y195906D01*
X384519Y195813D01*
X383877Y195736D01*
X383234Y195674D01*
X382589Y195627D01*
X381943Y195597D01*
X381297Y195582D01*
X380651Y195582D01*
X380004Y195599D01*
X379359Y195631D01*
X378714Y195678D01*
X378071Y195741D01*
X377429Y195820D01*
X376790Y195914D01*
X376153Y196024D01*
X375518Y196149D01*
X374887Y196290D01*
X374260Y196446D01*
X373637Y196617D01*
X373018Y196803D01*
X372403Y197004D01*
X371794Y197219D01*
X371190Y197450D01*
X370592Y197695D01*
X370000Y197954D01*
X369414Y198228D01*
X368835Y198516D01*
X368264Y198818D01*
X367699Y199133D01*
X367143Y199462D01*
X366595Y199805D01*
X366055Y200161D01*
X365524Y200529D01*
X365002Y200911D01*
X364490Y201305D01*
X364490Y243195D01*
X378460Y244787D02*
X378460Y248799D01*
X378460Y225113D02*
X378460Y219387D01*
X378460Y199713D02*
X378460Y195701D01*
X389882Y167747D02*
X397508Y167747D01*
X389882Y167747D02*
X387975Y169654D01*
X387975Y173467D01*
X389882Y175374D01*
X397508Y175374D01*
X399415Y173467D01*
X399415Y169654D01*
X397508Y167747D01*
X395602Y171560D02*
X399415Y175374D01*
X391789Y179441D02*
X387975Y183254D01*
X399415Y183254D01*
X399415Y179441D02*
X399415Y187068D01*
X297420Y107950D02*
X297426Y108443D01*
X297444Y108935D01*
X297474Y109427D01*
X297517Y109918D01*
X297571Y110408D01*
X297637Y110896D01*
X297716Y111383D01*
X297806Y111867D01*
X297908Y112350D01*
X298022Y112829D01*
X298147Y113306D01*
X298285Y113779D01*
X298433Y114249D01*
X298594Y114715D01*
X298766Y115177D01*
X298948Y115634D01*
X299143Y116087D01*
X299348Y116535D01*
X299564Y116978D01*
X299791Y117416D01*
X300029Y117847D01*
X300277Y118273D01*
X300535Y118693D01*
X300804Y119106D01*
X301083Y119512D01*
X301372Y119912D01*
X301670Y120304D01*
X301978Y120689D01*
X302295Y121066D01*
X302622Y121435D01*
X302957Y121796D01*
X303301Y122149D01*
X303654Y122493D01*
X304015Y122828D01*
X304384Y123155D01*
X304761Y123472D01*
X305146Y123780D01*
X305538Y124078D01*
X305938Y124367D01*
X306344Y124646D01*
X306757Y124915D01*
X307177Y125173D01*
X307603Y125421D01*
X308034Y125659D01*
X308472Y125886D01*
X308915Y126102D01*
X309363Y126307D01*
X309816Y126502D01*
X310273Y126684D01*
X310735Y126856D01*
X311201Y127017D01*
X311671Y127165D01*
X312144Y127303D01*
X312621Y127428D01*
X313100Y127542D01*
X313583Y127644D01*
X314067Y127734D01*
X314554Y127813D01*
X315042Y127879D01*
X315532Y127933D01*
X316023Y127976D01*
X316515Y128006D01*
X317007Y128024D01*
X317500Y128030D01*
X317993Y128024D01*
X318485Y128006D01*
X318977Y127976D01*
X319468Y127933D01*
X319958Y127879D01*
X320446Y127813D01*
X320933Y127734D01*
X321417Y127644D01*
X321900Y127542D01*
X322379Y127428D01*
X322856Y127303D01*
X323329Y127165D01*
X323799Y127017D01*
X324265Y126856D01*
X324727Y126684D01*
X325184Y126502D01*
X325637Y126307D01*
X326085Y126102D01*
X326528Y125886D01*
X326966Y125659D01*
X327397Y125421D01*
X327823Y125173D01*
X328243Y124915D01*
X328656Y124646D01*
X329062Y124367D01*
X329462Y124078D01*
X329854Y123780D01*
X330239Y123472D01*
X330616Y123155D01*
X330985Y122828D01*
X331346Y122493D01*
X331699Y122149D01*
X332043Y121796D01*
X332378Y121435D01*
X332705Y121066D01*
X333022Y120689D01*
X333330Y120304D01*
X333628Y119912D01*
X333917Y119512D01*
X334196Y119106D01*
X334465Y118693D01*
X334723Y118273D01*
X334971Y117847D01*
X335209Y117416D01*
X335436Y116978D01*
X335652Y116535D01*
X335857Y116087D01*
X336052Y115634D01*
X336234Y115177D01*
X336406Y114715D01*
X336567Y114249D01*
X336715Y113779D01*
X336853Y113306D01*
X336978Y112829D01*
X337092Y112350D01*
X337194Y111867D01*
X337284Y111383D01*
X337363Y110896D01*
X337429Y110408D01*
X337483Y109918D01*
X337526Y109427D01*
X337556Y108935D01*
X337574Y108443D01*
X337580Y107950D01*
X337574Y107457D01*
X337556Y106965D01*
X337526Y106473D01*
X337483Y105982D01*
X337429Y105492D01*
X337363Y105004D01*
X337284Y104517D01*
X337194Y104033D01*
X337092Y103550D01*
X336978Y103071D01*
X336853Y102594D01*
X336715Y102121D01*
X336567Y101651D01*
X336406Y101185D01*
X336234Y100723D01*
X336052Y100266D01*
X335857Y99813D01*
X335652Y99365D01*
X335436Y98922D01*
X335209Y98484D01*
X334971Y98053D01*
X334723Y97627D01*
X334465Y97207D01*
X334196Y96794D01*
X333917Y96388D01*
X333628Y95988D01*
X333330Y95596D01*
X333022Y95211D01*
X332705Y94834D01*
X332378Y94465D01*
X332043Y94104D01*
X331699Y93751D01*
X331346Y93407D01*
X330985Y93072D01*
X330616Y92745D01*
X330239Y92428D01*
X329854Y92120D01*
X329462Y91822D01*
X329062Y91533D01*
X328656Y91254D01*
X328243Y90985D01*
X327823Y90727D01*
X327397Y90479D01*
X326966Y90241D01*
X326528Y90014D01*
X326085Y89798D01*
X325637Y89593D01*
X325184Y89398D01*
X324727Y89216D01*
X324265Y89044D01*
X323799Y88883D01*
X323329Y88735D01*
X322856Y88597D01*
X322379Y88472D01*
X321900Y88358D01*
X321417Y88256D01*
X320933Y88166D01*
X320446Y88087D01*
X319958Y88021D01*
X319468Y87967D01*
X318977Y87924D01*
X318485Y87894D01*
X317993Y87876D01*
X317500Y87870D01*
X317007Y87876D01*
X316515Y87894D01*
X316023Y87924D01*
X315532Y87967D01*
X315042Y88021D01*
X314554Y88087D01*
X314067Y88166D01*
X313583Y88256D01*
X313100Y88358D01*
X312621Y88472D01*
X312144Y88597D01*
X311671Y88735D01*
X311201Y88883D01*
X310735Y89044D01*
X310273Y89216D01*
X309816Y89398D01*
X309363Y89593D01*
X308915Y89798D01*
X308472Y90014D01*
X308034Y90241D01*
X307603Y90479D01*
X307177Y90727D01*
X306757Y90985D01*
X306344Y91254D01*
X305938Y91533D01*
X305538Y91822D01*
X305146Y92120D01*
X304761Y92428D01*
X304384Y92745D01*
X304015Y93072D01*
X303654Y93407D01*
X303301Y93751D01*
X302957Y94104D01*
X302622Y94465D01*
X302295Y94834D01*
X301978Y95211D01*
X301670Y95596D01*
X301372Y95988D01*
X301083Y96388D01*
X300804Y96794D01*
X300535Y97207D01*
X300277Y97627D01*
X300029Y98053D01*
X299791Y98484D01*
X299564Y98922D01*
X299348Y99365D01*
X299143Y99813D01*
X298948Y100266D01*
X298766Y100723D01*
X298594Y101185D01*
X298433Y101651D01*
X298285Y102121D01*
X298147Y102594D01*
X298022Y103071D01*
X297908Y103550D01*
X297806Y104033D01*
X297716Y104517D01*
X297637Y105004D01*
X297571Y105492D01*
X297517Y105982D01*
X297474Y106473D01*
X297444Y106965D01*
X297426Y107457D01*
X297420Y107950D01*
X342900Y82550D02*
X342900Y133350D01*
X292100Y133350D01*
X292100Y82550D01*
X342900Y82550D01*
X317500Y107950D02*
X304800Y107950D01*
X317500Y107950D02*
X317500Y120650D01*
X317500Y107950D02*
X330200Y107950D01*
X317500Y107950D02*
X317500Y95250D01*
D18*
X330449Y27807D02*
X336042Y27807D01*
X336042Y31536D01*
X335110Y33420D02*
X330449Y33420D01*
X335110Y33420D02*
X336042Y34352D01*
X336042Y36216D01*
X335110Y37149D01*
X330449Y37149D01*
X330449Y39033D02*
X336042Y39033D01*
X332314Y40897D02*
X330449Y39033D01*
X332314Y40897D02*
X330449Y42762D01*
X336042Y42762D01*
X336042Y44646D02*
X336042Y46511D01*
X336042Y45578D02*
X330449Y45578D01*
X330449Y44646D02*
X330449Y46511D01*
X330449Y48388D02*
X336042Y48388D01*
X336042Y52117D02*
X330449Y48388D01*
X330449Y52117D02*
X336042Y52117D01*
X336042Y54001D02*
X332314Y54001D01*
X330449Y55866D01*
X332314Y57730D01*
X336042Y57730D01*
X333246Y57730D02*
X333246Y54001D01*
X336042Y59615D02*
X330449Y59615D01*
X336042Y63343D01*
X330449Y63343D01*
X330449Y68024D02*
X331381Y68956D01*
X330449Y68024D02*
X330449Y66160D01*
X331381Y65228D01*
X335110Y65228D01*
X336042Y66160D01*
X336042Y68024D01*
X335110Y68956D01*
X330449Y70841D02*
X330449Y74569D01*
X330449Y70841D02*
X336042Y70841D01*
X336042Y74569D01*
X333246Y72705D02*
X333246Y70841D01*
D10*
X373380Y285750D02*
X373280Y285752D01*
X373181Y285758D01*
X373081Y285768D01*
X372983Y285781D01*
X372884Y285799D01*
X372787Y285820D01*
X372691Y285845D01*
X372595Y285874D01*
X372501Y285907D01*
X372408Y285943D01*
X372317Y285983D01*
X372227Y286027D01*
X372139Y286074D01*
X372053Y286124D01*
X371969Y286178D01*
X371887Y286235D01*
X371808Y286295D01*
X371730Y286359D01*
X371656Y286425D01*
X371584Y286494D01*
X371515Y286566D01*
X371449Y286640D01*
X371385Y286718D01*
X371325Y286797D01*
X371268Y286879D01*
X371214Y286963D01*
X371164Y287049D01*
X371117Y287137D01*
X371073Y287227D01*
X371033Y287318D01*
X370997Y287411D01*
X370964Y287505D01*
X370935Y287601D01*
X370910Y287697D01*
X370889Y287794D01*
X370871Y287893D01*
X370858Y287991D01*
X370848Y288091D01*
X370842Y288190D01*
X370840Y288290D01*
X388620Y285750D02*
X388720Y285752D01*
X388819Y285758D01*
X388919Y285768D01*
X389017Y285781D01*
X389116Y285799D01*
X389213Y285820D01*
X389309Y285845D01*
X389405Y285874D01*
X389499Y285907D01*
X389592Y285943D01*
X389683Y285983D01*
X389773Y286027D01*
X389861Y286074D01*
X389947Y286124D01*
X390031Y286178D01*
X390113Y286235D01*
X390192Y286295D01*
X390270Y286359D01*
X390344Y286425D01*
X390416Y286494D01*
X390485Y286566D01*
X390551Y286640D01*
X390615Y286718D01*
X390675Y286797D01*
X390732Y286879D01*
X390786Y286963D01*
X390836Y287049D01*
X390883Y287137D01*
X390927Y287227D01*
X390967Y287318D01*
X391003Y287411D01*
X391036Y287505D01*
X391065Y287601D01*
X391090Y287697D01*
X391111Y287794D01*
X391129Y287893D01*
X391142Y287991D01*
X391152Y288091D01*
X391158Y288190D01*
X391160Y288290D01*
X391160Y334010D02*
X391158Y334110D01*
X391152Y334209D01*
X391142Y334309D01*
X391129Y334407D01*
X391111Y334506D01*
X391090Y334603D01*
X391065Y334699D01*
X391036Y334795D01*
X391003Y334889D01*
X390967Y334982D01*
X390927Y335073D01*
X390883Y335163D01*
X390836Y335251D01*
X390786Y335337D01*
X390732Y335421D01*
X390675Y335503D01*
X390615Y335582D01*
X390551Y335660D01*
X390485Y335734D01*
X390416Y335806D01*
X390344Y335875D01*
X390270Y335941D01*
X390192Y336005D01*
X390113Y336065D01*
X390031Y336122D01*
X389947Y336176D01*
X389861Y336226D01*
X389773Y336273D01*
X389683Y336317D01*
X389592Y336357D01*
X389499Y336393D01*
X389405Y336426D01*
X389309Y336455D01*
X389213Y336480D01*
X389116Y336501D01*
X389017Y336519D01*
X388919Y336532D01*
X388819Y336542D01*
X388720Y336548D01*
X388620Y336550D01*
X373380Y336550D02*
X373280Y336548D01*
X373181Y336542D01*
X373081Y336532D01*
X372983Y336519D01*
X372884Y336501D01*
X372787Y336480D01*
X372691Y336455D01*
X372595Y336426D01*
X372501Y336393D01*
X372408Y336357D01*
X372317Y336317D01*
X372227Y336273D01*
X372139Y336226D01*
X372053Y336176D01*
X371969Y336122D01*
X371887Y336065D01*
X371808Y336005D01*
X371730Y335941D01*
X371656Y335875D01*
X371584Y335806D01*
X371515Y335734D01*
X371449Y335660D01*
X371385Y335582D01*
X371325Y335503D01*
X371268Y335421D01*
X371214Y335337D01*
X371164Y335251D01*
X371117Y335163D01*
X371073Y335073D01*
X371033Y334982D01*
X370997Y334889D01*
X370964Y334795D01*
X370935Y334699D01*
X370910Y334603D01*
X370889Y334506D01*
X370871Y334407D01*
X370858Y334309D01*
X370848Y334209D01*
X370842Y334110D01*
X370840Y334010D01*
X373380Y285750D02*
X388620Y285750D01*
X370840Y288290D02*
X370840Y292100D01*
X372110Y293370D01*
X391160Y292100D02*
X391160Y288290D01*
X391160Y292100D02*
X389890Y293370D01*
X372110Y328930D02*
X370840Y330200D01*
X372110Y328930D02*
X372110Y293370D01*
X389890Y328930D02*
X391160Y330200D01*
X389890Y328930D02*
X389890Y293370D01*
X370840Y330200D02*
X370840Y334010D01*
X391160Y334010D02*
X391160Y330200D01*
X388620Y336550D02*
X373380Y336550D01*
D38*
X381000Y338455D03*
X381000Y283845D03*
D17*
X367538Y286258D02*
X358640Y286258D01*
X358640Y290707D01*
X360123Y292190D01*
X363089Y292190D01*
X364572Y290707D01*
X364572Y286258D01*
X364572Y289224D02*
X367538Y292190D01*
X367538Y295379D02*
X367538Y301311D01*
X367538Y295379D02*
X361606Y301311D01*
X360123Y301311D01*
X358640Y299828D01*
X358640Y296862D01*
X360123Y295379D01*
D10*
X414020Y336550D02*
X414120Y336548D01*
X414219Y336542D01*
X414319Y336532D01*
X414417Y336519D01*
X414516Y336501D01*
X414613Y336480D01*
X414709Y336455D01*
X414805Y336426D01*
X414899Y336393D01*
X414992Y336357D01*
X415083Y336317D01*
X415173Y336273D01*
X415261Y336226D01*
X415347Y336176D01*
X415431Y336122D01*
X415513Y336065D01*
X415592Y336005D01*
X415670Y335941D01*
X415744Y335875D01*
X415816Y335806D01*
X415885Y335734D01*
X415951Y335660D01*
X416015Y335582D01*
X416075Y335503D01*
X416132Y335421D01*
X416186Y335337D01*
X416236Y335251D01*
X416283Y335163D01*
X416327Y335073D01*
X416367Y334982D01*
X416403Y334889D01*
X416436Y334795D01*
X416465Y334699D01*
X416490Y334603D01*
X416511Y334506D01*
X416529Y334407D01*
X416542Y334309D01*
X416552Y334209D01*
X416558Y334110D01*
X416560Y334010D01*
X398780Y336550D02*
X398680Y336548D01*
X398581Y336542D01*
X398481Y336532D01*
X398383Y336519D01*
X398284Y336501D01*
X398187Y336480D01*
X398091Y336455D01*
X397995Y336426D01*
X397901Y336393D01*
X397808Y336357D01*
X397717Y336317D01*
X397627Y336273D01*
X397539Y336226D01*
X397453Y336176D01*
X397369Y336122D01*
X397287Y336065D01*
X397208Y336005D01*
X397130Y335941D01*
X397056Y335875D01*
X396984Y335806D01*
X396915Y335734D01*
X396849Y335660D01*
X396785Y335582D01*
X396725Y335503D01*
X396668Y335421D01*
X396614Y335337D01*
X396564Y335251D01*
X396517Y335163D01*
X396473Y335073D01*
X396433Y334982D01*
X396397Y334889D01*
X396364Y334795D01*
X396335Y334699D01*
X396310Y334603D01*
X396289Y334506D01*
X396271Y334407D01*
X396258Y334309D01*
X396248Y334209D01*
X396242Y334110D01*
X396240Y334010D01*
X396240Y288290D02*
X396242Y288190D01*
X396248Y288091D01*
X396258Y287991D01*
X396271Y287893D01*
X396289Y287794D01*
X396310Y287697D01*
X396335Y287601D01*
X396364Y287505D01*
X396397Y287411D01*
X396433Y287318D01*
X396473Y287227D01*
X396517Y287137D01*
X396564Y287049D01*
X396614Y286963D01*
X396668Y286879D01*
X396725Y286797D01*
X396785Y286718D01*
X396849Y286640D01*
X396915Y286566D01*
X396984Y286494D01*
X397056Y286425D01*
X397130Y286359D01*
X397208Y286295D01*
X397287Y286235D01*
X397369Y286178D01*
X397453Y286124D01*
X397539Y286074D01*
X397627Y286027D01*
X397717Y285983D01*
X397808Y285943D01*
X397901Y285907D01*
X397995Y285874D01*
X398091Y285845D01*
X398187Y285820D01*
X398284Y285799D01*
X398383Y285781D01*
X398481Y285768D01*
X398581Y285758D01*
X398680Y285752D01*
X398780Y285750D01*
X414020Y285750D02*
X414120Y285752D01*
X414219Y285758D01*
X414319Y285768D01*
X414417Y285781D01*
X414516Y285799D01*
X414613Y285820D01*
X414709Y285845D01*
X414805Y285874D01*
X414899Y285907D01*
X414992Y285943D01*
X415083Y285983D01*
X415173Y286027D01*
X415261Y286074D01*
X415347Y286124D01*
X415431Y286178D01*
X415513Y286235D01*
X415592Y286295D01*
X415670Y286359D01*
X415744Y286425D01*
X415816Y286494D01*
X415885Y286566D01*
X415951Y286640D01*
X416015Y286718D01*
X416075Y286797D01*
X416132Y286879D01*
X416186Y286963D01*
X416236Y287049D01*
X416283Y287137D01*
X416327Y287227D01*
X416367Y287318D01*
X416403Y287411D01*
X416436Y287505D01*
X416465Y287601D01*
X416490Y287697D01*
X416511Y287794D01*
X416529Y287893D01*
X416542Y287991D01*
X416552Y288091D01*
X416558Y288190D01*
X416560Y288290D01*
X414020Y336550D02*
X398780Y336550D01*
X416560Y334010D02*
X416560Y330200D01*
X415290Y328930D01*
X396240Y330200D02*
X396240Y334010D01*
X396240Y330200D02*
X397510Y328930D01*
X415290Y293370D02*
X416560Y292100D01*
X415290Y293370D02*
X415290Y328930D01*
X397510Y293370D02*
X396240Y292100D01*
X397510Y293370D02*
X397510Y328930D01*
X416560Y292100D02*
X416560Y288290D01*
X396240Y288290D02*
X396240Y292100D01*
X398780Y285750D02*
X414020Y285750D01*
D38*
X406400Y283845D03*
X406400Y338455D03*
D17*
X419854Y318815D02*
X428752Y318815D01*
X419854Y318815D02*
X419854Y323264D01*
X421337Y324747D01*
X424303Y324747D01*
X425786Y323264D01*
X425786Y318815D01*
X425786Y321781D02*
X428752Y324747D01*
X421337Y327937D02*
X419854Y329420D01*
X419854Y332385D01*
X421337Y333868D01*
X422820Y333868D01*
X424303Y332385D01*
X424303Y330903D01*
X424303Y332385D02*
X425786Y333868D01*
X427269Y333868D01*
X428752Y332385D01*
X428752Y329420D01*
X427269Y327937D01*
M02*
